<?xml version="1.0" encoding="utf-8"?>
<!-- Generator: Adobe Illustrator 16.0.3, SVG Export Plug-In . SVG Version: 6.00 Build 0)  -->
<!DOCTYPE svg PUBLIC "-//W3C//DTD SVG 1.1//EN" "http://www.w3.org/Graphics/SVG/1.1/DTD/svg11.dtd">
<svg version="1.1" xmlns="http://www.w3.org/2000/svg" xmlns:xlink="http://www.w3.org/1999/xlink" x="0px" y="0px" width="1920px"
	 height="1080px" viewBox="0 0 1920 1080" enable-background="new 0 0 1920 1080" xml:space="preserve">
<g id="Capa_1">
	<g>
		<path fill-rule="evenodd" clip-rule="evenodd" fill="#E9D3BF" d="M644.672,162.521c-12.585-1.939-25.17-3.877-37.754-5.814
			c4.792-0.502,9.584-1.007,15.824-1.662c-3.74-3.571-6.275-5.992-8.81-8.41c-1.437-2.436-2.876-4.871-4.313-7.307
			c-0.144-1.176-0.287-2.35-0.431-3.524c-0.088-0.727-0.176-1.454-0.265-2.181c-2.629-6.881-0.899-14.104-1.665-21.134
			c1.9-1.333,2.225-3.386,2.496-5.464c0.609-1.492,1.217-2.984,1.825-4.479c2.146-3.6,4.291-7.202,6.437-10.801
			c4.132-5.128,7.355-11.669,15.771-10.113c0.17,1.629-0.421,3.877,1.927,4.148c2.38,0.274,2.197-2.127,2.797-3.614
			c6.467-1.073,14.249-7.401,17.5,4.379c-10.373,3.518-19.968,7.876-22.074,20.356c0.473,4.684-3.7,8.535-2.391,13.369
			c-0.268,5.003-0.196,9.9,4.171,13.469l-0.07-0.083c-0.179,1.993,0.206,3.706,2.295,4.557l-0.254,0.153
			c0.327,3.053,1.766,5.281,4.728,6.38c6.266,8.312,15.899,7.68,24.686,9.303c-9.908,5.407-9.455,14.487-9.292,24.056
			c0.462,27.188-0.606,149.828-0.505,177.022c0.021,5.716-1.604,12.157,8.061,11.913c4.609-0.115,5.091,4.496,5.393,8.273
			c-12.868,6.121-22.066-1.498-31.457-8.396c6.741-1.42,6.006-7.705,5.73-11.59c-2.309-32.449,0.334-160.366-0.352-192.814
			c3.19-0.541,6.94,1.229,10.35-2.136C649.946,156.879,646.941,158.191,644.672,162.521z M622.514,140.296
			c0.326,0.291,0.654,0.583,0.981,0.874c-0.296-0.323-0.591-0.646-0.886-0.97c-0.302-0.978-0.604-1.957-0.906-2.937
			c-0.283,0.197-0.825,0.55-0.816,0.564C621.398,138.669,621.959,139.482,622.514,140.296z M618.537,132.248
			c0.332-14.555,3.232-28.496,8.938-41.887C618.252,102.967,613.584,116.584,618.537,132.248z M650.302,164.789
			c-0.556,0.349-1.091,0.684-1.626,1.018c0.556,0.3,1.119,0.842,1.668,0.83c0.553-0.011,1.093-0.574,1.64-0.896
			C651.43,165.428,650.877,165.115,650.302,164.789z"/>
		<path fill-rule="evenodd" clip-rule="evenodd" fill="#D6BEAC" d="M638.512,82.167c-0.6,1.487-0.417,3.889-2.797,3.614
			c-2.348-0.271-1.757-2.52-1.927-4.148C635.362,81.806,636.938,81.985,638.512,82.167z"/>
		<path fill-rule="evenodd" clip-rule="evenodd" fill="#D6BEAC" d="M618.537,132.248c-4.953-15.664-0.285-29.281,8.938-41.887
			C621.77,103.752,618.869,117.693,618.537,132.248z"/>
		<path fill-rule="evenodd" clip-rule="evenodd" fill="#D6BEAC" d="M644.672,162.521c2.27-4.33,5.274-5.643,10.357-2.144
			c-3.409,3.364-7.159,1.595-10.35,2.136L644.672,162.521z"/>
		<path fill-rule="evenodd" clip-rule="evenodd" fill="#D6BEAC" d="M650.302,164.789c0.575,0.326,1.128,0.639,1.682,0.951
			c-0.547,0.322-1.087,0.886-1.64,0.896c-0.549,0.012-1.112-0.53-1.668-0.83C649.211,165.473,649.746,165.138,650.302,164.789z"/>
		<path fill-rule="evenodd" clip-rule="evenodd" fill="#D6BEAC" d="M622.513,140.298c-0.554-0.815-1.114-1.629-1.626-2.47
			c-0.009-0.015,0.533-0.367,0.816-0.564c0.303,0.979,0.604,1.959,0.906,2.937L622.513,140.298z"/>
		<path fill-rule="evenodd" clip-rule="evenodd" fill="#D6BEAC" d="M622.609,140.2c0.295,0.323,0.59,0.646,0.886,0.97
			c-0.327-0.291-0.655-0.583-0.982-0.873C622.513,140.298,622.609,140.2,622.609,140.2z"/>
	</g>
	<g>
		<g>
			<path fill="none" d="M706.746,368.492c1.543,6.984,7.057,13.02,14.285,14.121c-1.992,1.164-3.764,2.73-5.858,3.691
				c-2.058,0.944-3.752,1.152-5.954,0.496c-0.344-0.102-0.631-0.186-0.931-0.225c-2.169-5.371-3.759-10.943-3.083-16.772
				c0.01-0.091-0.127-0.108-0.152-0.026c-2.315,7.877,1.494,15.676,4.568,22.815c3.42,7.946,6.266,15.817,4.709,24.267
				c-0.688-3.705-2.104-7.251-4-10.533c-1.172-2.035-2.453-4.001-3.859-5.884c-1.044-1.401-2.088-3.117-3.516-4.183
				c-0.108-0.863-0.187-1.73-0.182-2.602c0.01-2.09,0.457-4.111,0.541-6.189c0.006-0.158-0.217-0.225-0.297-0.09
				c-1.956,3.359-1.508,8.137-0.775,11.801c0.897,4.506,2.564,8.785,4.09,13.105c1.649,4.67,3.383,9.621,3.366,14.637
				c-0.009,3.322-0.565,6.56-1.4,9.736c-0.031-4.198-0.692-8.598-2.341-12.057c-1.288-2.699-3.1-5.021-4.86-7.417
				c-1.554-2.118-4.726-5.91-3.808-8.765c0.211-0.655-0.773-1.115-1.108-0.499c-0.937,1.729,0.021,4.069,0.931,5.724
				c-0.476,1.895-0.525,3.842-1.012,5.738c-0.836,3.262-1.368,6.573-1.694,9.924c-0.601,6.172-0.915,12.346-2.393,18.342
				c-0.392-4.665-2.032-9.066-3.171-13.688c-1.773-7.183-1.113-14.83-0.834-22.168c0.279-7.416,0.673-14.843,0.776-22.264
				c0.964-1.446,1.984-3.047,3.091-4.912c5.372-9.066,6.977-33.835,7.106-35.978c2.853-0.89,5.705-1.78,8.558-2.669
				C706.558,353.343,705.118,361.132,706.746,368.492z"/>
		</g>
		<g>
			<path fill="#F7E6BF" d="M700.715,349c-4.104,0-8.209,2.038-12.312,3.193c-0.308,0.088-0.457,0.201-0.403,0.484
				c1.531,8.479,3.014,16.968,3.336,25.568c0.16,4.321,0.139,8.604,0.027,12.918c-3.707,4.916-6.602,8.072-9.744,14.199
				c-4.324,8.426-20.553,33.12-30.936,33.12l0,0c-10.384,0-26.813-24.804-31.137-33.229s-8.168-10.892-14.317-20.372
				c-6.149-9.477-7.79-35.882-7.79-35.882H700.715z"/>
		</g>
		<g>
			<path d="M619.079,405.568c-2.45-4.773-4.751-7.631-7.415-11.031c-1.982-2.531-4.23-5.244-6.877-9.324
				c-6.154-9.484-7.809-35.086-7.876-36.181L596.877,349H704.54l-7.245,1.506c-2.918,0.818-5.832,1.063-8.777,1.9
				c1.645,9.097,3.031,17.336,3.343,25.733c0.146,3.889,0.153,8.147,0.027,12.994l-0.003,0.177l-0.102,0.135
				c-0.775,1.029-1.514,1.983-2.229,2.901c-2.685,3.454-5.002,6.437-7.469,11.241c-4.395,8.563-20.658,33.414-31.402,33.414
				C639.729,439.002,622.871,412.958,619.079,405.568z M690.811,378.226c-0.311-8.327-1.692-16.481-3.332-25.538
				c-0.099-0.557,0.222-1.104,0.782-1.264c2.874-0.811,5.751-2.424,8.626-2.424h-98.885c0.279,4,2.153,26.828,7.668,35.332
				c2.622,4.037,4.854,6.84,6.823,9.354c2.697,3.441,5.026,6.438,7.524,11.301c4.811,9.375,20.998,32.951,30.666,32.951
				c9.694,0,25.506-23.173,30.465-32.838c2.512-4.891,4.857-7.904,7.575-11.4c0.679-0.875,1.383-1.777,2.117-2.751
				C690.961,386.195,690.951,382.047,690.811,378.226z"/>
		</g>
		<g>
			<path fill="#DEE0C8" d="M692.564,350.641c4.992-1.559,9.982-3.115,14.975-4.67c-0.981,7.372-2.421,15.161-0.793,22.521
				c1.543,6.984,7.057,13.02,14.285,14.121c-1.992,1.164-3.764,2.73-5.858,3.691c-2.058,0.944-3.752,1.152-5.954,0.496
				c-0.344-0.102-0.631-0.186-0.931-0.225c-2.169-5.371-3.759-10.943-3.083-16.772c0.01-0.091-0.127-0.108-0.152-0.026
				c-2.315,7.877,1.494,15.676,4.568,22.815c3.42,7.946,6.266,15.817,4.709,24.267c-0.688-3.705-2.104-7.251-4-10.533
				c-1.172-2.035-2.453-4.001-3.859-5.884c-1.044-1.401-2.088-3.117-3.516-4.183c-0.108-0.863-0.187-1.73-0.182-2.602
				c0.01-2.09,0.457-4.111,0.541-6.189c0.006-0.158-0.217-0.225-0.297-0.09c-1.956,3.359-1.508,8.137-0.775,11.801
				c0.897,4.506,2.564,8.785,4.09,13.105c1.649,4.67,3.383,9.621,3.366,14.637c-0.009,3.322-0.565,6.56-1.4,9.736
				c-0.031-4.198-0.692-8.598-2.341-12.057c-1.288-2.699-3.1-5.021-4.86-7.417c-1.554-2.118-4.726-5.91-3.808-8.765
				c0.211-0.655-0.773-1.115-1.108-0.499c-0.937,1.729,0.021,4.069,0.931,5.724c-0.476,1.895-0.525,3.842-1.012,5.738
				c-0.836,3.262-1.368,6.573-1.694,9.924c-0.601,6.172-0.915,12.346-2.393,18.342c-0.392-4.665-2.032-9.066-3.171-13.688
				c-1.773-7.183-1.113-14.83-0.834-22.168c0.545-14.389,1.526-28.8-0.033-43.16c-0.353-3.268-0.807-6.527-1.308-9.775
				c-0.292-1.883-0.592-3.76-0.905-5.637c-0.083-0.504-0.838-0.207-0.179-0.412C687.91,352.086,690.239,351.365,692.564,350.641z"/>
		</g>
		<path opacity="0.3" d="M610.02,349h7.553h82.237c-0.931,0-1.86,0.271-2.792,0.562c-2.871,0.798-5.743,1.669-8.614,2.477
			c-0.087,0.026-0.158-0.011-0.219,0.04c-0.867,0.268-1.733,0.5-2.602,0.769c-0.659,0.204,0.096-0.112,0.179,0.393
			c0.313,1.876,0.613,3.745,0.905,5.629c0.393,2.545,0.74,5.095,1.05,7.654c-5.217,1.616-10.512,2.899-15.891,4.021
			c-7.451,1.554-14.972,3.624-22.582,4.174c-7.184,0.518-14.084-0.987-20.998-2.588c-0.666,1.896-1.268,3.818-1.778,5.783
			c-1.663,6.427-3.208,13.417-2.128,20.064c0.944,5.815,4.097,11.295,7.225,16.201c3.317,5.207,7.688,9.504,11.804,14.061
			c4.003,4.43,7.528,7.189,13.267,8.139c-2.101,1.314-4.119,2.097-5.951,2.097c-10.384,0-26.813-24.798-31.137-33.224
			s-8.168-10.892-14.317-20.371c-6.149-9.478-7.79-35.879-7.79-35.879H610.02z"/>
		<g>
			<path fill="#DEE0C8" d="M625.082,353.738c2.107,6.32-0.524,12.64-2.895,19.223c-3.686,9.742-5.529,17.641-4.477,27.909
				c0.791,6.058,1.316,12.377,3.423,18.169c-5.266-3.949-8.688-12.639-10.531-18.959c-1.317,6.057-2.897,14.746-2.897,20.802
				c0,7.636,2.371,14.22,1.053,21.854c-0.525,3.948-1.315,7.899-2.368,11.585c0.263-7.373-5.002-16.325-6.847-23.433
				c-2.369-8.164-1.844-14.746-1.053-22.909c0.525-4.214,0.789-8.425,1.578-12.638c-2.104,4.213-3.422,8.688-5.791,12.638
				c-2.634,5.002-6.849,6.583-11.585,9.216c10.004-8.162,2.37-20.011,6.317-30.018c2.107-5.266,4.74-9.74,5.794-15.271
				c0.79-5.266,0-10.794,0.526-16.061c0.527-3.686,0.791-8.689,2.369-11.849"/>
		</g>
		<g>
			<g>
				<path d="M625.199,353.709c1.703,4.959,0.584,9.854-0.988,14.699c-1.73,5.327-3.816,10.456-5.088,15.931
					c-1.314,5.669-1.559,11.604-0.815,17.373c0.75,5.817,1.368,11.636,3.312,17.204c0.137,0.398-0.41,0.814-0.746,0.548
					c-5.863-4.625-8.708-12.321-10.737-19.268c0.309,0.008,0.618,0.016,0.927,0.024c-1.834,8.357-3.423,16.947-2.601,25.524
					c0.454,4.71,1.347,9.31,1.132,14.063c-0.219,4.899-1.418,9.955-2.73,14.657c-0.152,0.546-0.977,0.396-0.969-0.156
					c0.061-5.157-1.947-10.071-3.807-14.794c-1.705-4.334-3.269-8.645-4.114-13.243c-0.881-4.779-0.706-9.675-0.325-14.494
					c0.438-5.526,0.975-11.12,1.948-16.579c0.298,0.134,0.595,0.266,0.894,0.401c-2.371,4.877-3.852,10.249-7.031,14.705
					c-2.535,3.552-6.801,5.345-10.499,7.374c-0.544,0.301-1.138-0.468-0.65-0.885c5.096-4.368,5.497-10.104,5.138-16.389
					c-0.329-5.773-0.221-10.592,2.116-15.965c1.317-3.031,2.737-6.004,3.786-9.148c1.346-4.043,1.281-8.236,1.229-12.442
					c-0.08-6.14,0.035-13.456,2.635-19.153c0.307-0.67,1.275-0.064,0.974,0.602c-2.948,6.466-2.449,14.695-2.432,21.615
					c0.017,7.629-2.942,13.686-5.853,20.555c-4.381,10.344,2.913,22.781-6.828,31.129c-0.217-0.295-0.435-0.592-0.65-0.889
					c3.874-2.122,7.903-3.914,10.548-7.616c2.996-4.198,4.439-9.405,6.678-14.012c0.266-0.546,0.982-0.099,0.893,0.404
					c-0.956,5.373-1.442,10.882-1.906,16.315c-0.462,5.407-0.454,10.758,0.648,16.092c1.845,8.936,7.694,17.139,7.601,26.441
					c-0.324-0.052-0.646-0.104-0.971-0.157c1.38-4.976,2.495-10.184,2.734-15.353c0.218-4.699-0.803-9.393-1.242-14.055
					c-0.779-8.274,1.033-16.767,2.734-24.827c0.106-0.497,0.801-0.399,0.928,0.022c1.995,6.627,4.715,14.209,10.328,18.648
					c-0.25,0.183-0.499,0.363-0.746,0.547c-1.934-5.568-2.567-11.396-3.289-17.213c-0.6-4.818-0.593-9.73,0.22-14.525
					c0.907-5.37,2.707-10.416,4.573-15.512c2.164-5.897,4.424-11.802,2.813-18.143C624.93,353.617,625.15,353.568,625.199,353.709
					L625.199,353.709z"/>
			</g>
		</g>
		<path opacity="0.3" d="M589.01,387.178c2.107-5.266,4.74-9.68,5.794-15.211c0.248-1.654,0.337-3.967,0.363-4.967h-0.005
			c0.057-5-0.191-7.482,0.168-11.096c0.527-3.686,0.791-8.719,2.369-11.878l12.32,4.368l15.063,5.352
			c1.89,5.668-0.033,11.332-2.159,17.189c-6.859-1.439-13.867-1.719-20.763-2.693c-0.069,2.564-0.402,5.158-0.717,7.398
			c-0.727,5.207-2.419,9.899-4.612,14.654c-0.852,1.848-2.271,4.048-2.378,6.114c1.268-1.129,2.723-1.927,4.07-2.981
			c1.564-1.226,2.613-2.961,4.043-4.149c2.027,3.049-0.311,8.696-0.799,12.03c-0.635,4.35-0.653,8.936-0.854,13.321
			c-0.197,4.345-0.209,8.939,0.021,13.285c0.217,4.056,1.947,7.907,3.248,11.704c0.813,2.372,3.436,9.535,2.185,13.201
			c-0.407-7.063-5.104-15.299-6.823-21.932c-2.369-8.164-1.844-14.746-1.053-22.909c0.525-4.214,0.789-8.425,1.578-12.638
			c-2.104,4.213-3.422,8.688-5.791,12.638c-2.634,5.002-6.849,6.583-11.585,9.216C592.696,409.033,585.063,397.185,589.01,387.178z"
			/>
		<path d="M687.697,391.133L687.697,391.133c-0.106,4.471-0.301,8.943-0.499,13.41c-0.198,4.468-0.4,8.936-0.492,13.406
			c-0.083,3.963-0.392,8.102,0.196,12.037c1.094,7.326,4.722,14.131,3.964,21.688c-0.069,0.668,0.912,0.762,1.116,0.18
			c2.469-6.988,2.82-14.24,3.561-21.545c0.539-5.301,1.868-10.336,2.211-15.6c1.543,2.48,3.424,4.706,5.027,7.15
			c3.848,5.868,4.708,13.732,3.75,20.596c-0.113,0.816,1.129,0.937,1.377,0.222c1.646-4.767,3.173-9.835,3.184-14.933
			c0.01-4.359-0.989-8.576-2.393-12.686c-1.58-4.613-3.552-9.131-4.762-13.863c-0.205-0.81-0.395-1.627-0.566-2.446
			c0.564,0.702,1.175,1.371,1.691,2.063c1.313,1.766,2.576,3.576,3.674,5.485c2.549,4.427,4.422,9.151,4.653,14.305
			c0.036,0.769,1.099,0.979,1.351,0.217c2.833-8.532,1.161-16.938-2.372-24.97c-1.303-2.963-2.739-5.981-3.995-9.065
			c1.023,0.179,1.975,0.847,3.039,0.845c1.127-0.001,2.221-0.146,3.272-0.594c2.659-1.141,4.854-3.044,7.442-4.314
			c0.289-0.143,0.141-0.522-0.141-0.551c-9.246-0.933-14.504-9.349-14.973-17.908c-0.35-6.358,0.701-12.529,1.539-18.806
			c0.039-0.292-0.307-0.411-0.574-0.329c-3.916,1.202-7.827,1.768-11.74,3.874c-3.748,1.051-7.497,2.036-11.244,3.192
			c-0.281,0.088-0.416,0.068-0.371,0.353c1.402,8.479,2.758,17.033,3.049,25.636C687.818,382.496,687.799,386.817,687.697,391.133z
			 M688.008,411.795c0.279-7.418,0.673-14.84,0.776-22.26l0,0c0.101-6.972-0.052-13.933-0.81-20.891
			c-0.353-3.265-0.807-6.51-1.308-9.76c-0.292-1.881-0.592-3.729-0.905-5.607c-0.083-0.507-0.838-0.151-0.179-0.355
			c2.327-0.723,4.656-1.425,6.981-2.151c2.027-0.63,4.055-1.771,6.081-1.771h0.346c0,0-0.002-0.063-0.003-0.101
			c2.85-0.889,5.701-2.088,8.551-2.976c-0.981,7.372-2.421,15.184-0.793,22.545c1.543,6.984,7.057,13.031,14.285,14.133
			c-1.992,1.164-3.764,2.736-5.858,3.697c-2.058,0.944-3.752,1.155-5.954,0.499c-0.344-0.102-0.631-0.183-0.931-0.223
			c-2.169-5.371-3.759-10.942-3.083-16.772c0.01-0.09-0.127-0.107-0.152-0.025c-2.315,7.877,1.494,15.676,4.568,22.814
			c3.42,7.947,6.266,15.818,4.709,24.268c-0.688-3.705-2.104-7.251-4-10.533c-1.172-2.035-2.453-4.001-3.859-5.884
			c-1.044-1.401-2.088-3.117-3.516-4.183c-0.108-0.863-0.187-1.73-0.182-2.602c0.01-2.09,0.457-4.111,0.541-6.189
			c0.006-0.158-0.217-0.225-0.297-0.09c-1.956,3.359-1.508,8.137-0.775,11.801c0.897,4.506,2.564,8.785,4.09,13.105
			c1.649,4.67,3.383,9.621,3.366,14.637c-0.009,3.322-0.565,6.56-1.4,9.736c-0.031-4.198-0.692-8.598-2.341-12.057
			c-1.288-2.699-3.1-5.021-4.86-7.417c-1.554-2.118-4.726-5.91-3.808-8.765c0.211-0.655-0.773-1.115-1.108-0.499
			c-0.937,1.729,0.021,4.069,0.931,5.724c-0.476,1.895-0.525,3.842-1.012,5.738c-0.836,3.262-1.368,6.573-1.694,9.924
			c-0.601,6.172-0.915,12.346-2.393,18.342c-0.392-4.665-2.032-9.066-3.171-13.688C687.068,426.778,687.729,419.131,688.008,411.795
			z"/>
		<g>
			<path fill="#343434" d="M690.952,273c0,0,2.789,1.902,7.132,1.902c4.346,0,13.496,1.865,15.996,2.918
				c2.502,1.056,2.567-0.418,5.397,2.809c2.831,3.227,13.825,16.905,21.525,18.484c7.702,1.58,18.695,11.187,30.214,11.649
				c0,0-3.51,1.466-7.371,6.116c-3.863,4.652-7.022,9.652-11.235,8.775c-4.212-0.879-5.354-1.316-5.354-1.316
				s1.778,4.717,1.449,8.076c0,0-20.669,10.268-39.892,13.954c-19.22,3.687-42.854,16.852-66.147,17.553
				c-23.288,0.702-71.209-24.751-71.209-24.751l1.492-7.459c0,0-6.406,2.454-8.689,4.824c0,0-16.148-21.414-23.697-25.451
				c0,0,28.086-11.059,41.779-20.712c13.689-9.655,17.377-14.482,21.941-15.01c4.563-0.525,8.946-2.362,8.946-2.362H690.952z"/>
		</g>
		<g>
			<path d="M571.209,339.637l-0.346-0.185l1.377-6.886c-1.821,0.76-5.925,2.596-7.6,4.336l-0.429,0.443l-0.372-0.494
				c-0.16-0.213-16.165-21.367-23.523-25.301l-1.006-0.537l1.059-0.416c0.282-0.113,28.185-11.145,41.668-20.649
				c4.836-3.411,8.388-6.143,11.241-8.339c5.226-4.029,7.849-6.163,10.944-6.52c4.452-0.515,8.793-2.09,8.837-2.09h0.082h77.811
				h0.14l0.118,0.151c0.026,0.015,2.734,1.511,6.874,1.511c4.351,0,13.648,1.742,16.201,2.816c0.787,0.332,1.291,0.394,1.777,0.438
				c1.127,0.104,1.915,0.283,3.813,2.445c0.271,0.311,0.618,0.721,1.032,1.201c3.669,4.29,13.416,15.686,20.201,17.079
				c3.151,0.646,6.855,2.608,10.776,4.687c5.886,3.119,12.557,6.654,19.354,6.926l2.372,0.098l-2.19,0.916
				c-0.033,0.014-3.451,1.479-7.17,5.959c-0.559,0.672-1.103,1.354-1.637,2.021c-2.896,3.62-5.629,7.039-9.035,7.039
				c-0.355,0-0.717-0.036-1.074-0.111c-2.224-0.464-3.603-0.807-4.415-1.03c0.511,1.593,1.388,4.789,1.14,7.319l-0.027,0.291
				l-0.262,0.128c-0.207,0.104-20.955,10.345-40.025,14.003c-7.475,1.431-15.603,4.299-24.205,7.336
				c-13.646,4.814-27.758,9.795-42.024,10.225c-0.323,0.01-0.649,0.015-0.981,0.015
				C618.224,364.462,571.676,339.885,571.209,339.637z M746.764,324.527l-0.41-1.092l1.091,0.414
				c0.013,0.004,1.19,0.444,5.273,1.296c3.22,0.673,6.072-2.804,9.071-6.554c0.539-0.675,1.088-1.359,1.65-2.038
				c2.344-2.823,4.554-4.49,5.976-5.384c-6.397-0.748-12.544-4.007-18.024-6.909c-3.85-2.043-7.49-3.968-10.494-4.585
				c-7.141-1.465-16.706-12.643-20.789-17.418c-0.41-0.479-0.754-0.877-1.025-1.185c-1.715-1.954-2.272-1.994-3.116-2.073
				c-0.513-0.047-1.151-0.086-2.091-0.482c-2.475-1.041-11.536-2.852-15.791-2.852c-3.965,0-6.654-1.666-7.261-1.666h-77.509
				c-0.646,0-4.695,1.631-8.972,2.124c-2.804,0.32-5.351,2.302-10.421,6.212c-2.861,2.203-6.423,4.996-11.277,8.418
				c-12.133,8.555-35.777,18.332-40.897,20.398c7.269,4.723,20.206,21.478,22.577,24.588c2.6-2.28,8.186-4.43,8.436-4.527
				l0.895-0.338l-1.604,8.012c4.378,2.285,48.8,25.169,70.602,24.505c14.104-0.423,28.136-5.374,41.704-10.165
				c8.642-3.049,16.806-5.928,24.36-7.377c17.756-3.406,37.004-12.572,39.487-13.778
				C748.393,328.897,746.781,324.571,746.764,324.527z"/>
		</g>
		<path opacity="0.3" d="M580.578,291.566c0.606-0.399,1.201-0.797,1.764-1.194c13.689-9.655,17.377-14.482,21.941-15.01
			c4.563-0.525,8.946-2.362,8.946-2.362h57.677c6.29,3,10.072,6.951,14.625,13.151l9.619,4.847c0.574,2.518,2.736,4.975,0.244,7.098
			c-1.559,1.326-4.794,2.461-6.705,3.381c-4.365,2.105-8.904,4.367-13.441,6.08c-2.186,0.826-5.916,2.475-8.158,1.383
			c-1.738,4.275-6.577,3.248-10.555,3.429c-4.896,0.218-9.814-0.269-14.725-0.235c-3.288,0.021-4.383,0.34-5.4-2.926
			c-9.672-2.538-19.326-4.965-29.183-7.197c-0.887-0.201-1.782-0.386-2.678-0.566c-2.47,0.287-4.884,0.998-7.286,1.809
			c-7.724,2.602-15.695,5.127-22.859,9.066c-3.625,1.992-6.989,4.161-10.246,6.713c1.626,1.604,3.955,4.473,3.771,6.862
			c3.154-0.187,6.84-0.475,7.748,3.198c0.756,3.049-0.682,6.004,1.061,8.919c1.53,2.565,4.799,3.974,5.987,6.776
			c-6.827-3.26-11.269-5.617-11.269-5.617l1.492-7.459c0,0-6.406,2.454-8.689,4.824c0,0-16.148-21.414-23.697-25.451
			C540.563,311.084,566.383,300.914,580.578,291.566z"/>
		<g>
			<path fill="#343434" d="M695.649,291l-13.166-59.471c0,0,4.739-14.727,17.379-18.676c0,0,11.783,6.725,12.243,7.117l5.398,12.053
				l10.071,6.253c0,0,3.226,0.858,4.409-2.958c1.186-3.818,5.398-16.26,9.019-18.762c0,0-8.491,2.701-12.31,5.857
				c0,0-8.689-15.859-13.691-20.998c0,0-25.937-19.218-28.699-20.929c0,0-23.303,13.558-29.096,18.167
				c-5.793,4.606-17.248,13.297-21.459,14.48c-4.213,1.186-6.648,5.99-6.714,6.582c-0.067,0.594-3.423,14.884-5.794,18.57
				C620.871,241.973,608.146,288,607.793,291H695.649z"/>
		</g>
		<path opacity="0.3" d="M650.039,209.728c-6.043,4.429-11.584,9.116-15.672,15.484c-4.966,7.734-8.052,16.89-8.194,26.112
			c-0.126,8.262,3.298,16.623,1.986,24.84c-1.169,7.322-8.196,14.785-16.152,11.71c-1.097-0.424-2.069-0.977-2.946-1.625
			c3.339-13.486,12.238-44.366,14.18-47.39c2.371-3.686,5.727-18.549,5.794-19.143c0.065-0.592,2.501-5.396,6.714-6.582
			c4.211-1.184,15.666-9.874,21.459-14.48c5.793-4.609,29.096-18.167,29.096-18.167c0.371,0.23,1.17,0.783,2.26,1.557
			c-5.84,3.632-11.519,7.476-17.041,11.614C664.363,199.021,657.256,204.442,650.039,209.728z"/>
		<g>
			<path d="M607.27,293.521c0.371-4.477,13.191-51.001,15.527-54.637c2.344-3.644,5.643-18.643,5.713-19.196
				c0.098-0.879,2.766-5.828,7.094-7.045c3.637-1.023,13.375-8.111,21.275-14.394c5.758-4.581,28.205-17.659,29.158-18.212
				l0.273-0.163l0.268,0.165c2.752,1.705,27.678,20.176,28.801,21.016c4.53,4.648,11.882,17.697,13.477,20.571
				c4.024-3.011,11.652-5.449,11.988-5.558l3.348-1.059l-2.889,1.999c-3.089,2.134-6.994,12.638-8.814,18.503
				c-0.962,3.101-3.236,3.446-4.17,3.446c-0.5,0-0.838-0.06-0.874-0.068l-10.354-6.302l-5.404-11.861
				c-0.922-0.596-7.43-4.026-11.879-6.488c-11.457,3.728-16.281,17.594-16.777,19.057L696.303,295h-89.08L607.27,293.521z
				 M681.939,231.768l0.041,0.337c0.049-0.154,4.969-15.403,17.726-19.388l0.213-0.043l0.199,0.121
				c2.773,1.533,11.864,6.58,12.329,6.978l5.469,11.987l9.857,6.072c0.098,0.018,0.293,0.047,0.545,0.047
				c1.062,0,2.474-0.467,3.164-2.692c0.724-2.33,4.094-12.808,7.585-17.39c-2.74,1.002-7.492,2.924-10.037,5.028l-0.492,0.407
				l-0.306-0.563c-0.088-0.159-8.711-15.867-13.543-20.839c-0.253-0.187-24.604-18.242-28.4-20.748
				c-2.653,1.548-23.398,13.676-28.754,17.937c-2.758,2.193-16.757,13.154-21.645,14.529c-3.875,1.09-6.208,5.393-6.334,6.039
				c-0.059,0.527-3.434,15.452-5.873,19.244C621.449,242.311,609.516,286,608.395,291h86.602L681.939,231.768z"/>
		</g>
		<g>
			<path fill="#422951" d="M689.988,278.171c0,0,2.436-1.185,3.291,1.909s2.633,12.836,2.633,12.836s0.924,0.791-3.884,3.621
				c-4.806,2.83-18.233,10.334-43.512,10.334c-25.276,0-40.284-11.938-40.284-11.938s-2.107-0.789-1.054-3.598
				c1.054-2.808,3.95-14.043,3.95-14.043s3.949-2.721,8.249,0c4.301,2.72,16.677,6.934,33.353,7.461
				S689.988,278.171,689.988,278.171z"/>
		</g>
		<path opacity="0.5" d="M659.928,291.682c-0.039,2.32,0.549,4.55,0.672,6.854c0.113,2.089-0.196,4.628-2.1,5.885
			c-1.908,1.263-4.501,0.588-6.608,0.395c-2.442-0.227-4.987,0.275-7.394-0.077c-2.576-0.381-3.119-2.636-3.295-4.937
			c-0.387-5.063,0.005-11,1.887-15.787c3.014,0.37,6.236,0.633,9.641,0.74c2.213,0.069,4.496,0.004,6.791-0.162
			c0.119,0.16,0.23,0.334,0.319,0.531C660.72,287.05,659.963,289.654,659.928,291.682z"/>
		<g>
			<path d="M607.965,295.394c-0.2-0.092-0.69-0.354-1.082-0.897c-0.434-0.605-0.824-1.676-0.197-3.345
				c1.032-2.749,3.904-13.877,3.933-13.99l0.051-0.19l0.16-0.113c0.077-0.053,1.921-1.301,4.5-1.301
				c1.521,0,2.979,0.435,4.331,1.291c4.236,2.68,16.542,6.857,33.088,7.379c16.391,0.516,36.874-6.486,37.01-6.528
				c0.059-0.028,0.588-0.274,1.277-0.274c0.769,0,2.146,0.326,2.752,2.516c0.813,2.942,2.416,11.647,2.623,12.775
				c0.063,0.113,0.115,0.281,0.096,0.5c-0.082,0.92-1.459,2.156-4.209,3.775c-11.725,6.908-26.453,10.408-43.78,10.408
				C624.141,307.398,609.029,296.207,607.965,295.394z M695.395,293.012c-0.018-0.098-1.782-9.756-2.623-12.791
				c-0.318-1.16-0.904-1.746-1.736-1.746c-0.451,0-0.815,0.17-0.876,0.194c-0.198,0.069-20.876,7.142-37.444,6.612
				c-16.758-0.529-29.283-4.803-33.617-7.543c-1.182-0.749-2.451-1.128-3.769-1.128c-1.84,0-3.278,0.746-3.743,1.019
				c-0.411,1.584-2.929,11.266-3.912,13.894c-0.834,2.22,0.584,2.855,0.743,2.919l0.142,0.081
				c0.15,0.118,15.178,11.823,39.958,11.823c17.135,0,31.685-3.453,43.244-10.263c3.021-1.78,3.573-2.635,3.675-2.882
				L695.395,293.012z"/>
		</g>
		<path fill="#F7931E" d="M639.748,307.245l0.828-27.853L664,280.292v28.312L639.748,307.245z M645.352,284.861l-0.778,17.422
			l13.427,0.75v-17.679L645.352,284.861z"/>
		<path d="M638.803,307.742l1.007-28.896l24.19,0.941v29.373L638.803,307.742z M640.294,279.939l-1.059,26.809L662,308.047v-27.249
			L640.294,279.939z M643.426,302.781l1.364-18.467l13.21,0.533v18.742L643.426,302.781z M646.748,285.428l-1.358,16.359
			l12.61,0.689v-16.615L646.748,285.428z"/>
		<g>
			<path fill="#191919" d="M641.535,398.251c0.955,0,1.979-0.768,2.663-2.046c1.092-2.035,2.479-3.137,4.579-4.805l1.035-0.827
				c2.025-1.634,3.612-1.417,5.015-1.226c0.359,0.051,0.704,0.095,1.036,0.113c1.21,0.057,2.406-0.335,3.203-1.06
				c0.695-0.633,1.085-1.507,1.123-2.519c0.105-2.748-2.764-4.521-2.885-4.596c-0.25-0.15-0.574-0.068-0.723,0.178
				c-0.152,0.248-0.072,0.572,0.174,0.725c0.026,0.016,2.464,1.528,2.383,3.652c-0.028,0.737-0.291,1.335-0.783,1.781
				c-0.592,0.54-1.508,0.838-2.437,0.783c-0.304-0.014-0.619-0.058-0.948-0.103c-1.531-0.209-3.438-0.47-5.818,1.45l-1.027,0.822
				c-2.127,1.688-3.662,2.903-4.854,5.131c-0.614,1.144-1.423,1.598-1.911,1.468c-0.395-0.108-0.606-0.638-0.566-1.413
				c0.12-2.332,1.119-9.189,1.252-10.114c0.148-0.251,0.611-1.063,1.803-3.289c0.719-1.345,4.251-8.331,3.213-13.968
				c-0.054-0.287-0.327-0.479-0.611-0.424c-0.289,0.053-0.477,0.327-0.425,0.611c0.756,4.106-1.201,9.723-3.105,13.285
				c-1.472,2.748-1.812,3.305-1.825,3.326l-0.075,0.2c-0.046,0.319-1.146,7.779-1.277,10.319c-0.066,1.3,0.431,2.229,1.335,2.48
				C641.227,398.23,641.38,398.251,641.535,398.251z"/>
		</g>
		<path d="M632.857,361.059c0.04-0.087,0.08-0.174,0.121-0.262C632.988,360.989,632.929,361.018,632.857,361.059z"/>
		<path d="M632.938,361.697c-0.062-0.136-0.126-0.273-0.187-0.411c0.009-0.02,0.018-0.042,0.027-0.062L632.938,361.697z"/>
		<path d="M632.857,361.059c-0.026,0.055-0.051,0.111-0.078,0.166l-0.025-0.082C632.787,361.1,632.822,361.078,632.857,361.059z"/>
		<path d="M688.403,351.883c2.871-0.809,5.743-1.834,8.614-2.633c-1.484,0.463-2.967,0.928-4.453,1.391
			c-1.46,0.454-2.92,0.906-4.38,1.359C688.245,351.95,688.316,351.908,688.403,351.883z"/>
		<path opacity="0.3" d="M607.179,291.336c1.054-2.808,3.95-14.043,3.95-14.043s3.949-2.721,8.249,0
			c1.437,0.908,3.774,1.982,6.87,3.031c-0.668,1.631-1.613,3.123-1.811,4.934c-0.266,2.42,0.416,4.711,1.322,6.915
			c1.727,4.2,3.893,7.819,7.404,10.813c1.448,1.236,3.207,1.998,4.714,3.158c-18.789-2.584-29.646-11.211-29.646-11.211
			S606.125,294.145,607.179,291.336z"/>
		<path d="M681.301,357.332c-0.068,0.154-0.137,0.307-0.207,0.461l-0.247-0.041C680.971,357.582,681.122,357.441,681.301,357.332z"
			/>
		<path opacity="0.3" d="M685.583,352.809c2.327-0.723,4.656-1.443,6.981-2.168c4.992-1.559,9.982-3.115,14.975-4.67
			c-0.607,4.564-1.389,9.287-1.512,13.97c-4.042,1.458-8.063,2.974-12.098,4.473c-0.277,0.104-0.557,0.194-0.834,0.296
			c-0.045,9.518,0.453,19.123-0.582,28.555c-1.271,11.545-4.321,21.923-1.109,33.422c0.912,3.267,1.832,6.551,2.336,9.887
			c-0.365,3.73-0.832,7.436-1.728,11.076c-0.392-4.665-2.032-9.066-3.171-13.688c-1.773-7.183-1.113-14.83-0.834-22.168
			c0.545-14.389,1.526-28.8-0.033-43.16c-0.074-0.705-0.172-1.41-0.258-2.115l0,0c-0.31-2.559-0.657-5.115-1.05-7.66
			c-0.009-0.059-0.019-0.119-0.028-0.177l0,0c-0.283-1.821-0.574-3.644-0.877-5.46C685.679,352.717,684.924,353.014,685.583,352.809
			z"/>
		<path opacity="0.3" d="M707.475,398.322c2.535,3.309,4.314,7.426,5.639,11.354c0.664,1.973,1.371,4.346,1.066,6.467
			c-0.73-3.444-2.076-6.745-3.85-9.816c-1.172-2.035-2.453-4.001-3.859-5.884c-1.044-1.401-2.088-3.117-3.516-4.183
			c-0.108-0.863-0.187-1.73-0.182-2.602c0.004-1.133,0.139-2.25,0.273-3.365c0.114,1.152,0.364,2.273,0.91,3.34
			C704.855,395.377,706.291,396.779,707.475,398.322z"/>
	</g>
</g>
<g id="Capa_2">
</g>
</svg>
