<?xml version="1.0" encoding="utf-8"?>
<!-- Generator: Adobe Illustrator 16.0.3, SVG Export Plug-In . SVG Version: 6.00 Build 0)  -->
<!DOCTYPE svg PUBLIC "-//W3C//DTD SVG 1.1//EN" "http://www.w3.org/Graphics/SVG/1.1/DTD/svg11.dtd">
<svg version="1.1" xmlns="http://www.w3.org/2000/svg" xmlns:xlink="http://www.w3.org/1999/xlink" x="0px" y="0px" width="1920px"
	 height="1080px" viewBox="0 0 1920 1080" enable-background="new 0 0 1920 1080" xml:space="preserve">
<g id="Capa_1">
	<g>
		<path fill-rule="evenodd" clip-rule="evenodd" fill="#E9D3BF" d="M644.672,162.521c-12.585-1.939-25.17-3.877-37.754-5.814
			c4.792-0.502,9.583-1.007,15.824-1.662c-3.741-3.571-6.275-5.992-8.81-8.41c-1.437-2.436-2.876-4.871-4.313-7.307
			c-0.144-1.176-0.287-2.35-0.431-3.524c-0.088-0.727-0.176-1.454-0.265-2.181c-2.629-6.881-0.899-14.104-1.665-21.134
			c1.9-1.333,2.225-3.386,2.496-5.464c0.609-1.492,1.217-2.984,1.825-4.479c2.146-3.6,4.291-7.202,6.437-10.801
			c4.132-5.128,7.355-11.669,15.771-10.113c0.17,1.629-0.421,3.877,1.927,4.148c2.38,0.274,2.197-2.127,2.797-3.614
			c6.467-1.073,14.249-7.401,17.5,4.379c-10.373,3.518-19.968,7.876-22.074,20.356c0.473,4.684-3.7,8.535-2.391,13.369
			c-0.268,5.003-0.196,9.9,4.171,13.469l-0.07-0.083c-0.179,1.993,0.206,3.706,2.295,4.557l-0.254,0.153
			c0.327,3.053,1.766,5.281,4.728,6.38c6.266,8.312,15.899,7.68,24.686,9.303c-9.908,5.407-9.455,14.487-9.292,24.056
			c0.462,27.188-0.606,149.828-0.505,177.022c0.021,5.716-1.604,12.157,8.061,11.913c4.609-0.115,5.091,4.496,5.393,8.273
			c-12.868,6.121-22.066-1.498-31.457-8.396c6.741-1.42,6.006-7.705,5.73-11.59c-2.309-32.449,0.334-160.366-0.352-192.814
			c3.19-0.541,6.94,1.229,10.35-2.136C649.946,156.879,646.941,158.191,644.672,162.521z M622.514,140.296
			c0.326,0.291,0.654,0.583,0.981,0.874c-0.296-0.323-0.591-0.646-0.886-0.97c-0.302-0.978-0.604-1.957-0.906-2.937
			c-0.283,0.197-0.825,0.55-0.816,0.564C621.398,138.669,621.959,139.482,622.514,140.296z M618.537,132.248
			c0.332-14.555,3.232-28.496,8.938-41.887C618.252,102.967,613.584,116.584,618.537,132.248z M650.302,164.789
			c-0.556,0.349-1.091,0.684-1.626,1.018c0.556,0.3,1.119,0.842,1.668,0.83c0.553-0.011,1.093-0.574,1.64-0.896
			C651.43,165.428,650.877,165.115,650.302,164.789z"/>
		<path fill-rule="evenodd" clip-rule="evenodd" fill="#D6BEAC" d="M638.512,82.167c-0.6,1.487-0.417,3.889-2.797,3.614
			c-2.348-0.271-1.757-2.52-1.927-4.148C635.362,81.806,636.938,81.985,638.512,82.167z"/>
		<path fill-rule="evenodd" clip-rule="evenodd" fill="#D6BEAC" d="M618.537,132.248c-4.953-15.664-0.285-29.281,8.938-41.887
			C621.77,103.752,618.869,117.693,618.537,132.248z"/>
		<path fill-rule="evenodd" clip-rule="evenodd" fill="#D6BEAC" d="M644.672,162.521c2.27-4.33,5.274-5.643,10.357-2.144
			c-3.409,3.364-7.159,1.595-10.35,2.136C644.679,162.514,644.672,162.521,644.672,162.521z"/>
		<path fill-rule="evenodd" clip-rule="evenodd" fill="#D6BEAC" d="M650.302,164.789c0.575,0.326,1.128,0.639,1.682,0.951
			c-0.547,0.322-1.087,0.886-1.64,0.896c-0.549,0.012-1.112-0.53-1.668-0.83C649.211,165.473,649.746,165.138,650.302,164.789z"/>
		<path fill-rule="evenodd" clip-rule="evenodd" fill="#D6BEAC" d="M622.513,140.298c-0.554-0.815-1.114-1.629-1.626-2.47
			c-0.009-0.015,0.533-0.367,0.816-0.564c0.303,0.979,0.604,1.959,0.906,2.937L622.513,140.298z"/>
		<path fill-rule="evenodd" clip-rule="evenodd" fill="#D6BEAC" d="M622.609,140.2c0.295,0.323,0.59,0.646,0.886,0.97
			c-0.327-0.291-0.655-0.583-0.982-0.873C622.513,140.298,622.609,140.2,622.609,140.2z"/>
	</g>
	<g>
		<g>
			<path d="M566.684,506.552c0.326,2.173,3.486,3.179,5.314,3.681c3.611,0.994,7.391,1.809,10.721,3.584
				c4.156,2.211,5.281,5.875,10.281,9.045c0,0.002,0,0.008,0,0.012c0,0.309,0.235,0.573,0.344,0.847
				c1.879,6.474,5.675,12.19,5.797,19.155c0.114,6.547-1.346,12.942-1.553,19.462c-0.195,6.146-0.907,11.885,0.985,17.877
				c0.883,2.802,2.021,5.55,3.626,8.019c0.496,0.763,1.014,1.478,1.518,2.188c0.078,1.23-0.178,3.152-0.198,3.241
				c-0.224,0.923-0.587,1.829-0.758,2.764c-0.305,1.657-1.084,3.259-1.251,4.909c-2.136,2.899,0.318,5.992-0.499,9.197
				c-0.116,0.454,0.186,0.801,0.622,0.86c0.033,0.003,0.066,0.003,0.098,0.009c-0.184,5.519-2.111,10.785-3.192,16.18
				c-0.523,2.617-1.284,5.177-1.521,7.845c-0.231,2.62,0.027,5.141,0.184,7.76c0.374,6.284,2.404,12.255,1.495,18.593
				c-0.883,6.155-2.931,12.039-3.731,18.21c-0.404,3.124-0.998,6.094-1.064,9.259c-0.066,3.117-0.364,6.162-0.84,9.246
				c-0.494,3.224-0.699,6.581-1.595,9.723c-0.745,2.61-1.821,5.053-2.72,7.602c-1.918,5.432-2.955,11.514-3.844,17.2
				c-0.848,5.442-0.296,10.918,0.374,16.348c0.058,0.466,0.688,0.558,0.982,0.286c2.245-2.055,2.178-5.747,2.956-8.616
				c0.672,0.878,1.401,1.68,2.283,2.389c0.401,0.32,0.881-0.104,0.933-0.506c0.157-1.271,0.743-2.128,1.31-3.192
				c1.65-3.104,2.609-6.705,4.764-9.529c1.543-2.024,3.965-5.207,6.582-5.843c3.281-0.793,4.984,4.729,5.646,7.036
				c0.513,1.77,0.542,3.762,1.363,5.432c2.209,4.501,7.002,0.385,8.994-2.159c2.229-2.848,4.007-6.348,6.674-8.803
				c0.924-0.852,2.131-1.613,2.895-2.614c1.295-1.703,2.7-3.365,5.034-3.373c2.702-0.013,4.741-0.963,6.294-3.28
				c0.7-1.047,1.381-2.189,2.021-3.359c0.375,2.48,1.824,4.639,3.084,6.804c0.921,1.583,2.663,2.423,4.463,2.066
				c3.154-0.626,6.08-1.938,9.135-2.877c3.375-1.04,6.854-0.646,9.852,1.057c0.221,0.182,0.434,0.367,0.662,0.544
				c0.078,0.062,0.152,0.052,0.221,0.015c0.213,0.147,0.434,0.281,0.644,0.439c3.794,2.92,11.172,0.202,14.112-2.99
				c2.204-2.399,2.694-6.144,5.063-8.295c1.327-1.208,3.755-2.858,5.712-2.972c0.656,5.731,2.857,10.627,5.305,15.816
				c1.332,2.822,4.125,8.156,7.856,8.042c0.358-0.012,0.593-0.254,0.632-0.603c0.245-2.276-0.359-4.555-0.363-6.846
				c-0.004-2.549,0.141-5.019,0.515-7.543c0.639-4.333,1.462-9.021,4.585-12.311c0.328,0.517,0.662,1.028,0.975,1.555
				c1.152,1.948,2.084,3.854,2.563,6.083c0.365,1.711,0.646,3.525,1.383,5.127c1.608,3.501,3.35,7.12,5.789,10.123
				c0.469,0.576,1.205-0.125,0.967-0.707c-1.261-3.069-2-5.782-2.027-9.122c-0.025-2.839,0.697-5.375,1.162-8.144
				c0.777-4.62,0.594-10.01,0.213-14.671c-0.41-5.052-1.545-9.894-3.945-14.388c-1.281-2.4-2.211-4.942-3.359-7.404
				c-1.059-2.273-2.51-4.293-3.633-6.528c-2.889-5.754-3.948-11.561-4.035-17.957c-0.07-5.19-0.521-10.384-0.532-15.569
				c-0.007-2.153,0.349-4.65-0.303-6.734c-0.696-2.227-1.11-4.502-1.952-6.681c-0.969-2.515-1.891-5.02-2.826-7.542
				c-0.519-1.401-1.315-2.684-1.65-4.126c0.544-0.008,1.088-0.012,1.631-0.038c0.286-0.016,0.498-0.159,0.598-0.431
				c0.684-1.864,1.664-5.752,0.484-7.589c-0.648-1.01-1.515-1.508-2.49-1.705c0.176-1.597-0.562-3.247-0.936-4.793
				c-0.561-2.309-1.151-4.628-1.458-6.986c-0.333-2.537-0.596-5.206,0.226-7.689c0.396-1.204,0.572-2,0.506-3.041
				c2.311-4.576,3.344-9.933,1.986-14.844c-0.703-2.547-1.579-4.959-1.463-7.65c0.087-2.055,0.147-4.143,0.315-6.188
				c0.308-3.714,0.146-7.429,0.55-11.115c0.451-4.086,0.271-8.441,1.535-12.39c0.524-1.632,1.219-3.206,2.328-4.504
				c0.909-0.423,1.824-0.832,2.753-1.214c3.761-1.543,7.644-2.623,11.547-3.743c4.13-1.184,8.368-3.282,12.735-2.062
				c3.229,0.902,5.674,0.409,8.934,0.103c4.756-0.442,6.68-6.584,5.662-10.694c-0.695-2.811-2.489-5.27-4.213-7.548
				c-1.167-1.544-2.892-2.763-3.794-4.502c-0.985-1.901-1.901-3.847-2.633-5.862c-1.363-3.749-2.077-7.572-3.099-11.408
				c-0.82-3.086-2.211-5.841-3.943-8.516c-2.062-3.184-4.781-6.382-6.29-9.863c-0.868-2.005-1.14-3.928-1.725-5.983
				c-0.335-1.173-0.841-3.276-0.884-4.067c0.008-0.014,0.013-0.025,0.02-0.037c0.066,0.141,0.309,0.135,0.311-0.057
				c0-0.087,0.002-0.176,0.002-0.264c0-0.078-0.055-0.129-0.117-0.152c0.932-2.492,0.229-5.275-1.756-7.362
				c-3.332-3.503-7.782-4.729-12.119-6.554c-4.584-1.924-8.465-5.326-13.359-6.504c-2.98-0.717-6.064-1.199-9.155-1.55
				c-1.676-0.19-3.353-0.351-5.018-0.46c-0.313-0.298-0.646-0.59-1.024-0.869c-2.328-1.709-5.176-3.027-8.094-3.26
				c-1.239-0.1-2.688-0.191-3.885,0.256c-0.361,0.137-1.645,1.152-1.984,1.135l-0.018-0.525l-31.973,1.092l0.004,0.164
				c-3.256,0.316-6.232,1.861-8.631,4.104c-0.369,0.343-0.729,0.701-1.083,1.066c-4.847,1.508-10.048,2.42-15.179,3.537
				c-6.522,1.42-12.934,3.169-18.36,6.886c-2.974,2.038-5.429,5.371-5.054,9.146c0.09,0.893,0.277,1.758,0.527,2.604
				c-0.25,0.436-1.004,0.933-1.483,1.29c-5.456,4.068-7.146,12.141-9.29,18.188c-2.626,7.411-5.492,14.638-7.292,22.313
				c-0.854,3.637-1.468,7.27-1.587,11.01c-0.055,1.732-0.171,3.461-0.344,5.184C567.081,504.061,566.516,505.425,566.684,506.552z
				 M678.164,436.54c-1.679,2.572-3.172,5.222-4.444,8.021c-1.099,2.413-1.698,5.152-3.069,7.426
				c-2.749,4.563-7.436,7.129-12.476,8.459c-2.485,0.657-5.015,1.125-7.565,1.443c-2.535,0.316-5.283,0.765-7.729-0.255
				c-5.475-2.281-7.371-9.589-10.318-14.25c-1.658-2.626-3.625-4.806-5.752-7.054c-2.001-2.117-4.506-4.694-4.884-7.735
				c-0.832-6.7,7.604-13.529,13.761-13.829c0.236-0.012,0.395-0.136,0.492-0.295l30.793-1.05l-0.004-0.084
				c0.468,0.147,0.503,0.192,0.894-0.094c1.128-0.831,2.806-0.961,4.161-0.833c2.972,0.279,5.998,1.359,8.34,3.255
				c0.001,0.001,0.002,0.003,0.005,0.005c-0.157,0.195-0.136,0.549,0.161,0.609c0.215,0.043,0.432,0.078,0.645,0.115
				C686.391,425.521,681.418,431.553,678.164,436.54z M708.063,516.509c0.022-0.019,0.048-0.036,0.053-0.071
				c0.022,0.006,0.046,0.012,0.071,0.018C708.145,516.473,708.104,516.49,708.063,516.509z M703.171,605.496
				c-4.039-0.226-8.077-0.839-12.112-1.017c-7.49-0.325-15.014-0.986-22.511-1.029c-0.199,0-0.349,0.071-0.47,0.172
				c-0.722-1.175-1.604-2.284-2.693-3.368c-1.258-1.249-2.438-2.968-4.025-3.829c-0.048-0.025-0.09-0.042-0.137-0.065
				c0.061,0.012,0.115,0.023,0.185,0.031c1.897,0.287,4.306-0.342,6.255-0.345c4.186-0.005,8.354,0.251,12.504,0.784
				c7.66,0.985,15.717,2.429,23.436,1.16c1.199,0.105,2.362,0.455,2.572,1.809c0.175,1.109,0.035,2.043-0.154,3.146
				c-0.13,0.765-0.146,1.735-0.418,2.441C705.416,605.868,703.506,605.513,703.171,605.496z M659.041,599.284
				c2.308,1.026,4.185,4.814,5.05,6.677c1.22,2.634,2.198,5.229,2.851,8.063c0.564,2.44,0.943,4.937,1.82,7.289
				c0.834,2.241,2.727,4.51,2.572,7.025c-0.214,3.477-3.123,0.966-3.698,0.302c-0.417-0.449-0.755-0.953-1.011-1.51
				c-0.558-1.252-0.948-2.488-1.357-3.785c-0.879-2.799-1.455-5.619-2.215-8.442c-0.997-3.72-2.265-7.57-5.306-9.965
				C659.251,603.568,659.386,601.378,659.041,599.284z M657.104,603.411c-2.08,2.015-7.104,2.245-7.525-1.412
				c-0.178-1.545-0.27-3.067,1.559-3.529c0.837-0.212,1.688-0.339,2.523-0.54c1.104-0.266,2.586-0.415,3.647-1.045
				C657.229,598.962,658.624,601.939,657.104,603.411z M658.168,596.114c0.007-0.005,0.012-0.011,0.018-0.018
				c0.006-0.01,0.001-0.021,0.004-0.029c1.82,0.35,3.264,0.428,4.624,2.03c1.108,1.301,2.259,2.597,3.296,3.953
				c2.518,3.293,3.93,7.307,4.057,11.472c0.11,3.618,0.91,6.871,2.155,10.27c0.802,2.19,5.092,10.911,0.583,11.434
				c-4.488,0.522-7.178-2.875-8.793-6.521c-1.354-3.05-3.324-7.144-3.352-10.594c-0.021-3.154-0.838-6.482-1.865-9.452
				c-0.434-1.257-1.213-2.173-2.105-3.073c0.021-0.014,0.043-0.021,0.065-0.033c0.033,0.018,0.068,0.024,0.104,0.033
				c3.136,2.338,4.499,6.754,5.323,10.486c0.806,3.635,1.722,7.232,3.072,10.708c0.777,1.997,2.226,3.679,4.291,4.376
				c1.32,0.443,2.562-0.932,2.635-2.155c0.201-3.304-1.929-5.704-2.859-8.699c-1.016-3.269-1.377-6.712-2.477-9.963
				c-0.992-2.937-2.364-5.668-4.381-8.033c-0.982-1.146-2.055-2.787-3.567-3.266c-0.185-1.013-0.472-1.994-0.761-2.836
				C658.223,596.166,658.189,596.146,658.168,596.114z M602.903,611.509c6.31,0.573,12.872-0.874,19.056-1.859
				c3.238-0.517,6.413-1.277,9.633-1.864c2.656-0.486,5.396-1.271,8.086-1.476c-0.205,0.499-0.449,0.981-0.764,1.435
				c-2.104,3.021-6.203,5.133-6.7,9.024c-0.461,3.613,0.253,8.271,1.853,11.554c1.159,2.379,3.573,3.237,5.91,1.817
				c3.295-2.003-0.785-6.188-0.416-8.64c0.531-3.52,4.742-5.472,6.486-8.398c0.822-1.382,0.835-3.127,1.134-4.657
				c0.307-1.57,0.925-2.64,1.886-3.689c1.614,1.697,4.37,2.021,6.611,1.298c1.1,1.11,1.953,2.177,2.334,3.827
				c0.559,2.425,1.59,4.805,1.607,7.325c0.028,3.782,1.564,7.683,3.078,11.102c1.25,2.823,2.7,6.383,5.98,7.343
				c2.77,0.81,5.113,1.171,6.848-1.468c0.686-1.047,0.633-2.575,0.219-3.707c-0.846-2.303-1.713-4.593-2.549-6.903
				c-0.943-2.607-1.998-5.388-2.088-8.196c-0.057-1.824-0.186-3.571-0.574-5.357c-0.402-1.853-0.947-3.508-1.713-5.049
				c6.012,0.057,11.992,0.711,17.994,0.916c5.662,0.19,11.376,1.057,17.049,1.02c0.079,1.55,0.766,2.754,1.26,4.313
				c0.744,2.351,1.475,4.588,2.399,6.88c0.661,1.64,0.946,3.195,1.425,4.858c0.374,1.302,1.031,2.707,1.026,4.079
				c-0.005,2.506-0.068,5.018,0.058,7.519c0.527,10.32-0.652,21.108,4.128,30.64c1.263,2.515,2.915,4.811,4.057,7.384
				c1.102,2.483,2.093,4.999,3.355,7.406c2.849,5.437,3.876,11.355,3.903,17.452c0.014,2.743-0.054,5.496-0.152,8.238
				c-0.094,2.621-0.902,4.987-1.248,7.554c-0.434,3.23-0.12,6.232,0.688,9.193c-1.803-2.803-3.377-6.024-4.045-8.952
				c-0.887-3.876-1.914-6.941-4.098-10.305c-2.063-3.175-4.459-6.266-5.932-9.778c-1.574-3.754-1.927-7.763-2.5-11.752
				c-0.564-3.921-1.369-7.93-3.516-11.333c-2.122-3.368-4.305-6.784-4.815-10.823c-0.532-4.237-1.749-8.325-2.178-12.581
				c-0.389-3.845-1.234-7.362-2.13-11.113c-0.051-0.213-0.356-0.128-0.326,0.085c0.382,2.744,1.186,5.381,1.323,8.162
				c0.097,1.939,0.156,3.896,0.468,5.818c0.324,2.005,0.806,3.974,1.212,5.963c0.366,1.797,0.438,3.638,0.839,5.425
				c0.883,3.957,3.258,6.927,5.066,10.454c2.08,4.066,2.635,8.428,3.248,12.89c0.514,3.75,1.167,7.465,2.967,10.844
				c1.391,2.614,3.108,5.015,4.718,7.488c-2.914,2.347-4.364,6.759-4.914,10.286c-0.483,3.096-0.967,6.127-0.974,9.272
				c-0.004,2.311,0.503,4.825,0.383,7.129c-3.363-0.542-5.797-6.464-6.922-8.938c-1.688-3.707-3.217-7.191-4.027-11.052
				c0.068-0.033,0.119-0.104,0.096-0.188c-0.179-0.604-0.32-1.201-0.437-1.799c-0.056-0.403-0.116-0.803-0.156-1.218
				c-0.008-0.106-0.037-0.195-0.077-0.28c-0.49-4.011,0.085-7.938-0.155-12.09c-0.292-5.057-0.866-10.201-1.681-15.203
				c-0.799-4.917-2.025-10.043-4.312-14.512c-1.223-2.389-2.298-4.733-3.202-7.258c-0.6-1.67-1.781-1.921-2.772-3.163
				c-0.007-0.006-0.02,0.002-0.013,0.009c0.653,0.904,1.814,1.425,2.289,2.457c0.479,1.044,0.637,2.065,1.063,3.102
				c0.927,2.251,1.797,4.504,2.659,6.779c1.941,5.131,3.118,10.266,3.727,15.717c0.615,5.527,1.631,11.233,1.135,16.803
				c-0.196,2.21-0.451,4.717-0.03,7.002c-2.965,0.198-6.593,2.973-7.851,5.382c-1.63,3.121-2.678,6.277-6.039,8.012
				c-2.242,1.16-7.113,3.37-9.563,1.484c-0.763-0.589-1.543-1.112-2.354-1.563c-1.082-1.459-3.16-2.478-3.938-4.148
				c-1.411-3.032-1.399-7.447-1.389-10.77c0.018-6.474,0.623-12.911,0.595-19.379c-0.025-5.769,0.12-11.887-0.839-17.603
				c-1.008-6.014-3.045-12.311-5.6-17.85c-0.012-0.019-0.037-0.001-0.031,0.018c2.738,6.86,4.854,14.2,5.045,21.616
				c0.156,6.027,0.623,12.068,0.361,18.097c-0.299,6.898-0.815,13.625-0.321,20.53c0.162,2.269,0.221,4.827,1.708,6.676
				c0.432,0.539,0.884,1.043,1.344,1.531c-0.633-0.176-1.289-0.306-1.976-0.387c-2.957-0.34-5.39,0.531-8.137,1.541
				c-1.792,0.66-5.976,2.652-7.886,1.87c-2.779-1.134-4.502-6.261-4.842-8.956c-0.015-0.13-0.082-0.223-0.168-0.291
				c0.389-0.784,0.762-1.564,1.087-2.329c2.751-6.438,1.88-14.037,2.046-20.877c0.195-7.889-1.92-15.305-3.577-22.938
				c-0.927-4.271-1.678-8.575-2.203-12.919c-0.386-3.188-1.446-6.187-1.859-9.34c-0.013-0.107-0.188-0.085-0.187,0.02
				c-0.018,0.259-0.01,0.516,0.019,0.771c0.933,7.557,1.757,15.233,3.415,22.704c0.925,4.167,1.984,8.28,2.623,12.507
				c0.602,3.977,0.597,7.78,0.49,11.779c-0.104,3.962,0.094,7.968-0.403,11.907c-0.483,3.827-2.055,6.697-3.757,10.079
				c-0.771,1.533-1.568,3.25-2.941,4.343c-1.788,1.428-3.533,0.865-5.479,1.45c-2.588,0.778-3.667,3.02-5.619,4.67
				c-2.588,2.193-4.426,4.81-6.382,7.555c-0.943,1.325-5.983,8.841-8.262,6.205c-1.474-1.711-1.371-4.488-2.051-6.563
				c-0.054-0.157-0.106-0.318-0.161-0.475c-0.125-1.066-0.483-2.033-0.889-3.168c-0.672-1.873-0.618-3.75-0.91-5.69
				c-0.676-4.488-1.152-9.821,0.095-14.277c1.204-4.293,1.807-8.728,2.858-13.06c0.917-3.775,1.913-7.483,2.426-11.346
				c0.572-4.326,1.227-8.767,1.371-13.129c0.068-2.093-0.083-4.222,0.168-6.299c0.237-1.946,0.519-3.846,0.394-5.81
				c-0.257-4.069-0.123-8.564-1.434-12.48c-0.505-1.51-1.431-2.838-1.933-4.337c-0.256-0.764-0.439-1.346-1.025-1.904
				c-0.064-0.061-0.186,0.04-0.184,0.137c0.004,0.181,0.037,0.318-0.154,0.341c-0.029,0-0.065,0.543-0.063,0.576
				c0.018,0.178,0.034,1.318,0.053,1.318h0.015c0.022,0-0.01-1.256,0.253-1.229c0.052,0.006,0.085-0.703,0.091-0.745
				c-0.063,0.482,1.218,3.267,1.524,4.118c0.678,1.877,1.051,3.803,1.274,5.783c0.491,4.393,0.798,8.889,0.241,13.277
				c-0.489,3.86-0.436,7.822-0.79,11.707c-0.404,4.422-0.765,8.888-1.702,13.239c-0.866,4.022-2.007,7.971-2.805,12.01
				c-0.727,3.676-2.186,7.58-2.205,11.333c-0.012,2.062-0.416,4.183-0.222,6.232c0.153,1.616,0.456,3.205,0.66,4.819
				c0.153,1.2,0.187,2.329,0.349,3.454c-0.034-0.044-0.067-0.091-0.104-0.132c-3.423-3.863-7.341-0.33-9.975,2.698
				c-1.996,2.299-3.338,4.822-4.595,7.595c-0.953,2.109-2.441,4.302-3.026,6.597c-0.719-0.688-1.292-1.449-1.886-2.304
				c-0.305-0.441-0.895-0.388-1.099,0.116c-0.948,2.33-0.771,5.869-2.158,8.178c-0.681-6.179-0.695-11.87,0.53-18.063
				c0.597-3.023,1.022-6.096,1.752-9.094c0.668-2.746,1.807-5.207,2.701-7.864c1.777-5.272,2.501-10.597,3.25-16.096
				c0.418-3.087,0.432-6.132,0.62-9.232c0.169-2.789,0.763-5.536,1.119-8.308c0.837-6.502,3.413-12.691,3.828-19.266
				c0.374-5.933-1.38-11.607-1.758-17.511c-0.2-3.134-0.409-6.105,0.194-9.223c0.517-2.666,1.148-5.316,1.682-7.98
				C601.127,620.465,602.717,616.249,602.903,611.509z M638.445,622.808c0.424,1.483,3.085,6.21-0.028,6.696
				c-3.991,0.627-5.052-7.331-5.036-10.188c0.012-2.34,0.391-4.287,2.131-5.974c1.17-1.135,2.281-2.27,3.334-3.513
				c2.112-2.504,2.441-5.336,3.18-8.426c0.454-1.904,1.43-4.082,3.613-4.477c1.285-0.234,2.477,0.187,3.642,0.658
				c-0.624,0.48-1.049,1.196-1.285,2.003c-1.786,0.192-2.884,0.989-3.574,2.834c-1.224,3.268-1.444,6.035-4.03,8.676
				c-1.59,1.623-3.723,3.599-4.061,5.982c-0.326,2.302-0.449,5.264,0.414,7.47c0.175,0.445,0.949,0.631,1.071,0.024
				c0.481-2.386,0.089-5.265,1.466-7.38c1.084-1.666,2.926-2.51,4.004-4.181c1-1.551,2.357-3.893,2.516-5.729
				c0.199-2.277,1.021-3.933,1.97-5.73c0.042,0.806,0.239,1.592,0.581,2.251c-1.209,0.769-1.935,2.227-2.211,3.637
				c-0.61,3.115-0.971,5.455-3.395,7.754c-1.468,1.391-3.535,2.979-4.139,5.016C638.36,621.045,638.198,621.95,638.445,622.808z
				 M641.471,613.538c-1.363,1.246-2.741,2.109-3.48,3.875c-0.482,1.151-0.67,2.33-0.805,3.523
				c-0.111-1.831,0.092-3.776,0.748-5.003c1.189-2.229,3.155-3.792,4.738-5.717c1.277-1.554,1.694-3.352,2.102-5.272
				c0.311-1.466,0.67-2.964,1.781-4.066c-0.077,0.078,0.893-0.646,1.32-0.929C643.899,603.564,645.474,609.88,641.471,613.538z
				 M604.717,601.141c3.991-1.198,8.137-2.505,12.342-2.588c4.143-0.075,8.197-0.4,12.335-0.005
				c4.045,0.386,8.243,0.539,12.325,0.541c-0.914,1.858-1.07,4.081-1.66,6.115c-0.063-0.026-0.132-0.05-0.217-0.055
				c-2.539-0.177-5.213,0.747-7.698,1.196c-3.208,0.58-6.367,1.355-9.591,1.863c-6.537,1.029-13.497,2.649-20.134,1.934
				C602.77,606.643,600.121,602.523,604.717,601.141z M594.578,524.111c1.145,0.995,2.355,1.914,3.697,2.674
				c3.393,1.92,6.979,3.212,10.059,5.693c2.621,2.115,5.153,3.557,8.342,4.665c3.494,1.214,7.389,2.835,11.049,3.392
				c3.43,0.521,6.737-0.768,10.111-1.215c2.432-0.321,4.938-0.916,7.389-0.953c1.824-0.028,4.244-0.21,5.997,0.321
				c2.801,0.853,5.054,1.846,8.038,1.026c3.333-0.914,6.276-2.674,9.328-4.236c3.609-1.844,7.442-3.063,11.229-4.472
				c3.621-1.349,7.183-2.87,10.804-4.206c3.117-1.148,6.123-3.101,9.082-4.616c2.219-1.136,4.426-2.311,6.664-3.417
				c-0.005,0.01-0.015,0.021-0.02,0.029c-0.754,1.273-1.342,2.624-1.697,4.066c-0.824,3.34-0.854,6.697-1.244,10.092
				c-0.473,4.076-0.387,8.111-0.74,12.189c-0.322,3.723-0.92,7.908,0.109,11.554c1.25,4.426,2.041,8.302,0.742,12.832
				c-1.039,3.627-2.729,7.336-5.502,9.978c-3,2.86-6.98,3.77-10.331,6.072c-2.647,1.82-4.305,4.448-5.569,7.331
				c-0.14,0.321,0.346,0.483,0.529,0.237c2.836-3.814,5.503-6.797,9.897-8.797c3.048-1.388,5.764-3.03,7.813-5.745
				c0.499-0.663,0.973-1.359,1.417-2.079c-0.394,1.08-0.809,2.159-0.944,3.334c-0.226,1.94-0.134,3.843,0.144,5.772
				c0.34,2.356,0.819,4.689,1.397,7.001c0.326,1.302,0.489,2.799,1.088,4.029c-8.188,0.73-16.075-0.358-24.195-1.307
				c-4.128-0.478-8.371-0.76-12.525-0.541c-1.757,0.092-5.075-0.118-6.485,1.041c-0.05,0.044-0.056,0.119-0.035,0.177
				c-0.628-0.091-1.206,0.001-2.007-0.083c-0.009-0.067-0.035-0.134-0.096-0.163c-1.266-0.622-2.649,0.069-3.918,0.387
				c-1.449,0.363-3.171,0.434-4.503,1.144c-0.06,0.031-0.112,0.072-0.169,0.108c-1.926-1.112-4.137-2.054-6.108-0.486
				c-0.45,0.358-0.813,0.756-1.122,1.181c-9.928-0.348-20.043-2.389-29.939-0.445c-2.408,0.471-4.792,1.08-7.133,1.823
				c-0.653,0.209-1.469,0.389-2.199,0.696c0.767-2.738,2.025-5.774,1.589-8.478c0.694,1.056,1.31,2.156,1.727,3.44
				c0.064,0.203,0.4,0.256,0.452,0.013c0.413-1.937-0.393-3.194-1.554-4.688c-2.272-2.924-4.143-6.189-5.261-9.735
				c-2.088-6.621-1.672-13.337-1.1-20.171c0.576-6.834,1.93-13.648,1.203-20.523C599.502,534.605,596.832,529.164,594.578,524.111z
				 M568.352,504.629c0.408-3.796,0.332-7.647,0.877-11.422c0.551-3.825,1.496-7.589,2.529-11.309
				c2.104-7.599,5.145-14.996,7.813-22.412c1.377-3.82,2.757-8.569,5.864-11.414c0.595-0.545,1.612-1.047,2.235-1.689
				c0.947,2.407,2.407,4.627,3.974,6.68c3.431,4.496,6.312,8.979,8.979,13.967c2.314,4.328,4.756,8.942,8.512,12.217
				c3.627,3.16,8.101,5.105,11.996,7.886c1.949,1.394,3.938,3.01,5.289,5.021c1.486,2.213,2.197,4.686,3.148,7.149
				c0.064,0.169,0.339,0.172,0.34-0.04c0.049-9.275-9.053-13.739-15.77-17.996c-0.83-0.525-1.6-1.089-2.344-1.669
				c-0.6-0.465-1.172-0.947-1.719-1.45c-2.6-2.377-4.682-5.146-6.53-8.396c-2.386-4.199-4.435-8.641-7.257-12.576
				c-2.612-3.643-6.072-7.005-7.689-11.275c0.273-0.154,0.387-0.643,0.406-0.936c-0.494-0.119-0.689-0.15-0.791-0.15
				c-1.432-5.008,0.979-9.041,5.406-11.609c5.102-2.961,10.781-4.178,16.455-5.389c4.977-1.059,9.95-2.111,14.523-4.322
				c-3.313,3.67-5.461,8.237-2.447,12.984c1.93,3.039,4.698,5.262,6.912,8.057c2.31,2.918,3.977,6.17,5.742,9.428
				c2.497,4.611,5.11,9.382,11.014,9.548c5.242,0.149,11.214-1.014,16.063-2.981c4.667-1.894,8.917-5.07,10.767-9.926
				c1.386-3.648,2.732-7.246,4.732-10.617c1.686-2.842,3.86-5.433,5.396-8.353c1.988-3.774,2.52-7.781,0.115-10.945
				c1.352,0.202,2.707,0.356,4.065,0.509c2.974,0.339,5.948,0.667,8.849,1.464c4.623,1.268,8.18,4.406,12.542,6.238
				c4.595,1.931,11.327,3.36,13.668,8.341c2.655,5.65-3.589,8.232-7.038,11.15c-3.396,2.872-4.924,7.529-8.863,9.754
				c-3.357,1.898-7.734,3.231-10.174,6.404c-2.687,3.492-3.529,7.728-5.133,11.738c-1.553,3.89-4.199,7.781-3.645,12.126
				c0.019,0.146,0.258,0.146,0.285,0.009c1.1-5.166,3.883-9.78,5.533-14.773c0.809-2.445,1.571-5.061,3.029-7.211
				c1.629-2.402,3.984-3.887,6.539-5.159c2.048-1.021,4.451-1.931,6.137-3.532c1.539-1.465,2.604-3.199,3.828-4.917
				c2.615-3.669,6.668-5.323,9.555-8.638c0.403-0.459,0.721-0.951,0.977-1.453c-0.266,2.16,0.477,4.599,1.067,6.654
				c0.866,3.004,2.318,5.688,3.966,8.336c1.782,2.867,3.912,5.842,5.226,8.961c1.356,3.222,1.908,6.457,2.772,9.819
				c0.853,3.339,1.908,6.649,3.365,9.778c0.675,1.447,1.326,2.925,2.393,4.137c1.09,1.238,2.281,2.323,3.197,3.709
				c1.78,2.684,3.893,5.195,3.745,8.625c-0.071,1.638-0.47,3.469-1.382,4.86c-1.17,1.78-2.843,2.085-4.838,2.208
				c-1.861,0.113-3.443,0.728-5.344,0.225c-1.471-0.391-2.98-0.934-4.524-0.925c-3.13,0.018-5.868,1.108-8.832,1.975
				c-4.993,1.459-9.831,2.921-14.556,4.876c0-0.002-0.003-0.002-0.004-0.003c-0.002-0.003-0.002-0.003-0.004-0.007
				c-0.037-0.063-0.088-0.098-0.154-0.109c-0.027-0.008-0.048-0.006-0.072-0.008c-0.02,0.002-0.035-0.002-0.053,0.002
				c-0.065,0.006-0.114,0.042-0.154,0.101c-0.004,0.007-0.008,0.013-0.014,0.021c-0.011,0.021-0.036,0.028-0.041,0.056
				c-0.006,0.033-0.031,0.072-0.043,0.107c-0.082-0.067-0.309-0.154-0.738-0.16c-0.068,0-0.141,0.058-0.137,0.133
				c0.015,0.282,0.139,0.106-0.252,0.291c-0.072,0.036-0.024,0.15,0.051,0.132c0.083-0.007,0.164-0.016,0.246-0.024
				c0.029,0.025,0.061,0.024,0.09,0.021c-1.293,0.563-2.58,1.156-3.857,1.812c-6.424,3.303-12.756,7.02-19.555,9.504
				c-6.098,2.229-12.355,4.14-18.104,7.206c-3.303,1.764-8.085,4.886-12.007,3.419c-3.054-1.14-5.952-1.626-9.245-1.433
				c-3.835,0.225-7.911,0.791-11.646,1.689c-2.159,0.514-4.312,0.943-6.493,0.271c-1.807-0.558-3.628-1.08-5.437-1.63
				c-4.001-1.219-8.104-2.391-11.423-5.035c-2.583-2.057-5.248-3.877-8.278-5.231c-3.765-1.685-6.563-3.996-9.397-6.952
				c-2.088-2.177-4.223-4.478-6.775-6.121c-3.052-1.965-6.417-3.152-9.9-4.115c-1.637-0.451-3.311-0.813-4.875-1.484
				C568.898,507.512,568.074,507.189,568.352,504.629z"/>
		</g>
		<g>
			<path fill="#53425B" d="M678.164,436.54c-1.679,2.572-3.172,5.222-4.444,8.021c-1.099,2.413-1.698,5.152-3.069,7.426
				c-2.749,4.563-7.436,7.129-12.476,8.459c-2.485,0.657-5.015,1.125-7.565,1.443c-2.535,0.316-5.283,0.765-7.729-0.255
				c-5.475-2.281-7.371-9.589-10.318-14.25c-1.658-2.626-3.625-4.806-5.752-7.054c-2.001-2.117-4.506-4.694-4.884-7.735
				c-0.832-6.7,7.604-13.529,13.761-13.829c0.236-0.012,0.395-0.136,0.492-0.295l30.793-1.05l-0.004-0.084
				c0.468,0.147,0.503,0.192,0.894-0.094c1.128-0.831,2.806-0.961,4.161-0.833c2.972,0.279,5.998,1.359,8.34,3.255
				c0.001,0.001,0.002,0.003,0.005,0.005c-0.157,0.195-0.136,0.549,0.161,0.609c0.215,0.043,0.432,0.078,0.645,0.115
				C686.391,425.521,681.418,431.553,678.164,436.54z"/>
		</g>
		<g>
			<path fill="#53425B" d="M569.229,493.207c0.551-3.825,1.496-7.589,2.529-11.309c2.104-7.599,5.145-14.996,7.813-22.412
				c1.377-3.82,2.757-8.569,5.864-11.414c0.595-0.545,1.612-1.047,2.235-1.689c0.947,2.407,2.407,4.627,3.974,6.68
				c3.431,4.496,6.312,8.979,8.979,13.967c2.314,4.328,4.756,8.942,8.512,12.217c3.627,3.16,8.101,5.105,11.996,7.886
				c1.949,1.394,3.938,3.01,5.289,5.021c1.486,2.213,2.197,4.686,3.148,7.149c0.064,0.169,0.339,0.172,0.34-0.04
				c0.049-9.275-9.053-13.739-15.77-17.996c-4.669-2.959-7.869-6.729-10.593-11.516c-2.386-4.199-4.435-8.641-7.257-12.576
				c-2.612-3.643-6.072-5.986-7.689-10.256c0.273-0.155,0.387,0.082,0.406,0.082H588c0,0,0-2.1,0-2.133
				c0,0.027,0.502,0.063,0.5,0.096c-0.493-0.119-0.438-0.15-0.539-0.15c-1.432-5.008,1.105-9.041,5.533-11.609
				c9.58-5.559,21.254-4.979,31.043-9.711c-3.311,3.67-5.434,8.237-2.417,12.984c1.931,3.039,4.716,5.262,6.929,8.057
				c2.311,2.918,3.983,6.17,5.748,9.428c2.5,4.611,5.116,9.382,11.022,9.548c5.239,0.149,11.214-1.014,16.062-2.981
				c4.668-1.894,8.921-5.07,10.769-9.926c1.387-3.648,2.731-7.246,4.732-10.617c1.688-2.842,3.861-5.433,5.397-8.353
				c1.987-3.774,2.52-7.781,0.115-10.945c4.307,0.645,8.689,0.813,12.914,1.973c4.623,1.268,8.18,4.406,12.542,6.238
				c4.595,1.931,11.327,3.36,13.668,8.341c2.655,5.65-3.589,8.232-7.038,11.15c-3.396,2.872-4.924,7.529-8.863,9.754
				c-3.357,1.898-7.734,3.231-10.174,6.404c-2.687,3.492-3.529,7.728-5.133,11.738c-1.553,3.89-4.199,7.781-3.645,12.126
				c0.019,0.146,0.258,0.146,0.285,0.009c1.1-5.166,3.883-9.78,5.533-14.773c0.809-2.445,1.571-5.061,3.029-7.211
				c1.629-2.402,3.984-3.887,6.539-5.159c2.048-1.021,4.451-1.931,6.137-3.532c1.539-1.465,2.604-3.199,3.828-4.917
				c2.615-3.669,6.668-5.323,9.555-8.638c0.403-0.459,0.721-0.951,0.977-1.453c-0.266,2.16,0.477,4.599,1.067,6.654
				c0.866,3.004,2.318,5.688,3.966,8.336c1.782,2.867,3.912,5.842,5.226,8.961c1.356,3.222,1.908,6.457,2.772,9.819
				c0.853,3.339,1.908,6.649,3.365,9.778c0.675,1.447,1.326,2.925,2.393,4.137c1.09,1.238,2.281,2.323,3.197,3.709
				c1.78,2.684,3.893,5.195,3.745,8.625c-0.071,1.638-0.47,3.469-1.382,4.86c-1.17,1.78-2.843,2.085-4.838,2.208
				c-1.861,0.113-3.443,0.728-5.344,0.225c-1.471-0.391-2.98-0.934-4.524-0.925c-3.13,0.018-5.868,1.108-8.832,1.975
				c-4.993,1.459-9.831,2.921-14.556,4.876c0-0.002-0.003-0.002-0.004-0.003c-0.002-0.003-0.002-0.003-0.004-0.007
				c-0.037-0.063-0.088-0.098-0.154-0.109c-0.027-0.008-0.048-0.006-0.072-0.008c-0.02,0.002-0.035-0.002-0.053,0.002
				c-0.065,0.006-0.114,0.042-0.154,0.101c-0.004,0.007-0.008,0.013-0.014,0.021c-0.011,0.021-0.036,0.028-0.041,0.056
				c-0.006,0.033-0.031,0.072-0.043,0.107c-0.082-0.067-0.309-0.154-0.738-0.16c-0.068,0-0.141,0.058-0.137,0.133
				c0.015,0.282,0.139,0.106-0.252,0.291c-0.072,0.036-0.024,0.15,0.051,0.132c0.083-0.007,0.164-0.016,0.246-0.024
				c0.029,0.025,0.061,0.024,0.09,0.021c-1.293,0.563-2.58,1.156-3.857,1.812c-6.424,3.303-12.756,7.02-19.555,9.504
				c-6.098,2.229-12.355,4.14-18.104,7.206c-3.303,1.764-8.085,4.886-12.007,3.419c-3.054-1.14-5.952-1.626-9.245-1.433
				c-3.835,0.225-7.911,0.791-11.646,1.689c-2.159,0.514-4.312,0.943-6.493,0.271c-1.807-0.558-3.628-1.08-5.437-1.63
				c-4.001-1.219-8.104-2.391-11.423-5.035c-2.583-2.057-5.248-3.877-8.278-5.231c-3.765-1.685-6.563-3.996-9.397-6.952
				c-2.088-2.177-4.223-4.478-6.775-6.121c-3.052-1.965-6.417-3.152-9.9-4.115c-1.637-0.451-3.311-0.813-4.875-1.484
				c-2.135-0.914-2.959-1.236-2.682-3.797C568.76,500.833,568.684,496.981,569.229,493.207z"/>
		</g>
		<g>
			<path fill="#60390B" d="M638.417,629.504c-3.991,0.627-5.052-7.331-5.036-10.188c0.012-2.34,0.391-4.287,2.131-5.974
				c1.17-1.135,2.281-2.27,3.334-3.513c2.112-2.504,2.441-5.336,3.18-8.426c0.454-1.904,1.43-4.082,3.613-4.477
				c1.285-0.234,2.477,0.187,3.642,0.658c-0.624,0.48-1.049,1.196-1.285,2.003c-1.786,0.192-2.884,0.989-3.574,2.834
				c-1.224,3.268-1.444,6.035-4.03,8.676c-1.59,1.623-3.723,3.599-4.061,5.982c-0.326,2.302-0.449,5.264,0.414,7.47
				c0.175,0.445,0.949,0.631,1.071,0.024c0.481-2.386,0.089-5.265,1.466-7.38c1.084-1.666,2.926-2.51,4.004-4.181
				c1-1.551,2.357-3.893,2.516-5.729c0.199-2.277,1.021-3.933,1.97-5.73c0.042,0.806,0.239,1.592,0.581,2.251
				c-1.209,0.769-1.935,2.227-2.211,3.637c-0.61,3.115-0.971,5.455-3.395,7.754c-1.468,1.391-3.535,2.979-4.139,5.016
				c-0.247,0.832-0.409,1.737-0.162,2.595C638.869,624.291,641.53,629.018,638.417,629.504z"/>
		</g>
		<g>
			<path fill="#60390B" d="M658.189,596.067c1.82,0.35,3.264,0.428,4.624,2.03c1.108,1.301,2.259,2.597,3.296,3.953
				c2.518,3.293,3.93,7.307,4.057,11.472c0.11,3.618,0.91,6.871,2.155,10.27c0.802,2.19,5.092,10.911,0.583,11.434
				c-4.488,0.522-7.178-2.875-8.793-6.521c-1.354-3.05-3.324-7.144-3.352-10.594c-0.021-3.154-0.838-6.482-1.865-9.452
				c-0.434-1.257-1.213-2.173-2.105-3.073c0.021-0.014,0.043-0.021,0.065-0.033c0.033,0.018,0.068,0.024,0.104,0.033
				c3.136,2.338,4.499,6.754,5.323,10.486c0.806,3.635,1.722,7.232,3.072,10.708c0.777,1.997,2.226,3.679,4.291,4.376
				c1.32,0.443,2.562-0.932,2.635-2.155c0.201-3.304-1.929-5.704-2.859-8.699c-1.016-3.269-1.377-6.712-2.477-9.963
				c-0.992-2.937-2.364-5.668-4.381-8.033c-0.982-1.146-2.055-2.787-3.567-3.266c-0.185-1.013-0.472-1.994-0.761-2.836
				c-0.012-0.037-0.045-0.057-0.066-0.089c0.007-0.005,0.012-0.011,0.018-0.018C658.191,596.087,658.187,596.075,658.189,596.067z"
				/>
		</g>
		<g>
			<path d="M589.01,444.964c-0.001-0.001-0.003-0.001-0.003-0.001c0-0.033,0.003-0.068,0.003-0.096
				C589.01,444.9,589.01,444.932,589.01,444.964z"/>
		</g>
		<g>
			<path d="M637.99,617.413c-0.482,1.151-0.67,2.33-0.805,3.523c-0.111-1.831,0.092-3.776,0.748-5.003
				c1.189-2.229,3.155-3.792,4.738-5.717c1.277-1.554,1.694-3.352,2.102-5.272c0.311-1.466,0.67-2.964,1.781-4.066
				c-0.077,0.078,0.893-0.646,1.32-0.929c-3.976,3.615-2.401,9.931-6.404,13.589C640.107,614.784,638.729,615.647,637.99,617.413z"
				/>
		</g>
		<g>
			<path fill="#60390B" d="M649.578,601.999c-0.178-1.545-0.27-3.067,1.559-3.529c0.837-0.212,1.688-0.339,2.523-0.54
				c1.104-0.266,2.586-0.415,3.647-1.045c-0.079,2.077,1.316,5.055-0.204,6.526C655.023,605.426,650,605.656,649.578,601.999z"/>
		</g>
		<g>
			<path fill="#53425B" d="M621.959,609.649c3.238-0.517,6.413-1.277,9.633-1.864c2.656-0.486,5.396-1.271,8.086-1.476
				c-0.205,0.499-0.449,0.981-0.764,1.435c-2.104,3.021-6.203,5.133-6.7,9.024c-0.461,3.613,0.253,8.271,1.853,11.554
				c1.159,2.379,3.573,3.237,5.91,1.817c3.295-2.003-0.785-6.188-0.416-8.64c0.531-3.52,4.742-5.472,6.486-8.398
				c0.822-1.382,0.835-3.127,1.134-4.657c0.307-1.57,0.925-2.64,1.886-3.689c1.614,1.697,4.37,2.021,6.611,1.298
				c1.1,1.11,1.953,2.177,2.334,3.827c0.559,2.425,1.59,4.805,1.607,7.325c0.028,3.782,1.564,7.683,3.078,11.102
				c1.25,2.823,2.7,6.383,5.98,7.343c2.77,0.81,5.113,1.171,6.848-1.468c0.686-1.047,0.633-2.575,0.219-3.707
				c-0.846-2.303-1.713-4.593-2.549-6.903c-0.943-2.607-1.998-5.388-2.088-8.196c-0.057-1.824-0.186-3.571-0.574-5.357
				c-0.402-1.853-0.947-3.508-1.713-5.049c6.012,0.057,11.992,0.711,17.994,0.916c5.662,0.19,11.376,1.057,17.049,1.02
				c0.079,1.55,0.766,2.754,1.26,4.313c0.744,2.351,1.475,4.588,2.399,6.88c0.661,1.64,0.946,3.195,1.425,4.858
				c0.374,1.302,1.031,2.707,1.026,4.079c-0.005,2.506-0.068,5.018,0.058,7.519c0.527,10.32-0.652,21.108,4.128,30.64
				c1.263,2.515,2.915,4.811,4.057,7.384c1.102,2.483,2.093,4.999,3.355,7.406c2.849,5.437,3.876,11.355,3.903,17.452
				c0.014,2.743-0.054,5.496-0.152,8.238c-0.094,2.621-0.902,4.987-1.248,7.554c-0.434,3.23-0.12,6.232,0.688,9.193
				c-1.803-2.803-3.377-6.024-4.045-8.952c-0.887-3.876-1.914-6.941-4.098-10.305c-2.063-3.175-4.459-6.266-5.932-9.778
				c-1.574-3.754-1.927-7.763-2.5-11.752c-0.564-3.921-1.369-7.93-3.516-11.333c-2.122-3.368-4.305-6.784-4.815-10.823
				c-0.532-4.237-1.749-8.325-2.178-12.581c-0.389-3.845-1.234-7.362-2.13-11.113c-0.051-0.213-0.356-0.128-0.326,0.085
				c0.382,2.744,1.186,5.381,1.323,8.162c0.097,1.939,0.156,3.896,0.468,5.818c0.324,2.005,0.806,3.974,1.212,5.963
				c0.366,1.797,0.438,3.638,0.839,5.425c0.883,3.957,3.258,6.927,5.066,10.454c2.08,4.066,2.635,8.428,3.248,12.89
				c0.514,3.75,1.167,7.465,2.967,10.844c1.391,2.614,3.108,5.015,4.718,7.488c-2.914,2.347-4.364,6.759-4.914,10.286
				c-0.483,3.096-0.967,6.127-0.974,9.272c-0.004,2.311,0.503,4.825,0.383,7.129c-3.363-0.542-5.797-6.464-6.922-8.938
				c-1.688-3.707-3.217-7.191-4.027-11.052c0.068-0.033,0.119-0.104,0.096-0.188c-0.179-0.604-0.32-1.201-0.437-1.799
				c-0.056-0.403-0.116-0.803-0.156-1.218c-0.008-0.106-0.037-0.195-0.077-0.28c-0.49-4.011,0.085-7.938-0.155-12.09
				c-0.292-5.057-0.866-10.201-1.681-15.203c-0.799-4.917-2.025-10.043-4.312-14.512c-1.223-2.389-2.298-4.733-3.202-7.258
				c-0.6-1.67-1.781-1.921-2.772-3.163c-0.007-0.006-0.02,0.002-0.013,0.009c0.653,0.904,1.814,1.425,2.289,2.457
				c0.479,1.044,0.637,2.065,1.063,3.102c0.927,2.251,1.797,4.504,2.659,6.779c1.941,5.131,3.118,10.266,3.727,15.717
				c0.615,5.527,1.631,11.233,1.135,16.803c-0.196,2.21-0.451,4.717-0.03,7.002c-2.965,0.198-6.593,2.973-7.851,5.382
				c-1.63,3.121-2.678,6.277-6.039,8.012c-2.242,1.16-7.113,3.37-9.563,1.484c-0.763-0.589-1.543-1.112-2.354-1.563
				c-1.082-1.459-3.16-2.478-3.938-4.148c-1.411-3.032-1.399-7.447-1.389-10.77c0.018-6.474,0.623-12.911,0.595-19.379
				c-0.025-5.769,0.12-11.887-0.839-17.603c-1.008-6.014-3.045-12.311-5.6-17.85c-0.012-0.019-0.037-0.001-0.031,0.018
				c2.738,6.86,4.854,14.2,5.045,21.616c0.156,6.027,0.623,12.068,0.361,18.097c-0.299,6.898-0.815,13.625-0.321,20.53
				c0.162,2.269,0.221,4.827,1.708,6.676c0.432,0.539,0.884,1.043,1.344,1.531c-0.633-0.176-1.289-0.306-1.976-0.387
				c-2.957-0.34-5.39,0.531-8.137,1.541c-1.792,0.66-5.976,2.652-7.886,1.87c-2.779-1.134-4.502-6.261-4.842-8.956
				c-0.015-0.13-0.082-0.223-0.168-0.291c0.389-0.784,0.762-1.564,1.087-2.329c2.751-6.438,1.88-14.037,2.046-20.877
				c0.195-7.889-1.92-15.305-3.577-22.938c-0.927-4.271-1.678-8.575-2.203-12.919c-0.386-3.188-1.446-6.187-1.859-9.34
				c-0.013-0.107-0.188-0.085-0.187,0.02c-0.018,0.259-0.01,0.516,0.019,0.771c0.933,7.557,1.757,15.233,3.415,22.704
				c0.925,4.167,1.984,8.28,2.623,12.507c0.602,3.977,0.597,7.78,0.49,11.779c-0.104,3.962,0.094,7.968-0.403,11.907
				c-0.483,3.827-2.055,6.697-3.757,10.079c-0.771,1.533-1.568,3.25-2.941,4.343c-1.788,1.428-3.533,0.865-5.479,1.45
				c-2.588,0.778-3.667,3.02-5.619,4.67c-2.588,2.193-4.426,4.81-6.382,7.555c-0.943,1.325-5.983,8.841-8.262,6.205
				c-1.474-1.711-1.371-4.488-2.051-6.563c-0.054-0.157-0.106-0.318-0.161-0.475c-0.125-1.066-0.483-2.033-0.889-3.168
				c-0.672-1.873-0.618-3.75-0.91-5.69c-0.676-4.488-1.152-9.821,0.095-14.277c1.204-4.293,1.807-8.728,2.858-13.06
				c0.917-3.775,1.913-7.485,2.426-11.347c0.572-4.325,1.227-8.77,1.371-13.132c0.068-2.089-0.083-4.221,0.168-6.297
				c0.237-1.948,0.519-3.851,0.394-5.814c-0.257-4.068-0.123-8.57-1.434-12.487c-0.505-1.51-1.431-2.851-1.933-4.349
				c-0.256-0.763-0.439-1.372-1.025-1.929c-0.064-0.062-0.186-0.011-0.184,0.086c0.004,0.181,0.037,0.22-0.154,0.238
				c-0.029,0.004-0.065,0.746-0.063,0.779c0.018,0.178,0.034,1.318,0.053,1.318h0.015c0.022,0-0.01-1.256,0.253-1.229
				c0.052,0.006,0.085-0.498,0.091-0.545c-0.063,0.483,1.218,3.169,1.524,4.019c0.678,1.877,1.051,3.753,1.274,5.735
				c0.491,4.393,0.798,8.862,0.241,13.25c-0.489,3.864-0.436,7.809-0.79,11.695c-0.404,4.424-0.765,8.881-1.702,13.231
				c-0.866,4.023-2.007,7.968-2.805,12.007c-0.727,3.676-2.186,7.58-2.205,11.33c-0.012,2.063-0.416,4.183-0.222,6.232
				c0.153,1.616,0.456,3.205,0.66,4.819c0.153,1.2,0.187,2.329,0.349,3.454c-0.034-0.044-0.067-0.091-0.104-0.132
				c-3.423-3.863-7.341-0.33-9.975,2.698c-1.996,2.299-3.338,4.822-4.595,7.595c-0.953,2.109-2.441,4.302-3.026,6.597
				c-0.719-0.688-1.292-1.449-1.886-2.304c-0.305-0.441-0.895-0.388-1.099,0.116c-0.948,2.33-0.771,5.869-2.158,8.178
				c-0.681-6.179-0.695-11.87,0.53-18.063c0.597-3.023,1.022-6.096,1.752-9.094c0.668-2.746,1.807-5.207,2.701-7.864
				c1.777-5.272,2.501-10.597,3.25-16.096c0.418-3.087,0.432-6.132,0.62-9.232c0.169-2.789,0.763-5.536,1.119-8.308
				c0.837-6.502,3.413-12.691,3.828-19.266c0.374-5.933-1.38-11.607-1.758-17.511c-0.2-3.134-0.409-6.105,0.194-9.223
				c0.517-2.666,1.148-5.316,1.682-7.98c0.93-4.647,2.52-8.863,2.706-13.604C609.213,612.082,615.775,610.635,621.959,609.649z"/>
		</g>
		<g>
			<path fill="#60390B" d="M617.059,598.553c4.143-0.075,8.197-0.4,12.335-0.005c4.045,0.386,8.243,0.539,12.325,0.541
				c-0.914,1.858-1.07,4.081-1.66,6.115c-0.063-0.026-0.132-0.05-0.217-0.055c-2.539-0.177-5.213,0.747-7.698,1.196
				c-3.208,0.58-6.367,1.355-9.591,1.863c-6.537,1.029-13.497,2.649-20.134,1.934c0.351-3.5-2.298-7.619,2.298-9.002
				C608.708,599.942,612.854,598.636,617.059,598.553z"/>
		</g>
		<g>
			<path d="M708.188,516.455c-0.043,0.018-0.083,0.035-0.124,0.054c0.022-0.019,0.048-0.036,0.053-0.071
				C708.139,516.443,708.162,516.449,708.188,516.455z"/>
		</g>
		<g>
			<path fill="#53425B" d="M608.334,532.479c2.621,2.115,5.153,3.557,8.342,4.665c3.494,1.214,7.389,2.835,11.049,3.392
				c3.43,0.521,6.737-0.768,10.111-1.215c2.432-0.321,4.938-0.916,7.389-0.953c1.824-0.028,4.244-0.21,5.997,0.321
				c2.801,0.853,5.054,1.846,8.038,1.026c3.333-0.914,6.276-2.674,9.328-4.236c3.609-1.844,7.442-3.063,11.229-4.472
				c3.621-1.349,7.183-2.87,10.804-4.206c3.117-1.148,6.123-3.101,9.082-4.616c2.219-1.136,4.426-2.311,6.664-3.417
				c-0.005,0.01-0.015,0.021-0.02,0.029c-0.754,1.273-1.342,2.624-1.697,4.066c-0.824,3.34-0.854,6.697-1.244,10.092
				c-0.473,4.076-0.387,8.111-0.74,12.189c-0.322,3.723-0.92,7.908,0.109,11.554c1.25,4.426,2.041,8.302,0.742,12.832
				c-1.039,3.627-2.729,7.336-5.502,9.978c-3,2.86-6.98,3.77-10.331,6.072c-2.647,1.82-4.305,4.448-5.569,7.331
				c-0.14,0.321,0.346,0.483,0.529,0.237c2.836-3.814,5.503-6.797,9.897-8.797c3.048-1.388,5.764-3.03,7.813-5.745
				c0.499-0.663,0.973-1.359,1.417-2.079c-0.394,1.08-0.809,2.159-0.944,3.334c-0.226,1.94-0.134,3.843,0.144,5.772
				c0.34,2.356,0.819,4.689,1.397,7.001c0.326,1.302,0.489,2.799,1.088,4.029c-8.188,0.73-16.075-0.358-24.195-1.307
				c-4.128-0.478-8.371-0.76-12.525-0.541c-1.757,0.092-5.075-0.118-6.485,1.041c-0.05,0.044-0.056,0.119-0.035,0.177
				c-0.628-0.091-1.206,0.001-2.007-0.083c-0.009-0.067-0.035-0.134-0.096-0.163c-1.266-0.622-2.649,0.069-3.918,0.387
				c-1.449,0.363-3.171,0.434-4.503,1.144c-0.06,0.031-0.112,0.072-0.169,0.108c-1.926-1.112-4.137-2.054-6.108-0.486
				c-0.45,0.358-0.813,0.756-1.122,1.181c-9.928-0.348-20.043-2.389-29.939-0.445c-2.408,0.471-4.792,1.08-7.133,1.823
				c-0.653,0.209-1.469,0.389-2.199,0.696c0.767-2.738,2.025-5.774,1.589-8.478c0.694,1.056,1.31,2.156,1.727,3.44
				c0.064,0.203,0.4,0.256,0.452,0.013c0.413-1.937-0.393-3.194-1.554-4.688c-2.272-2.924-4.143-6.189-5.261-9.735
				c-2.088-6.621-1.672-13.337-1.1-20.171c0.576-6.834,1.93-13.648,1.203-20.523c-0.576-5.447-3.246-10.889-5.5-15.941
				c1.145,0.995,2.355,1.914,3.697,2.674C601.668,528.705,605.254,529.997,608.334,532.479z"/>
		</g>
		<g>
			<path fill="#60390B" d="M691.059,604.479c-7.49-0.325-15.014-0.986-22.511-1.029c-0.199,0-0.349,0.071-0.47,0.172
				c-0.722-1.175-1.604-2.284-2.693-3.368c-1.258-1.249-2.438-2.968-4.025-3.829c-0.048-0.025-0.09-0.042-0.137-0.065
				c0.061,0.012,0.115,0.023,0.185,0.031c1.897,0.287,4.306-0.342,6.255-0.345c4.186-0.005,8.354,0.251,12.504,0.784
				c7.66,0.985,15.717,2.429,23.436,1.16c1.199,0.105,2.362,0.455,2.572,1.809c0.175,1.109,0.035,2.043-0.154,3.146
				c-0.13,0.765-0.146,1.735-0.418,2.441c-0.186,0.482-2.096,0.127-2.431,0.11C699.132,605.271,695.094,604.657,691.059,604.479z"/>
		</g>
		<g>
			<path fill="none" d="M649.578,601.999c-0.178-1.545-0.27-3.067,1.559-3.529c0.837-0.212,1.688-0.339,2.523-0.54
				c1.104-0.266,2.586-0.415,3.647-1.045c-0.079,2.077,1.316,5.055-0.204,6.526C655.023,605.426,650,605.656,649.578,601.999z"/>
		</g>
		<g>
			<path fill="none" d="M691.059,604.479c-7.49-0.325-15.014-0.986-22.511-1.029c-0.199,0-0.349,0.071-0.47,0.172
				c-0.722-1.175-1.604-2.284-2.693-3.368c-1.258-1.249-2.438-2.968-4.025-3.829c-0.048-0.025-0.09-0.042-0.137-0.065
				c0.061,0.012,0.115,0.023,0.185,0.031c1.897,0.287,4.306-0.342,6.255-0.345c4.186-0.005,8.354,0.251,12.504,0.784
				c7.66,0.985,15.717,2.429,23.436,1.16c1.199,0.105,2.362,0.455,2.572,1.809c0.175,1.109,0.035,2.043-0.154,3.146
				c-0.13,0.765-0.146,1.735-0.418,2.441c-0.186,0.482-2.096,0.127-2.431,0.11C699.132,605.271,695.094,604.657,691.059,604.479z"/>
		</g>
		<g>
			<path fill="none" d="M708.188,516.455c-0.043,0.018-0.083,0.035-0.124,0.054c0.022-0.019,0.048-0.036,0.053-0.071
				C708.139,516.443,708.162,516.449,708.188,516.455z"/>
		</g>
		<g>
			<path fill="none" d="M658.189,596.067c1.82,0.35,3.264,0.428,4.624,2.03c1.108,1.301,2.259,2.597,3.296,3.953
				c2.518,3.293,3.93,7.307,4.057,11.472c0.11,3.618,0.91,6.871,2.155,10.27c0.802,2.19,5.092,10.911,0.583,11.434
				c-4.488,0.522-7.178-2.875-8.793-6.521c-1.354-3.05-3.324-7.144-3.352-10.594c-0.021-3.154-0.838-6.482-1.865-9.452
				c-0.434-1.257-1.213-2.173-2.105-3.073c0.021-0.014,0.043-0.021,0.065-0.033c0.033,0.018,0.068,0.024,0.104,0.033
				c3.136,2.338,4.499,6.754,5.323,10.486c0.806,3.635,1.722,7.232,3.072,10.708c0.777,1.997,2.226,3.679,4.291,4.376
				c1.32,0.443,2.562-0.932,2.635-2.155c0.201-3.304-1.929-5.704-2.859-8.699c-1.016-3.269-1.377-6.712-2.477-9.963
				c-0.992-2.937-2.364-5.668-4.381-8.033c-0.982-1.146-2.055-2.787-3.567-3.266c-0.185-1.013-0.472-1.994-0.761-2.836
				c-0.012-0.037-0.045-0.057-0.066-0.089c0.007-0.005,0.012-0.011,0.018-0.018C658.191,596.087,658.187,596.075,658.189,596.067z"
				/>
		</g>
		<g>
			<path fill="none" d="M659.041,599.284c2.308,1.026,4.185,4.814,5.05,6.677c1.22,2.634,2.198,5.229,2.851,8.063
				c0.564,2.44,0.943,4.937,1.82,7.289c0.834,2.241,2.727,4.51,2.572,7.025c-0.214,3.477-3.123,0.966-3.698,0.302
				c-0.417-0.449-0.755-0.953-1.011-1.51c-0.558-1.252-0.948-2.488-1.357-3.785c-0.879-2.799-1.455-5.619-2.215-8.442
				c-0.997-3.72-2.265-7.57-5.306-9.965C659.251,603.568,659.386,601.378,659.041,599.284z"/>
		</g>
		<g>
			<path fill="none" d="M608.334,532.479c2.621,2.115,5.153,3.557,8.342,4.665c3.494,1.214,7.389,2.835,11.049,3.392
				c3.43,0.521,6.737-0.768,10.111-1.215c2.432-0.321,4.938-0.916,7.389-0.953c1.824-0.028,4.244-0.21,5.997,0.321
				c2.801,0.853,5.054,1.846,8.038,1.026c3.333-0.914,6.276-2.674,9.328-4.236c3.609-1.844,7.442-3.063,11.229-4.472
				c3.621-1.349,7.183-2.87,10.804-4.206c3.117-1.148,6.123-3.101,9.082-4.616c2.219-1.136,4.426-2.311,6.664-3.417
				c-0.005,0.01-0.015,0.021-0.02,0.029c-0.754,1.273-1.342,2.624-1.697,4.066c-0.824,3.34-0.854,6.697-1.244,10.092
				c-0.473,4.076-0.387,8.111-0.74,12.189c-0.322,3.723-0.92,7.908,0.109,11.554c1.25,4.426,2.041,8.302,0.742,12.832
				c-1.039,3.627-2.729,7.336-5.502,9.978c-3,2.86-6.98,3.77-10.331,6.072c-2.647,1.82-4.305,4.448-5.569,7.331
				c-0.14,0.321,0.346,0.483,0.529,0.237c2.836-3.814,5.503-6.797,9.897-8.797c3.048-1.388,5.764-3.03,7.813-5.745
				c0.499-0.663,0.973-1.359,1.417-2.079c-0.394,1.08-0.809,2.159-0.944,3.334c-0.226,1.94-0.134,3.843,0.144,5.772
				c0.34,2.356,0.819,4.689,1.397,7.001c0.326,1.302,0.489,2.799,1.088,4.029c-8.188,0.73-16.075-0.358-24.195-1.307
				c-4.128-0.478-8.371-0.76-12.525-0.541c-1.757,0.092-5.075-0.118-6.485,1.041c-0.05,0.044-0.056,0.119-0.035,0.177
				c-0.628-0.091-1.206,0.001-2.007-0.083c-0.009-0.067-0.035-0.134-0.096-0.163c-1.266-0.622-2.649,0.069-3.918,0.387
				c-1.449,0.363-3.171,0.434-4.503,1.144c-0.06,0.031-0.112,0.072-0.169,0.108c-1.926-1.112-4.137-2.054-6.108-0.486
				c-0.45,0.358-0.813,0.756-1.122,1.181c-9.928-0.348-20.043-2.389-29.939-0.445c-2.408,0.471-4.792,1.08-7.133,1.823
				c-0.653,0.209-1.469,0.389-2.199,0.696c0.767-2.738,2.025-5.774,1.589-8.478c0.694,1.056,1.31,2.156,1.727,3.44
				c0.064,0.203,0.4,0.256,0.452,0.013c0.413-1.937-0.393-3.194-1.554-4.688c-2.272-2.924-4.143-6.189-5.261-9.735
				c-2.088-6.621-1.672-13.337-1.1-20.171c0.576-6.834,1.93-13.648,1.203-20.523c-0.576-5.447-3.246-10.889-5.5-15.941
				c1.145,0.995,2.355,1.914,3.697,2.674C601.668,528.705,605.254,529.997,608.334,532.479z"/>
		</g>
		<g>
			<path fill="none" d="M617.059,598.553c4.143-0.075,8.197-0.4,12.335-0.005c4.045,0.386,8.243,0.539,12.325,0.541
				c-0.914,1.858-1.07,4.081-1.66,6.115c-0.063-0.026-0.132-0.05-0.217-0.055c-2.539-0.177-5.213,0.747-7.698,1.196
				c-3.208,0.58-6.367,1.355-9.591,1.863c-6.537,1.029-13.497,2.649-20.134,1.934c0.351-3.5-2.298-7.619,2.298-9.002
				C608.708,599.942,612.854,598.636,617.059,598.553z"/>
		</g>
		<g>
			<path fill="none" d="M638.417,629.504c-3.991,0.627-5.052-7.331-5.036-10.188c0.012-2.34,0.391-4.287,2.131-5.974
				c1.17-1.135,2.281-2.27,3.334-3.513c2.112-2.504,2.441-5.336,3.18-8.426c0.454-1.904,1.43-4.082,3.613-4.477
				c1.285-0.234,2.477,0.187,3.642,0.658c-0.624,0.48-1.049,1.196-1.285,2.003c-1.786,0.192-2.884,0.989-3.574,2.834
				c-1.224,3.268-1.444,6.035-4.03,8.676c-1.59,1.623-3.723,3.599-4.061,5.982c-0.326,2.302-0.449,5.264,0.414,7.47
				c0.175,0.445,0.949,0.631,1.071,0.024c0.481-2.386,0.089-5.265,1.466-7.38c1.084-1.666,2.926-2.51,4.004-4.181
				c1-1.551,2.357-3.893,2.516-5.729c0.199-2.277,1.021-3.933,1.97-5.73c0.042,0.806,0.239,1.592,0.581,2.251
				c-1.209,0.769-1.935,2.227-2.211,3.637c-0.61,3.115-0.971,5.455-3.395,7.754c-1.468,1.391-3.535,2.979-4.139,5.016
				c-0.247,0.832-0.409,1.737-0.162,2.595C638.869,624.291,641.53,629.018,638.417,629.504z"/>
		</g>
		<g>
			<path fill="#60390B" d="M659.511,604.208c-0.448-0.063-0.831,0.236-1.276,0.196c1.04-1.368,1.107-3.28,0.807-5.12
				c1.848,0.821,3.418,3.413,4.414,5.37c-0.508-0.074-1.07-0.256-1.574-0.379C661.09,604.141,660.301,604.275,659.511,604.208z"/>
			<path d="M663.379,605.174c-0.387-0.057-0.785-0.165-1.172-0.269l-0.413-0.111c-0.333-0.058-0.779-0.06-1.255-0.05
				c-0.357,0.011-0.645,0.023-1.156-0.02c-0.105,0-0.232,0.039-0.38,0.083c-0.197,0.061-0.423,0.125-0.684,0.125l-1.077-0.092
				l0.574-0.757c0.808-1.063,1.045-2.646,0.703-4.713l-0.158-0.963l0.893,0.395c1.555,0.69,3.127,2.578,4.671,5.613l0.462,0.904
				L663.379,605.174z M659.254,603.676c0.105-0.008,0.238-0.004,0.3,0.006c0.319,0.025,0.64,0.019,0.96,0.011
				c0.545-0.014,1.029-0.011,1.493,0.07c0.143,0.034,0.288,0.074,0.437,0.113c-1.068-1.896-2.004-2.967-2.75-3.565
				C659.791,601.619,659.646,602.743,659.254,603.676z"/>
		</g>
		<g>
			<path fill="#302833" d="M658.234,604.404c0.445,0.04,0.828-0.26,1.276-0.196c0.79,0.067,1.579-0.067,2.37,0.067
				c0.504,0.123,1.066,0.305,1.574,0.379c0.248,0.485,0.463,0.935,0.636,1.307c1.22,2.634,2.198,5.229,2.851,8.063
				c0.564,2.44,0.943,4.937,1.82,7.289c0.834,2.241,2.727,4.51,2.572,7.025c-0.214,3.477-3.123,0.966-3.698,0.302
				c-0.417-0.449-0.755-0.953-1.011-1.51c-0.558-1.252-0.948-2.488-1.357-3.785c-0.879-2.799-1.455-5.619-2.215-8.442
				c-0.997-3.72-2.265-7.57-5.306-9.965C657.93,604.773,658.092,604.593,658.234,604.404z"/>
		</g>
		<g>
			<path fill="#60390B" d="M644.604,605.719c0.059-0.259,0.113-0.515,0.17-0.774c0.311-1.466,0.67-2.964,1.781-4.066
				c-0.077,0.078,0.893-0.646,1.32-0.929c-1.706,1.554-2.389,3.603-2.93,5.726c-0.045,0.008-0.084,0.007-0.137,0.025
				C644.742,605.719,644.674,605.721,644.604,605.719z"/>
		</g>
		<g>
			<path fill="#302833" d="M637.934,615.934c1.189-2.229,3.155-3.792,4.738-5.717c1.104-1.342,1.564-2.869,1.932-4.498
				c0.07,0.002,0.139,0,0.205-0.019c0.053-0.019,0.092-0.018,0.137-0.025c-0.719,2.824-1.189,5.777-3.475,7.863
				c-1.363,1.246-2.741,2.109-3.48,3.875c-0.482,1.151-0.67,2.33-0.805,3.523C637.074,619.105,637.277,617.16,637.934,615.934z"/>
		</g>
		<path opacity="0.3" d="M642.881,461.634c-5.475-2.281-7.371-9.589-10.318-14.25c-1.658-2.626-3.625-4.806-5.752-7.054
			c-2.001-2.117-4.506-4.694-4.884-7.735c-0.693-5.591,5.065-11.269,10.567-13.171c0.369,0.279,0.713,0.608,1.013,1.013
			c1.458,1.958-0.017,2.909-1.743,3.7c-2.004,0.917-2.822,2.158-3.184,4.324c-0.325,1.955-0.592,4.208,0.26,6.065
			c0.853,1.856,2.585,3.044,3.937,4.502c1.313,1.419,2.188,3.165,3.042,4.884c0.996,2.008,1.771,4.035,2.273,6.221
			c0.479,2.082,0.95,4.149,2.042,6.015c2.097,3.579,6.091,5.075,9.993,5.78c0.027,0.004,0.055,0.007,0.08,0.012
			C647.783,462.25,645.198,462.6,642.881,461.634z"/>
		<path fill="none" d="M603.546,469.75c2.724,4.787,5.924,8.557,10.593,11.516c6.717,4.257,15.818,8.721,15.77,17.996
			c-0.001,0.212-0.275,0.209-0.34,0.04c-0.951-2.464-1.662-4.937-3.148-7.149c-1.352-2.011-3.34-3.627-5.289-5.021
			c-3.896-2.78-8.369-4.726-11.996-7.886c-3.756-3.274-6.197-7.889-8.512-12.217c-2.668-4.988-5.549-9.471-8.979-13.967
			c-0.208-0.271-0.411-0.545-0.613-0.823c0.218-0.293,0.438-0.585,0.664-0.874c1.492,1.967,3.169,3.822,4.595,5.809
			C599.111,461.109,601.16,465.551,603.546,469.75z"/>
		<path opacity="0.3" d="M627.119,538.995c-1.807-0.558-3.628-1.08-5.437-1.63c-4.001-1.219-8.104-2.391-11.423-5.035
			c-2.583-2.057-5.248-3.877-8.278-5.231c-3.765-1.685-6.563-3.996-9.397-6.952c-2.088-2.177-4.223-4.478-6.775-6.121
			c-3.052-1.965-6.417-3.152-9.9-4.115c-1.637-0.451-3.311-0.813-4.875-1.484c-2.135-0.914-2.959-1.236-2.682-3.797
			c0.408-3.796,0.332-7.647,0.877-11.422c0.551-3.825,1.496-7.589,2.529-11.309c2.104-7.599,5.145-14.996,7.813-22.412
			c1.377-3.82,2.757-8.569,5.864-11.414c0.595-0.545,1.612-1.047,2.235-1.689c0.822,2.09,2.031,4.038,3.36,5.856
			c-2.366,3.181-4.358,6.624-6.043,10.58c-3.466,8.136-7.532,17.376-6.146,26.417c1.275,8.309,7.25,14.835,12.949,20.584
			c5.57,5.619,11.708,10.621,17.621,15.865c6.173,5.473,12.2,9.977,19.867,13.176c0.361,0.152,0.727,0.295,1.09,0.444
			C629.289,539.392,628.208,539.331,627.119,538.995z"/>
		<path fill="none" d="M692.545,421.939c-0.455-0.078-0.91-0.148-1.366-0.217C691.635,421.791,692.09,421.861,692.545,421.939z"/>
		<path fill="none" d="M633.848,452.188c0.318,0.59,0.638,1.18,0.959,1.773c0.507,0.936,1.021,1.877,1.564,2.788
			c-0.544-0.911-1.058-1.853-1.566-2.788C634.484,453.367,634.166,452.777,633.848,452.188z"/>
		<path fill="none" d="M661.884,460.527c-4.85,1.968-10.821,3.131-16.062,2.981l0,0
			C651.064,463.658,657.034,462.492,661.884,460.527c4.667-1.894,8.917-5.07,10.767-9.926
			C670.802,455.457,666.551,458.634,661.884,460.527z"/>
		<path fill="none" d="M693.977,422.221c-0.385-0.083-0.77-0.159-1.158-0.229C693.207,422.062,693.592,422.138,693.977,422.221z"/>
		<path fill="none" d="M695.809,422.659c-0.469-0.13-0.939-0.241-1.412-0.347C694.869,422.417,695.34,422.529,695.809,422.659z"/>
		<path fill="none" d="M690.678,421.65c-0.346-0.047-0.691-0.094-1.037-0.138C689.986,421.557,690.332,421.604,690.678,421.65z"/>
		<path fill="none" d="M682.779,431.632c-1.536,2.92-3.709,5.511-5.396,8.353C679.068,437.143,681.243,434.552,682.779,431.632z"/>
		<path fill="none" d="M684.814,420.945c-0.643-0.08-1.281-0.164-1.92-0.259C683.533,420.781,684.174,420.865,684.814,420.945z"/>
		<path fill="none" d="M626.141,427.414c1.599-1.916,1.725-3.577,1.002-4.962c2.623-2.128,5.809-3.554,8.545-3.687
			c0.236-0.012,0.395-0.136,0.492-0.295l30.793-1.05l-0.004-0.084c0.468,0.147,0.503,0.192,0.894-0.094
			c1.128-0.831,2.806-0.961,4.161-0.833c2.972,0.279,5.998,1.359,8.34,3.255c0.001,0.001,0.002,0.003,0.005,0.005
			c-0.157,0.195-0.136,0.549,0.161,0.609c0.215,0.043,0.432,0.078,0.645,0.115c5.217,5.127,0.244,11.158-3.01,16.146
			c-1.679,2.572-3.172,5.222-4.444,8.021c-1.099,2.413-1.698,5.152-3.069,7.426c-2.749,4.563-7.436,7.129-12.476,8.459
			c-2.485,0.657-5.015,1.125-7.565,1.443c-2.535,0.316-5.283,0.765-7.729-0.255c-5.475-2.281-7.371-9.589-10.318-14.25
			c-1.658-2.626-3.625-4.806-5.752-7.054c-2.001-2.117-4.506-4.694-4.884-7.735c-0.05-0.409-0.065-0.819-0.05-1.229l2.552-2.151
			C625.013,428.633,625.611,428.049,626.141,427.414z"/>
		<path fill="none" d="M686.96,421.195c0.159,0.018,0.319,0.037,0.479,0.057c-0.688-0.078-1.375-0.159-2.061-0.24
			C685.906,421.075,686.433,421.136,686.96,421.195z"/>
		<path fill="none" d="M708.188,516.455c-0.043,0.018-0.083,0.035-0.124,0.054c0.022-0.019,0.048-0.036,0.053-0.071
			C708.139,516.443,708.162,516.449,708.188,516.455z"/>
		<path fill="none" d="M689.244,421.462c-0.48-0.058-0.959-0.114-1.441-0.169C688.285,421.348,688.764,421.404,689.244,421.462z"/>
		<path fill="none" d="M617.059,598.553c4.143-0.075,8.197-0.4,12.335-0.005c4.045,0.386,8.243,0.539,12.325,0.541
			c-0.914,1.858-1.07,4.081-1.66,6.115c-0.063-0.026-0.132-0.05-0.217-0.055c-2.539-0.177-5.213,0.747-7.698,1.196
			c-3.208,0.58-6.367,1.355-9.591,1.863c-6.537,1.029-13.497,2.649-20.134,1.934c0.351-3.5-2.298-7.619,2.298-9.002
			C608.708,599.942,612.854,598.636,617.059,598.553z"/>
		<path fill="none" d="M637.99,617.413c-0.482,1.151-0.67,2.33-0.805,3.523c-0.111-1.831,0.092-3.776,0.748-5.003
			c1.189-2.229,3.155-3.792,4.738-5.717c1.277-1.554,1.694-3.352,2.102-5.272c0.311-1.466,0.67-2.964,1.781-4.066
			c-0.077,0.078,0.893-0.646,1.32-0.929c-3.976,3.615-2.401,9.931-6.404,13.589C640.107,614.784,638.729,615.647,637.99,617.413z"/>
		<path fill="none" d="M638.417,629.504c-3.991,0.627-5.052-7.331-5.036-10.188c0.012-2.34,0.391-4.287,2.131-5.974
			c1.17-1.135,2.281-2.27,3.334-3.513c2.112-2.504,2.441-5.336,3.18-8.426c0.454-1.904,1.43-4.082,3.613-4.477
			c1.285-0.234,2.477,0.187,3.642,0.658c-0.624,0.48-1.049,1.196-1.285,2.003c-1.786,0.192-2.884,0.989-3.574,2.834
			c-1.224,3.268-1.444,6.035-4.03,8.676c-1.59,1.623-3.723,3.599-4.061,5.982c-0.326,2.302-0.449,5.264,0.414,7.47
			c0.175,0.445,0.949,0.631,1.071,0.024c0.481-2.386,0.089-5.265,1.466-7.38c1.084-1.666,2.926-2.51,4.004-4.181
			c1-1.551,2.357-3.893,2.516-5.729c0.199-2.277,1.021-3.933,1.97-5.73c0.042,0.806,0.239,1.592,0.581,2.251
			c-1.209,0.769-1.935,2.227-2.211,3.637c-0.61,3.115-0.971,5.455-3.395,7.754c-1.468,1.391-3.535,2.979-4.139,5.016
			c-0.247,0.832-0.409,1.737-0.162,2.595C638.869,624.291,641.53,629.018,638.417,629.504z"/>
		<path fill="none" d="M608.334,532.479c2.621,2.115,5.153,3.557,8.342,4.665c3.494,1.214,7.389,2.835,11.049,3.392
			c3.43,0.521,6.737-0.768,10.111-1.215c2.432-0.321,4.938-0.916,7.389-0.953c1.824-0.028,4.244-0.21,5.997,0.321
			c2.801,0.853,5.054,1.846,8.038,1.026c3.333-0.914,6.276-2.674,9.328-4.236c3.609-1.844,7.442-3.063,11.229-4.472
			c3.621-1.349,7.183-2.87,10.804-4.206c3.117-1.148,6.123-3.101,9.082-4.616c2.219-1.136,4.426-2.311,6.664-3.417
			c-0.005,0.01-0.015,0.021-0.02,0.029c-0.754,1.273-1.342,2.624-1.697,4.066c-0.824,3.34-0.854,6.697-1.244,10.092
			c-0.473,4.076-0.387,8.111-0.74,12.189c-0.322,3.723-0.92,7.908,0.109,11.554c1.25,4.426,2.041,8.302,0.742,12.832
			c-1.039,3.627-2.729,7.336-5.502,9.978c-3,2.86-6.98,3.77-10.331,6.072c-2.647,1.82-4.305,4.448-5.569,7.331
			c-0.14,0.321,0.346,0.483,0.529,0.237c2.836-3.814,5.503-6.797,9.897-8.797c3.048-1.388,5.764-3.03,7.813-5.745
			c0.499-0.663,0.973-1.359,1.417-2.079c-0.394,1.08-0.809,2.159-0.944,3.334c-0.226,1.94-0.134,3.843,0.144,5.772
			c0.34,2.356,0.819,4.689,1.397,7.001c0.326,1.302,0.489,2.799,1.088,4.029c-8.188,0.73-16.075-0.358-24.195-1.307
			c-4.128-0.478-8.371-0.76-12.525-0.541c-1.757,0.092-5.075-0.118-6.485,1.041c-0.05,0.044-0.056,0.119-0.035,0.177
			c-0.628-0.091-1.206,0.001-2.007-0.083c-0.009-0.067-0.035-0.134-0.096-0.163c-1.266-0.622-2.649,0.069-3.918,0.387
			c-1.449,0.363-3.171,0.434-4.503,1.144c-0.06,0.031-0.112,0.072-0.169,0.108c-1.926-1.112-4.137-2.054-6.108-0.486
			c-0.45,0.358-0.813,0.756-1.122,1.181c-9.928-0.348-20.043-2.389-29.939-0.445c-2.408,0.471-4.792,1.08-7.133,1.823
			c-0.653,0.209-1.469,0.389-2.199,0.696c0.767-2.738,2.025-5.774,1.589-8.478c0.694,1.056,1.31,2.156,1.727,3.44
			c0.064,0.203,0.4,0.256,0.452,0.013c0.413-1.937-0.393-3.194-1.554-4.688c-2.272-2.924-4.143-6.189-5.261-9.735
			c-2.088-6.621-1.672-13.337-1.1-20.171c0.576-6.834,1.93-13.648,1.203-20.523c-0.576-5.447-3.246-10.889-5.5-15.941
			c1.145,0.995,2.355,1.914,3.697,2.674C601.668,528.705,605.254,529.997,608.334,532.479z"/>
		<path fill="none" d="M691.059,604.479c-7.49-0.325-15.014-0.986-22.511-1.029c-0.199,0-0.349,0.071-0.47,0.172
			c-0.722-1.175-1.604-2.284-2.693-3.368c-1.258-1.249-2.438-2.968-4.025-3.829c-0.048-0.025-0.09-0.042-0.137-0.065
			c0.061,0.012,0.115,0.023,0.185,0.031c1.897,0.287,4.306-0.342,6.255-0.345c4.186-0.005,8.354,0.251,12.504,0.784
			c7.66,0.985,15.717,2.429,23.436,1.16c1.199,0.105,2.362,0.455,2.572,1.809c0.175,1.109,0.035,2.043-0.154,3.146
			c-0.13,0.765-0.146,1.735-0.418,2.441c-0.186,0.482-2.096,0.127-2.431,0.11C699.132,605.271,695.094,604.657,691.059,604.479z"/>
		<path fill="none" d="M649.578,601.999c-0.178-1.545-0.27-3.067,1.559-3.529c0.837-0.212,1.688-0.339,2.523-0.54
			c1.104-0.266,2.586-0.415,3.647-1.045c-0.079,2.077,1.316,5.055-0.204,6.526C655.023,605.426,650,605.656,649.578,601.999z"/>
		<path fill="none" d="M659.041,599.284c2.308,1.026,4.185,4.814,5.05,6.677c1.22,2.634,2.198,5.229,2.851,8.063
			c0.564,2.44,0.943,4.937,1.82,7.289c0.834,2.241,2.727,4.51,2.572,7.025c-0.214,3.477-3.123,0.966-3.698,0.302
			c-0.417-0.449-0.755-0.953-1.011-1.51c-0.558-1.252-0.948-2.488-1.357-3.785c-0.879-2.799-1.455-5.619-2.215-8.442
			c-0.997-3.72-2.265-7.57-5.306-9.965C659.251,603.568,659.386,601.378,659.041,599.284z"/>
		<path fill="none" d="M658.189,596.067c1.82,0.35,3.264,0.428,4.624,2.03c1.108,1.301,2.259,2.597,3.296,3.953
			c2.518,3.293,3.93,7.307,4.057,11.472c0.11,3.618,0.91,6.871,2.155,10.27c0.802,2.19,5.092,10.911,0.583,11.434
			c-4.488,0.522-7.178-2.875-8.793-6.521c-1.354-3.05-3.324-7.144-3.352-10.594c-0.021-3.154-0.838-6.482-1.865-9.452
			c-0.434-1.257-1.213-2.173-2.105-3.073c0.021-0.014,0.043-0.021,0.065-0.033c0.033,0.018,0.068,0.024,0.104,0.033
			c3.136,2.338,4.499,6.754,5.323,10.486c0.806,3.635,1.722,7.232,3.072,10.708c0.777,1.997,2.226,3.679,4.291,4.376
			c1.32,0.443,2.562-0.932,2.635-2.155c0.201-3.304-1.929-5.704-2.859-8.699c-1.016-3.269-1.377-6.712-2.477-9.963
			c-0.992-2.937-2.364-5.668-4.381-8.033c-0.982-1.146-2.055-2.787-3.567-3.266c-0.185-1.013-0.472-1.994-0.761-2.836
			c-0.012-0.037-0.045-0.057-0.066-0.089c0.007-0.005,0.012-0.011,0.018-0.018C658.191,596.087,658.187,596.075,658.189,596.067z"/>
		<path d="M629.568,499.302c-0.938-2.433-1.647-4.872-3.094-7.062c0.298-0.492,0.336-1.053,0.229-1.634
			c1.951,2.369,3.224,5.174,3.205,8.655C629.907,499.474,629.633,499.471,629.568,499.302z"/>
		<path fill="#302833" d="M685.379,421.012c-0.188-0.023-0.376-0.044-0.564-0.066C685.003,420.968,685.19,420.988,685.379,421.012z"
			/>
		<path fill="#302833" d="M694.396,422.313c-0.139-0.033-0.279-0.062-0.42-0.092C694.117,422.251,694.258,422.279,694.396,422.313z"
			/>
		<path fill="#302833" d="M691.179,421.723c-0.167-0.023-0.333-0.048-0.501-0.072C690.846,421.675,691.012,421.699,691.179,421.723z
			"/>
		<path fill="#302833" d="M692.818,421.992c-0.092-0.017-0.182-0.035-0.273-0.053C692.637,421.957,692.727,421.976,692.818,421.992z
			"/>
		<path fill="#302833" d="M689.641,421.513c-0.133-0.016-0.265-0.034-0.396-0.051C689.376,421.479,689.508,421.497,689.641,421.513z
			"/>
		<path fill="#302833" d="M687.803,421.293c-0.121-0.013-0.242-0.027-0.363-0.041C687.561,421.266,687.682,421.28,687.803,421.293z"
			/>
		<path fill="#302833" d="M622.152,436.477c-0.91-1.433-1.343-2.85-1.422-4.229c0-0.002,0.002-0.002,0.003-0.003
			c0.077,1.383,0.51,2.798,1.421,4.232c1.931,3.039,4.697,5.262,6.911,8.057c1.89,2.388,3.347,5,4.782,7.654
			c-1.436-2.654-2.895-5.267-4.783-7.654C626.851,441.738,624.082,439.516,622.152,436.477z"/>
		<path fill="#302833" d="M636.371,458.24c2.133,3.57,4.746,4.76,9.451,6.76h-0.002C641.115,463,638.504,461.811,636.371,458.24z"/>
		<path d="M604.773,471.77c0.199,0.314,0.404,0.617,0.611,0.918C605.178,472.388,604.974,472.082,604.773,471.77z"/>
		<path d="M607.297,475.229c0.049,0.061,0.1,0.119,0.15,0.177C607.396,475.349,607.346,475.29,607.297,475.229z"/>
		<path d="M613.525,427.064c-0.51,0.115-1.021,0.229-1.531,0.34C612.505,427.293,613.016,427.18,613.525,427.064z"/>
		<path d="M612.83,480.374c0.426,0.304,0.855,0.605,1.309,0.892C613.686,480.979,613.252,480.68,612.83,480.374z"/>
		<path d="M615.389,426.626c-0.408,0.101-0.818,0.198-1.23,0.292C614.57,426.824,614.98,426.727,615.389,426.626z"/>
		<path d="M619.154,425.596c-0.359,0.113-0.721,0.217-1.083,0.318C618.434,425.813,618.795,425.709,619.154,425.596z"/>
		<path d="M624.6,423.492c-0.001,0-0.002,0.002-0.004,0.004c-0.37,0.178-0.746,0.335-1.12,0.5
			C623.852,423.831,624.23,423.672,624.6,423.492z"/>
		<path d="M622.843,424.278c-0.347,0.144-0.7,0.272-1.054,0.407C622.143,424.551,622.496,424.422,622.843,424.278z"/>
		<path d="M606.211,473.842c0.12,0.164,0.24,0.33,0.365,0.49C606.451,474.172,606.331,474.006,606.211,473.842z"/>
		<path d="M621.012,424.981c-0.35,0.124-0.702,0.238-1.055,0.353C620.31,425.219,620.662,425.105,621.012,424.981z"/>
		<path d="M588.236,444.813c0.101,0-0.229,0.031,0.264,0.15c0.002-0.033-0.5-0.068-0.5-0.096c0,0.033,0,2.133,0,2.133h1.006
			c-0.018,0-0.119-0.324-0.354-0.123c-0.017-0.047-0.037-0.511-0.053-0.553c0.273-0.154,0.387-0.856,0.406-1.152
			c-0.494-0.117-0.689-0.255-0.791-0.256c-1.432-5.005,0.979-9.09,5.406-11.66c1.037-0.602,2.104-1.143,3.184-1.616
			c-1.076,0.472-2.139,0.977-3.172,1.578C589.204,435.785,586.804,439.805,588.236,444.813z"/>
		<path d="M617.276,426.141c-0.376,0.104-0.755,0.199-1.132,0.295C616.521,426.34,616.9,426.244,617.276,426.141z"/>
		<path d="M598.619,430.877c-0.418,0.157-0.835,0.313-1.248,0.484C597.784,431.189,598.201,431.033,598.619,430.877z"/>
		<path d="M600.551,430.201c-0.405,0.131-0.812,0.261-1.213,0.405C599.739,430.463,600.146,430.332,600.551,430.201z"/>
		<path d="M602.549,429.598c-0.408,0.113-0.813,0.229-1.218,0.353C601.736,429.826,602.141,429.711,602.549,429.598z"/>
		<path d="M610.076,427.814c0.6-0.127,1.197-0.255,1.797-0.385c-1.51,0.326-3.022,0.645-4.53,0.979
			C608.252,428.207,609.164,428.01,610.076,427.814z"/>
		<path d="M603.546,469.75c0.292,0.512,0.593,1.008,0.897,1.497C604.139,470.759,603.838,470.262,603.546,469.75z"/>
		<path d="M604.604,429.054c-0.42,0.104-0.838,0.21-1.256,0.321C603.766,429.264,604.184,429.157,604.604,429.054z"/>
		<path d="M606.744,428.545c-0.459,0.102-0.917,0.209-1.375,0.318C605.827,428.754,606.285,428.646,606.744,428.545z"/>
		<path d="M621.877,431.366l-0.593,0.501c-0.182,0.13-0.368,0.25-0.551,0.377c-0.181-3.19,1.561-6.189,3.872-8.752
			c-0.003,0-0.007,0.002-0.01,0.004c0.002-0.002,0.003-0.004,0.004-0.004c-0.369,0.18-0.748,0.339-1.124,0.504
			c-0.212,0.092-0.421,0.193-0.633,0.282c-0.347,0.144-0.7,0.272-1.054,0.407c-0.258,0.098-0.515,0.201-0.777,0.296
			c-0.35,0.124-0.702,0.237-1.055,0.353c-0.267,0.088-0.533,0.181-0.803,0.262c-0.359,0.113-0.721,0.217-1.083,0.318
			c-0.265,0.076-0.529,0.154-0.795,0.227c-0.376,0.104-0.755,0.199-1.132,0.295c-0.252,0.066-0.504,0.131-0.756,0.19
			c-0.408,0.101-0.818,0.198-1.23,0.292c-0.211,0.049-0.42,0.1-0.633,0.146c-0.51,0.115-1.021,0.229-1.531,0.34
			c-0.039,0.008-0.081,0.017-0.121,0.025c-0.6,0.13-1.197,0.258-1.797,0.385c-0.912,0.195-1.824,0.393-2.733,0.594
			c-0.199,0.045-0.399,0.09-0.599,0.137c-0.459,0.102-0.917,0.209-1.375,0.318c-0.254,0.063-0.51,0.126-0.766,0.19
			c-0.42,0.104-0.838,0.21-1.256,0.321c-0.267,0.07-0.532,0.148-0.799,0.223c-0.408,0.113-0.813,0.229-1.218,0.353
			c-0.261,0.08-0.521,0.166-0.78,0.251c-0.405,0.131-0.812,0.262-1.213,0.405c-0.243,0.083-0.479,0.18-0.719,0.271
			c-0.418,0.156-0.835,0.313-1.248,0.484c-0.189,0.078-0.377,0.17-0.566,0.252c-1.08,0.473-2.146,0.986-3.184,1.59
			c-4.428,2.568-6.838,6.602-5.406,11.609c0.102,0,0.297,0.031,0.791,0.15c-0.02,0.293-0.133,0.781-0.406,0.936
			c0.016,0.045,0.036,0.088,0.053,0.131c-0.017,0.016-0.034,0.033-0.053,0.045c1.617,4.268,5.077,7.457,7.689,11.1
			c2.822,3.936,4.871,8.377,7.257,12.576c0.292,0.512,0.593,1.009,0.897,1.497c0.107,0.177,0.219,0.351,0.33,0.522
			c0.2,0.313,0.404,0.618,0.611,0.918c0.269,0.395,0.545,0.778,0.826,1.154c0.12,0.164,0.24,0.33,0.365,0.49
			c0.234,0.305,0.476,0.604,0.721,0.897c0.049,0.061,0.1,0.119,0.15,0.177c1.56,1.854,3.32,3.504,5.383,4.968
			c0.422,0.306,0.855,0.605,1.309,0.892c4.195,2.658,9.318,5.398,12.564,9.341c0.107,0.581,0.069,1.142-0.229,1.634
			c-0.019-0.027-0.035-0.058-0.055-0.088c-1.352-2.011-3.34-3.627-5.289-5.021c-3.896-2.78-8.369-4.726-11.996-7.886
			c-3.756-3.274-6.197-7.889-8.512-12.217c-2.668-4.988-5.549-9.471-8.979-13.967c-1.566-2.053-3.026-4.272-3.974-6.68
			c-0.623,0.643-1.641,1.145-2.235,1.689c-3.107,2.845-4.487,7.594-5.864,11.414c-0.251,0.697-0.507,1.395-0.763,2.09
			c-0.305-0.564-0.598-1.135-0.881-1.714c1.652-5.083,3.62-10.507,7.779-13.606c0.479-0.357,1.233-0.854,1.483-1.29
			c-0.25-0.847-0.438-1.712-0.527-2.604c-0.375-3.774,2.08-7.107,5.054-9.146c5.427-3.717,11.838-5.466,18.36-6.886
			c5.131-1.117,10.332-2.029,15.179-3.537c0.354-0.365,0.714-0.724,1.083-1.066c0.061-0.062,0.13-0.113,0.194-0.172
			c0.242,0.284,0.446,0.584,0.61,0.897C624.225,424.82,622.004,428.059,621.877,431.366z"/>
		<path opacity="0.3" d="M620.73,432.247c-3.801,2.64-7.873,4.493-11.891,6.776c-4.377,2.489-6.605,6.073-5.258,11.141
			c1.338,5.02,4.197,9.648,5.984,14.531c1.906,5.204,4.398,9.215,8.35,13.133c2.85,2.824,5.676,5.826,7.394,9.495
			c0.452,0.967,1.188,2.165,1.394,3.283c-3.246-3.942-8.369-6.683-12.564-9.341c-0.453-0.286-0.883-0.588-1.309-0.892
			c-0.353-0.255-0.697-0.514-1.035-0.777c-0.6-0.465-1.172-0.947-1.719-1.45c-0.939-0.858-1.812-1.773-2.629-2.74
			c-0.051-0.058-0.102-0.116-0.15-0.177c-0.245-0.292-0.485-0.593-0.721-0.897c-0.125-0.16-0.245-0.326-0.365-0.49
			c-0.283-0.376-0.558-0.76-0.826-1.154c-0.207-0.301-0.412-0.604-0.611-0.918c-0.111-0.172-0.223-0.346-0.33-0.522
			c-0.305-0.489-0.605-0.985-0.897-1.497c-2.386-4.199-4.435-8.641-7.257-12.576c-2.586-3.605-5.998-6.09-7.637-10.297
			c0.234-0.201,0.336,0.123,0.354,0.123H588c0,0,0-2.1,0-2.133c0,0.027,0.502,0.063,0.5,0.096c-0.493-0.119-0.438-0.15-0.539-0.15
			c-1.432-5.008,1.105-9.041,5.533-11.609c1.034-0.599,2.167-1.118,3.242-1.59c0.189-0.082,0.41-0.174,0.601-0.252
			c0.413-0.172,0.849-0.327,1.265-0.484c0.24-0.091,0.484-0.188,0.728-0.271c0.401-0.145,0.812-0.274,1.217-0.405
			c0.261-0.083,0.522-0.171,0.783-0.251c0.405-0.124,0.812-0.239,1.22-0.353c0.267-0.074,0.532-0.152,0.799-0.223
			c0.418-0.111,0.836-0.218,1.256-0.321c0.256-0.064,0.512-0.128,0.766-0.19c0.458-0.109,0.916-0.217,1.375-0.318
			c0.199-0.047,0.399-0.092,0.599-0.137c1.508-0.334,3.021-0.652,4.53-0.979c0.04-0.009,0.082-0.018,0.121-0.025
			c0.511-0.111,1.021-0.225,1.531-0.34c0.213-0.047,0.422-0.098,0.633-0.146c0.412-0.094,0.822-0.191,1.23-0.292
			c0.252-0.06,0.504-0.124,0.756-0.19c0.377-0.096,0.756-0.191,1.132-0.295c0.266-0.072,0.53-0.15,0.795-0.227
			c0.362-0.102,0.724-0.205,1.083-0.318c0.27-0.081,0.536-0.174,0.803-0.262c0.353-0.114,0.705-0.229,1.055-0.353
			c0.263-0.095,0.52-0.198,0.777-0.296c0.354-0.135,0.707-0.264,1.054-0.407c0.212-0.089,0.421-0.19,0.633-0.282
			c0.374-0.165,0.75-0.322,1.12-0.5C622.285,426.059,620.549,429.057,620.73,432.247z"/>
		<path d="M624.596,423.496c0.003-0.002,0.007-0.004,0.01-0.004c-2.312,2.563-4.053,5.562-3.872,8.752
			c-0.001,0.001-0.003,0.001-0.003,0.003C620.549,429.057,622.285,426.059,624.596,423.496z"/>
		<path d="M606.576,474.332c0.235,0.305,0.476,0.605,0.721,0.897C607.052,474.936,606.811,474.637,606.576,474.332z"/>
		<path d="M610.076,478.146c0.547,0.503,1.119,0.985,1.719,1.45c0.338,0.264,0.683,0.522,1.035,0.777
			c-2.063-1.464-3.823-3.114-5.383-4.968C608.265,476.373,609.137,477.288,610.076,478.146z"/>
		<path d="M605.385,472.688c0.269,0.395,0.543,0.778,0.826,1.154C605.93,473.466,605.653,473.082,605.385,472.688z"/>
		<path d="M588.6,446.074c0.019-0.012,0.036-0.029,0.053-0.045c1.639,4.209,5.051,7.539,7.637,11.145
			C593.677,453.531,590.217,450.342,588.6,446.074z"/>
		<path d="M623.476,423.996c-0.212,0.092-0.421,0.193-0.633,0.282C623.055,424.189,623.264,424.088,623.476,423.996z"/>
		<path d="M603.348,429.375c-0.267,0.07-0.532,0.148-0.799,0.223C602.815,429.523,603.081,429.445,603.348,429.375z"/>
		<path d="M605.369,428.863c-0.254,0.063-0.51,0.126-0.766,0.19C604.859,428.989,605.115,428.926,605.369,428.863z"/>
		<path d="M601.331,429.95c-0.261,0.08-0.521,0.168-0.78,0.251C600.811,430.116,601.07,430.03,601.331,429.95z"/>
		<path d="M604.443,471.247c0.107,0.177,0.219,0.351,0.33,0.522C604.662,471.598,604.551,471.424,604.443,471.247z"/>
		<path d="M597.371,431.361c-0.189,0.078-0.377,0.17-0.566,0.252C596.994,431.531,597.182,431.439,597.371,431.361z"/>
		<path d="M599.338,430.606c-0.243,0.083-0.479,0.18-0.719,0.271C598.858,430.786,599.095,430.689,599.338,430.606z"/>
		<path d="M607.343,428.408c-0.199,0.045-0.399,0.09-0.599,0.137C606.943,428.498,607.144,428.453,607.343,428.408z"/>
		<path d="M619.957,425.334c-0.267,0.088-0.533,0.181-0.803,0.262C619.424,425.515,619.69,425.422,619.957,425.334z"/>
		<path d="M618.071,425.914c-0.265,0.076-0.529,0.154-0.795,0.227C617.542,426.068,617.807,425.99,618.071,425.914z"/>
		<path d="M621.789,424.686c-0.258,0.098-0.515,0.201-0.777,0.296C621.274,424.887,621.531,424.783,621.789,424.686z"/>
		<path d="M616.145,426.436c-0.252,0.066-0.504,0.131-0.756,0.19C615.641,426.566,615.893,426.502,616.145,426.436z"/>
		<path d="M611.994,427.404c-0.039,0.008-0.081,0.017-0.121,0.025C611.913,427.421,611.955,427.412,611.994,427.404z"/>
		<path d="M614.158,426.918c-0.211,0.049-0.42,0.1-0.633,0.146C613.738,427.018,613.947,426.967,614.158,426.918z"/>
		<path opacity="0.3" d="M605.221,599.499c-0.653,0.209-1.469,0.389-2.199,0.696c0.767-2.738,2.025-5.774,1.589-8.478
			c0.694,1.056,1.31,2.156,1.727,3.44c0.064,0.203,0.4,0.256,0.452,0.013c0.413-1.937-0.393-3.194-1.554-4.688
			c-2.272-2.924-4.143-6.189-5.261-9.735c-2.088-6.621-1.672-13.337-1.1-20.171c0.576-6.834,1.93-13.648,1.203-20.523
			c-0.576-5.447-3.246-10.889-5.5-15.941c1.145,0.995,2.355,1.914,3.697,2.674c2.762,1.563,5.646,2.721,8.288,4.431
			c1.116,5.372,2.054,10.747,1.933,16.157c-0.139,6.146-1.547,12.201-1.384,18.365c0.159,5.986,2.09,10.958,5.104,16.044
			c2.829,4.773,4.739,9.328,2.825,14.891c-0.068,0.202-0.154,0.406-0.232,0.607c-0.819,0.11-1.639,0.234-2.455,0.396
			C609.945,598.146,607.562,598.756,605.221,599.499z"/>
		<path opacity="0.3" d="M611.529,618.737c-0.771,3.111-2.426,6.109-3.173,9.22c-1.648,6.851-2.769,13.234-2.444,20.492
			c0.32,7.115,1.259,13.879,0.214,21.058c-0.907,6.234-2.044,12.893-3.284,19.179c-1.467,7.434-3.514,14.392-1.863,22.208
			c2.369-0.595,3.994-1.752,5.506-3.647c0.843-1.053,1.713-3.059,3.042-3.869c-0.607,2.37-1.181,4.774-1.192,7.117
			c-0.012,2.063-0.416,4.183-0.222,6.232c0.153,1.616,0.456,3.205,0.66,4.819c0.153,1.2,0.187,2.329,0.349,3.454
			c-0.034-0.044-0.067-0.091-0.104-0.132c-3.423-3.863-7.341-0.33-9.975,2.698c-1.996,2.299-3.338,4.822-4.595,7.595
			c-0.953,2.109-2.441,4.302-3.026,6.597c-0.719-0.688-1.292-1.449-1.886-2.304c-0.305-0.441-0.895-0.388-1.099,0.116
			c-0.948,2.33-0.771,5.869-2.158,8.178c-0.681-6.179-0.695-11.87,0.53-18.063c0.597-3.023,1.022-6.096,1.752-9.094
			c0.668-2.746,1.807-5.207,2.701-7.864c1.777-5.272,2.501-10.597,3.25-16.096c0.418-3.087,0.432-6.132,0.62-9.232
			c0.169-2.789,0.763-5.536,1.119-8.308c0.837-6.502,3.413-12.691,3.828-19.266c0.374-5.933-1.38-11.607-1.758-17.511
			c-0.2-3.134-0.409-6.105,0.194-9.223c0.517-2.666,1.148-5.316,1.682-7.98c0.93-4.647,2.52-8.863,2.706-13.604
			c3.013,0.274,6.083,0.084,9.144-0.292C612.087,613.732,612.164,616.179,611.529,618.737z"/>
		<path opacity="0.3" d="M602.419,610.143c0.351-3.5-2.298-7.619,2.298-9.002c3.016-0.906,6.118-1.869,9.267-2.324
			c-0.515,1.338-1.015,2.681-1.378,4.058c-0.383,1.456-0.527,2.933-0.506,4.436c0.012,0.828,0.113,1.717,0.037,2.567
			C608.878,610.288,605.611,610.487,602.419,610.143z"/>
		<path opacity="0.3" d="M617.177,657.343c-0.21-3.316-0.173-6.917-0.856-10.258c1.666,2.806,2.684,6.484,3.582,9.579
			c1.909,6.573,2.539,13.646,2.138,20.458c-0.825,14.029-6.185,27.127-5.739,41.265c0.096,2.97-0.94,9.518,3.433,9.55
			c1.827,0.014,3.318-1.763,5.176-1.694c0.253,0.01,0.485,0.052,0.706,0.108c-1.233,1.455-2.337,3.009-3.478,4.61
			c-0.943,1.325-5.983,8.841-8.262,6.205c-1.474-1.711-1.371-4.488-2.051-6.563c-0.054-0.157-0.106-0.318-0.161-0.475
			c-0.125-1.066-0.483-2.033-0.889-3.168c-0.672-1.873-0.618-3.75-0.91-5.69c-0.676-4.488-1.152-9.821,0.095-14.277
			c1.204-4.293,1.807-8.728,2.858-13.06c0.917-3.775,1.913-7.483,2.426-11.346c0.572-4.326,1.227-8.767,1.371-13.129
			c0.017-0.523,0.021-1.051,0.021-1.578c-0.001-0.523-0.005-1.05-0.005-1.577c0.002-1.052,0.027-2.105,0.152-3.144
			c0.178-1.461,0.381-2.896,0.418-4.352C617.213,658.322,617.207,657.836,617.177,657.343z"/>
		<path opacity="0.3" d="M668.256,680.072c-0.066,10.729-2.408,23.188,0.893,33.613c0.716,2.261,2.081,4.439,3.424,6.445
			c-0.535-0.381-1.076-0.738-1.635-1.049c-1.082-1.459-3.16-2.478-3.938-4.148c-1.411-3.032-1.399-7.447-1.389-10.77
			c0.018-6.474,0.623-12.911,0.595-19.379c-0.025-5.769,0.12-11.887-0.839-17.603c-0.727-4.347-2-8.84-3.611-13.091
			c2.164,2.735,3.075,6.458,4.133,9.898C667.557,669.424,668.288,674.411,668.256,680.072z"/>
		<path opacity="0.3" d="M702.637,720.661c-1.688-3.707-3.217-7.191-4.027-11.052c0.068-0.033,0.119-0.104,0.096-0.188
			c-0.179-0.604-0.32-1.201-0.437-1.799c-0.056-0.403-0.116-0.803-0.156-1.218c-0.008-0.106-0.037-0.195-0.077-0.28
			c-0.49-4.011,0.085-7.938-0.155-12.09c-0.292-5.057-0.866-10.201-1.681-15.203c-0.799-4.917-2.025-10.043-4.312-14.512
			c-1.034-2.021-1.954-4.013-2.763-6.104c3.184,2.545,5.354,9.209,6.375,12.421c1.69,5.317,2.331,10.643,2.831,16.06
			c0.52,5.621,1.156,10.948,1.264,16.713c0.104,5.645,1.524,9.873,3.645,15.08c1.499,3.683,3.36,7.171,5.147,10.692
			C705.629,727.681,703.627,722.838,702.637,720.661z"/>
		<path opacity="0.3" d="M649.664,673.809c1.858,5.297,3.419,10.236,2.955,15.936c-0.436,5.335-2.906,11.374-1.249,16.674
			c1.533,4.902,6.683,6.914,9.239,11.08c0.086,0.139,0.161,0.276,0.234,0.414c-1.013,0.287-2.023,0.652-3.083,1.043
			c-1.792,0.66-5.976,2.652-7.886,1.87c-2.779-1.134-4.502-6.261-4.842-8.956c-0.015-0.13-0.082-0.223-0.168-0.291
			c0.389-0.784,0.762-1.564,1.087-2.329c2.751-6.438,1.88-14.037,2.046-20.877c0.195-7.889-1.92-15.305-3.577-22.938
			c-0.927-4.271-1.678-8.575-2.203-12.919c-0.086-0.709-0.209-1.411-0.347-2.108c1.63,2.23,2.91,4.675,3.73,7.574
			C647.092,663.247,647.845,668.62,649.664,673.809z"/>
		<path opacity="0.3" d="M704.257,417.307c2.683,3.24,3.985,7.838,4.407,11.959c0.217,2.119,0.18,4.397-0.391,6.488
			c-0.113-3.92-0.785-7.939-2.316-11.152c-1.288-2.699-3.1-5.021-4.86-7.417c-1.442-1.966-4.272-5.373-3.938-8.134
			c0.729,1.434,1.561,2.777,2.697,3.961C701.277,414.492,702.943,415.721,704.257,417.307z"/>
	</g>
	<g>
		<g>
			<path fill="none" d="M706.746,368.492c1.543,6.984,7.057,13.02,14.285,14.121c-1.992,1.164-3.764,2.73-5.858,3.691
				c-2.058,0.944-3.752,1.152-5.954,0.496c-0.344-0.102-0.631-0.186-0.931-0.225c-2.169-5.371-3.759-10.943-3.083-16.772
				c0.01-0.091-0.127-0.108-0.152-0.026c-2.315,7.877,1.494,15.676,4.568,22.815c3.42,7.946,6.266,15.817,4.709,24.267
				c-0.688-3.705-2.104-7.251-4-10.533c-1.172-2.035-2.454-4.001-3.859-5.884c-1.044-1.401-2.088-3.117-3.516-4.183
				c-0.108-0.863-0.187-1.73-0.182-2.602c0.01-2.09,0.457-4.111,0.541-6.189c0.006-0.158-0.217-0.225-0.297-0.09
				c-1.956,3.359-1.508,8.137-0.775,11.801c0.897,4.506,2.564,8.785,4.09,13.105c1.649,4.67,3.383,9.621,3.366,14.637
				c-0.009,3.322-0.565,6.56-1.4,9.736c-0.031-4.198-0.692-8.598-2.341-12.057c-1.288-2.699-3.1-5.021-4.86-7.417
				c-1.554-2.118-4.726-5.91-3.808-8.765c0.211-0.655-0.773-1.115-1.108-0.499c-0.937,1.729,0.021,4.069,0.931,5.724
				c-0.476,1.895-0.525,3.842-1.012,5.738c-0.836,3.262-1.368,6.573-1.694,9.924c-0.601,6.172-0.915,12.346-2.393,18.342
				c-0.392-4.665-2.032-9.066-3.171-13.688c-1.773-7.183-1.113-14.83-0.834-22.168c0.279-7.416,0.673-14.843,0.776-22.264
				c0.964-1.446,1.984-3.047,3.091-4.912c5.372-9.066,6.977-33.835,7.106-35.978c2.853-0.89,5.705-1.78,8.558-2.669
				C706.558,353.343,705.118,361.132,706.746,368.492z"/>
		</g>
		<g>
			<path fill="#F7E6BF" d="M700.715,349c-4.104,0-8.209,2.038-12.312,3.193c-0.308,0.088-0.457,0.201-0.403,0.484
				c1.531,8.479,3.014,16.968,3.335,25.568c0.161,4.321,0.14,8.604,0.028,12.918c-3.707,4.916-6.602,8.072-9.744,14.199
				c-4.324,8.426-20.553,33.12-30.936,33.12l0,0c-10.384,0-26.813-24.804-31.137-33.229s-8.168-10.892-14.317-20.372
				c-6.149-9.477-7.79-35.882-7.79-35.882H700.715z"/>
		</g>
		<g>
			<path d="M619.079,405.568c-2.45-4.773-4.751-7.631-7.415-11.031c-1.982-2.531-4.23-5.244-6.877-9.324
				c-6.154-9.484-7.809-35.086-7.876-36.181L596.877,349H704.54l-7.245,1.506c-2.918,0.818-5.832,1.063-8.777,1.9
				c1.645,9.097,3.031,17.336,3.343,25.733c0.146,3.889,0.153,8.147,0.027,12.994l-0.003,0.177l-0.102,0.135
				c-0.775,1.029-1.514,1.983-2.229,2.901c-2.685,3.454-5.002,6.437-7.469,11.241c-4.395,8.563-20.658,33.414-31.402,33.414
				C639.729,439.002,622.871,412.958,619.079,405.568z M690.811,378.226c-0.311-8.327-1.692-16.481-3.332-25.538
				c-0.099-0.557,0.222-1.104,0.782-1.264c2.874-0.811,5.751-2.424,8.626-2.424h-98.886c0.28,4,2.154,26.828,7.669,35.332
				c2.622,4.037,4.854,6.84,6.823,9.354c2.697,3.441,5.026,6.438,7.524,11.301c4.811,9.375,20.998,32.951,30.666,32.951
				c9.694,0,25.506-23.173,30.465-32.838c2.512-4.891,4.857-7.904,7.575-11.4c0.679-0.875,1.383-1.777,2.117-2.751
				C690.961,386.195,690.951,382.047,690.811,378.226z"/>
		</g>
		<g>
			<path fill="#DEE0C8" d="M692.564,350.641c4.992-1.559,9.982-3.115,14.975-4.67c-0.981,7.372-2.421,15.161-0.793,22.521
				c1.543,6.984,7.057,13.02,14.285,14.121c-1.992,1.164-3.764,2.73-5.858,3.691c-2.058,0.944-3.752,1.152-5.954,0.496
				c-0.344-0.102-0.631-0.186-0.931-0.225c-2.169-5.371-3.759-10.943-3.083-16.772c0.01-0.091-0.127-0.108-0.152-0.026
				c-2.315,7.877,1.494,15.676,4.568,22.815c3.42,7.946,6.266,15.817,4.709,24.267c-0.688-3.705-2.104-7.251-4-10.533
				c-1.172-2.035-2.454-4.001-3.859-5.884c-1.044-1.401-2.088-3.117-3.516-4.183c-0.108-0.863-0.187-1.73-0.182-2.602
				c0.01-2.09,0.457-4.111,0.541-6.189c0.006-0.158-0.217-0.225-0.297-0.09c-1.956,3.359-1.508,8.137-0.775,11.801
				c0.897,4.506,2.564,8.785,4.09,13.105c1.649,4.67,3.383,9.621,3.366,14.637c-0.009,3.322-0.565,6.56-1.4,9.736
				c-0.031-4.198-0.692-8.598-2.341-12.057c-1.288-2.699-3.1-5.021-4.86-7.417c-1.554-2.118-4.726-5.91-3.808-8.765
				c0.211-0.655-0.773-1.115-1.108-0.499c-0.937,1.729,0.021,4.069,0.931,5.724c-0.476,1.895-0.525,3.842-1.012,5.738
				c-0.836,3.262-1.368,6.573-1.694,9.924c-0.601,6.172-0.915,12.346-2.393,18.342c-0.392-4.665-2.032-9.066-3.171-13.688
				c-1.773-7.183-1.113-14.83-0.834-22.168c0.545-14.389,1.526-28.8-0.033-43.16c-0.353-3.268-0.807-6.527-1.308-9.775
				c-0.292-1.883-0.592-3.76-0.905-5.637c-0.083-0.504-0.838-0.207-0.179-0.412C687.91,352.086,690.239,351.365,692.564,350.641z"/>
		</g>
		<path opacity="0.3" d="M610.02,349h7.553h82.237c-0.931,0-1.86,0.271-2.792,0.562c-2.871,0.798-5.743,1.669-8.614,2.477
			c-0.087,0.026-0.158-0.011-0.219,0.04c-0.867,0.268-1.733,0.5-2.602,0.769c-0.659,0.204,0.096-0.112,0.179,0.393
			c0.313,1.876,0.613,3.745,0.905,5.629c0.393,2.545,0.74,5.095,1.05,7.654c-5.217,1.616-10.512,2.899-15.891,4.021
			c-7.451,1.554-14.972,3.624-22.582,4.174c-7.184,0.518-14.084-0.987-20.998-2.588c-0.666,1.896-1.268,3.818-1.778,5.783
			c-1.663,6.427-3.208,13.417-2.128,20.064c0.944,5.815,4.097,11.295,7.225,16.201c3.317,5.207,7.688,9.504,11.804,14.061
			c4.003,4.43,7.528,7.189,13.267,8.139c-2.101,1.314-4.119,2.097-5.951,2.097c-10.384,0-26.813-24.798-31.137-33.224
			s-8.168-10.892-14.317-20.371c-6.149-9.478-7.79-35.879-7.79-35.879H610.02z"/>
		<g>
			<path fill="#DEE0C8" d="M625.082,353.738c2.107,6.32-0.524,12.64-2.895,19.223c-3.686,9.742-5.529,17.641-4.477,27.909
				c0.791,6.058,1.316,12.377,3.423,18.169c-5.266-3.949-8.688-12.639-10.531-18.959c-1.317,6.057-2.897,14.746-2.897,20.802
				c0,7.636,2.371,14.22,1.053,21.854c-0.525,3.948-1.315,7.899-2.368,11.585c0.263-7.373-5.002-16.325-6.847-23.433
				c-2.369-8.164-1.844-14.746-1.053-22.909c0.525-4.214,0.789-8.425,1.578-12.638c-2.104,4.213-3.422,8.688-5.791,12.638
				c-2.634,5.002-6.849,6.583-11.585,9.216c10.004-8.162,2.37-20.011,6.317-30.018c2.107-5.266,4.74-9.74,5.794-15.271
				c0.79-5.266,0-10.794,0.526-16.061c0.527-3.686,0.791-8.689,2.369-11.849"/>
		</g>
		<g>
			<g>
				<path d="M625.199,353.709c1.703,4.959,0.584,9.854-0.988,14.699c-1.73,5.327-3.816,10.456-5.088,15.931
					c-1.314,5.669-1.559,11.604-0.815,17.373c0.75,5.817,1.368,11.636,3.312,17.204c0.137,0.398-0.41,0.814-0.746,0.548
					c-5.863-4.625-8.708-12.321-10.737-19.268c0.309,0.008,0.618,0.016,0.927,0.024c-1.834,8.357-3.423,16.947-2.601,25.524
					c0.454,4.71,1.347,9.31,1.132,14.063c-0.219,4.899-1.418,9.955-2.73,14.657c-0.152,0.546-0.977,0.396-0.969-0.156
					c0.061-5.157-1.947-10.071-3.807-14.794c-1.705-4.334-3.269-8.645-4.114-13.243c-0.881-4.779-0.706-9.675-0.325-14.494
					c0.438-5.526,0.975-11.12,1.948-16.579c0.298,0.134,0.595,0.266,0.894,0.401c-2.371,4.877-3.852,10.249-7.031,14.705
					c-2.535,3.552-6.801,5.345-10.499,7.374c-0.544,0.301-1.138-0.468-0.65-0.885c5.096-4.368,5.497-10.104,5.138-16.389
					c-0.329-5.773-0.221-10.592,2.116-15.965c1.317-3.031,2.737-6.004,3.786-9.148c1.346-4.043,1.281-8.236,1.229-12.442
					c-0.08-6.14,0.035-13.456,2.635-19.153c0.307-0.67,1.275-0.064,0.974,0.602c-2.948,6.466-2.449,14.695-2.432,21.615
					c0.017,7.629-2.942,13.686-5.853,20.555c-4.381,10.344,2.913,22.781-6.828,31.129c-0.217-0.295-0.435-0.592-0.65-0.889
					c3.874-2.122,7.903-3.914,10.548-7.616c2.996-4.198,4.439-9.405,6.678-14.012c0.266-0.546,0.982-0.099,0.893,0.404
					c-0.957,5.373-1.442,10.882-1.906,16.315c-0.462,5.407-0.454,10.758,0.648,16.092c1.845,8.936,7.694,17.139,7.601,26.441
					c-0.324-0.052-0.646-0.104-0.971-0.157c1.38-4.976,2.495-10.184,2.734-15.353c0.218-4.699-0.803-9.393-1.242-14.055
					c-0.779-8.274,1.033-16.767,2.734-24.827c0.106-0.497,0.801-0.399,0.928,0.022c1.995,6.627,4.715,14.209,10.328,18.648
					c-0.25,0.183-0.499,0.363-0.746,0.547c-1.934-5.568-2.567-11.396-3.289-17.213c-0.6-4.818-0.593-9.73,0.22-14.525
					c0.907-5.37,2.707-10.416,4.573-15.512c2.164-5.897,4.424-11.802,2.813-18.143C624.93,353.617,625.15,353.568,625.199,353.709
					L625.199,353.709z"/>
			</g>
		</g>
		<path opacity="0.3" d="M589.01,387.178c2.107-5.266,4.74-9.68,5.794-15.211c0.248-1.654,0.337-3.967,0.363-4.967
			c-0.001,0-0.003,0-0.005,0c0.057-5-0.191-7.482,0.168-11.096c0.527-3.686,0.791-8.719,2.369-11.878l12.32,4.368l15.063,5.352
			c1.89,5.668-0.033,11.332-2.159,17.189c-6.859-1.439-13.867-1.719-20.763-2.693c-0.069,2.564-0.402,5.158-0.717,7.398
			c-0.727,5.207-2.419,9.899-4.612,14.654c-0.852,1.848-2.271,4.048-2.378,6.114c1.268-1.129,2.723-1.927,4.07-2.981
			c1.564-1.226,2.613-2.961,4.043-4.149c2.027,3.049-0.311,8.696-0.799,12.03c-0.635,4.35-0.653,8.936-0.854,13.321
			c-0.197,4.345-0.209,8.939,0.021,13.285c0.217,4.056,1.947,7.907,3.248,11.704c0.813,2.372,3.436,9.535,2.185,13.201
			c-0.407-7.063-5.104-15.299-6.823-21.932c-2.369-8.164-1.844-14.746-1.053-22.909c0.525-4.214,0.789-8.425,1.578-12.638
			c-2.104,4.213-3.422,8.688-5.791,12.638c-2.634,5.002-6.849,6.583-11.585,9.216C592.696,409.033,585.063,397.185,589.01,387.178z"
			/>
		<path d="M687.697,391.133L687.697,391.133c-0.106,4.471-0.301,8.943-0.499,13.41c-0.198,4.468-0.4,8.936-0.492,13.406
			c-0.083,3.963-0.392,8.102,0.196,12.037c1.094,7.326,4.722,14.131,3.964,21.688c-0.069,0.668,0.912,0.762,1.116,0.18
			c2.469-6.988,2.82-14.24,3.561-21.545c0.539-5.301,1.868-10.336,2.211-15.6c1.543,2.48,3.424,4.706,5.027,7.15
			c3.848,5.868,4.708,13.732,3.75,20.596c-0.113,0.816,1.129,0.937,1.377,0.222c1.646-4.767,3.173-9.835,3.184-14.933
			c0.01-4.359-0.989-8.576-2.393-12.686c-1.58-4.613-3.552-9.131-4.762-13.863c-0.205-0.81-0.395-1.627-0.566-2.446
			c0.564,0.702,1.175,1.371,1.691,2.063c1.313,1.766,2.576,3.576,3.674,5.485c2.549,4.427,4.422,9.151,4.653,14.305
			c0.036,0.769,1.099,0.979,1.351,0.217c2.833-8.532,1.161-16.938-2.372-24.97c-1.303-2.963-2.739-5.981-3.995-9.065
			c1.023,0.179,1.975,0.847,3.039,0.845c1.127-0.001,2.221-0.146,3.272-0.594c2.659-1.141,4.854-3.044,7.442-4.314
			c0.289-0.143,0.141-0.522-0.141-0.551c-9.246-0.933-14.504-9.349-14.973-17.908c-0.35-6.358,0.701-12.529,1.539-18.806
			c0.039-0.292-0.307-0.411-0.574-0.329c-3.916,1.202-7.827,1.768-11.74,3.874c-3.748,1.051-7.497,2.036-11.244,3.192
			c-0.281,0.088-0.416,0.068-0.371,0.353c1.402,8.479,2.758,17.033,3.049,25.636C687.818,382.496,687.799,386.817,687.697,391.133z
			 M688.008,411.795c0.279-7.418,0.673-14.84,0.776-22.26l0,0c0.101-6.972-0.052-13.933-0.81-20.891
			c-0.353-3.265-0.807-6.51-1.308-9.76c-0.292-1.881-0.592-3.729-0.905-5.607c-0.083-0.507-0.838-0.151-0.179-0.355
			c2.327-0.723,4.656-1.425,6.981-2.151c2.027-0.63,4.055-1.771,6.081-1.771h0.346c0,0-0.002-0.063-0.003-0.101
			c2.85-0.889,5.701-2.088,8.551-2.976c-0.981,7.372-2.421,15.184-0.793,22.545c1.543,6.984,7.057,13.031,14.285,14.133
			c-1.992,1.164-3.764,2.736-5.858,3.697c-2.058,0.944-3.752,1.155-5.954,0.499c-0.344-0.102-0.631-0.183-0.931-0.223
			c-2.169-5.371-3.759-10.942-3.083-16.772c0.01-0.09-0.127-0.107-0.152-0.025c-2.315,7.877,1.494,15.676,4.568,22.814
			c3.42,7.947,6.266,15.818,4.709,24.268c-0.688-3.705-2.104-7.251-4-10.533c-1.172-2.035-2.454-4.001-3.859-5.884
			c-1.044-1.401-2.088-3.117-3.516-4.183c-0.108-0.863-0.187-1.73-0.182-2.602c0.01-2.09,0.457-4.111,0.541-6.189
			c0.006-0.158-0.217-0.225-0.297-0.09c-1.956,3.359-1.508,8.137-0.775,11.801c0.897,4.506,2.564,8.785,4.09,13.105
			c1.649,4.67,3.383,9.621,3.366,14.637c-0.009,3.322-0.565,6.56-1.4,9.736c-0.031-4.198-0.692-8.598-2.341-12.057
			c-1.288-2.699-3.1-5.021-4.86-7.417c-1.554-2.118-4.726-5.91-3.808-8.765c0.211-0.655-0.773-1.115-1.108-0.499
			c-0.937,1.729,0.021,4.069,0.931,5.724c-0.476,1.895-0.525,3.842-1.012,5.738c-0.836,3.262-1.368,6.573-1.694,9.924
			c-0.601,6.172-0.915,12.346-2.393,18.342c-0.392-4.665-2.032-9.066-3.171-13.688C687.068,426.778,687.729,419.131,688.008,411.795
			z"/>
		<g>
			<path fill="#343434" d="M690.952,273c0,0,2.789,1.902,7.132,1.902c4.346,0,13.496,1.865,15.996,2.918
				c2.502,1.056,2.567-0.418,5.397,2.809c2.831,3.227,13.825,16.905,21.525,18.484c7.702,1.58,18.695,11.187,30.214,11.649
				c0,0-3.51,1.466-7.371,6.116c-3.863,4.652-7.022,9.652-11.235,8.775c-4.212-0.879-5.354-1.316-5.354-1.316
				s1.778,4.717,1.449,8.076c0,0-20.669,10.268-39.892,13.954c-19.22,3.687-42.854,16.852-66.147,17.553
				c-23.288,0.702-71.209-24.751-71.209-24.751l1.492-7.459c0,0-6.406,2.454-8.689,4.824c0,0-16.148-21.414-23.697-25.451
				c0,0,28.086-11.059,41.779-20.712c13.689-9.655,17.377-14.482,21.941-15.01c4.563-0.525,8.946-2.362,8.946-2.362H690.952z"/>
		</g>
		<g>
			<path d="M571.209,339.637l-0.346-0.185l1.377-6.886c-1.821,0.76-5.925,2.596-7.6,4.336l-0.429,0.443l-0.372-0.494
				c-0.16-0.213-16.165-21.367-23.523-25.301l-1.006-0.537l1.059-0.416c0.282-0.113,28.185-11.145,41.668-20.649
				c4.836-3.411,8.388-6.143,11.241-8.339c5.226-4.029,7.849-6.163,10.944-6.52c4.452-0.515,8.793-2.09,8.837-2.09h0.082h77.811
				h0.14l0.118,0.151c0.026,0.015,2.734,1.511,6.874,1.511c4.351,0,13.648,1.742,16.201,2.816c0.787,0.332,1.291,0.394,1.777,0.438
				c1.127,0.104,1.915,0.283,3.813,2.445c0.271,0.311,0.618,0.721,1.032,1.201c3.669,4.29,13.416,15.686,20.201,17.079
				c3.151,0.646,6.855,2.608,10.776,4.687c5.886,3.119,12.557,6.654,19.354,6.926l2.372,0.098l-2.19,0.916
				c-0.033,0.014-3.451,1.479-7.17,5.959c-0.559,0.672-1.103,1.354-1.637,2.021c-2.896,3.62-5.629,7.039-9.035,7.039
				c-0.355,0-0.717-0.036-1.074-0.111c-2.224-0.464-3.603-0.807-4.415-1.03c0.511,1.593,1.388,4.789,1.14,7.319l-0.027,0.291
				l-0.262,0.128c-0.207,0.104-20.955,10.345-40.025,14.003c-7.475,1.431-15.603,4.299-24.205,7.336
				c-13.646,4.814-27.758,9.795-42.024,10.225c-0.323,0.01-0.649,0.015-0.981,0.015
				C618.224,364.462,571.676,339.885,571.209,339.637z M746.764,324.527l-0.41-1.092l1.091,0.414
				c0.013,0.004,1.19,0.444,5.273,1.296c3.22,0.673,6.072-2.804,9.071-6.554c0.539-0.675,1.088-1.359,1.65-2.038
				c2.344-2.823,4.554-4.49,5.976-5.384c-6.397-0.748-12.544-4.007-18.024-6.909c-3.85-2.043-7.49-3.968-10.494-4.585
				c-7.141-1.465-16.706-12.643-20.789-17.418c-0.41-0.479-0.754-0.877-1.025-1.185c-1.715-1.954-2.272-1.994-3.116-2.073
				c-0.513-0.047-1.151-0.086-2.091-0.482c-2.475-1.041-11.536-2.852-15.791-2.852c-3.965,0-6.654-1.666-7.261-1.666h-77.509
				c-0.646,0-4.695,1.631-8.972,2.124c-2.804,0.32-5.351,2.302-10.421,6.212c-2.861,2.203-6.423,4.996-11.277,8.418
				c-12.133,8.555-35.777,18.332-40.897,20.398c7.269,4.723,20.206,21.478,22.577,24.588c2.6-2.28,8.186-4.43,8.436-4.527
				l0.895-0.338l-1.604,8.012c4.378,2.285,48.8,25.169,70.602,24.505c14.104-0.423,28.136-5.374,41.704-10.165
				c8.642-3.049,16.806-5.928,24.36-7.377c17.756-3.406,37.004-12.572,39.487-13.778
				C748.393,328.897,746.781,324.571,746.764,324.527z"/>
		</g>
		<path opacity="0.3" d="M580.578,291.566c0.606-0.399,1.201-0.797,1.764-1.194c13.689-9.655,17.377-14.482,21.941-15.01
			c4.563-0.525,8.946-2.362,8.946-2.362h57.677c6.29,3,10.072,6.951,14.625,13.151l9.619,4.847c0.574,2.518,2.736,4.975,0.244,7.098
			c-1.559,1.326-4.794,2.461-6.705,3.381c-4.365,2.105-8.904,4.367-13.441,6.08c-2.186,0.826-5.916,2.475-8.158,1.383
			c-1.738,4.275-6.577,3.248-10.555,3.429c-4.896,0.218-9.814-0.269-14.725-0.235c-3.288,0.021-4.383,0.34-5.4-2.926
			c-9.672-2.538-19.326-4.965-29.183-7.197c-0.887-0.201-1.782-0.386-2.678-0.566c-2.47,0.287-4.884,0.998-7.286,1.809
			c-7.724,2.602-15.695,5.127-22.859,9.066c-3.625,1.992-6.989,4.161-10.246,6.713c1.626,1.604,3.955,4.473,3.771,6.862
			c3.154-0.187,6.84-0.475,7.748,3.198c0.756,3.049-0.682,6.004,1.061,8.919c1.53,2.565,4.799,3.974,5.987,6.776
			c-6.827-3.26-11.269-5.617-11.269-5.617l1.492-7.459c0,0-6.406,2.454-8.689,4.824c0,0-16.148-21.414-23.697-25.451
			C540.563,311.084,566.383,300.914,580.578,291.566z"/>
		<g>
			<path fill="#343434" d="M695.649,291l-13.166-59.471c0,0,4.739-14.727,17.379-18.676c0,0,11.783,6.725,12.243,7.117l5.398,12.053
				l10.071,6.253c0,0,3.226,0.858,4.409-2.958c1.186-3.818,5.398-16.26,9.019-18.762c0,0-8.491,2.701-12.31,5.857
				c0,0-8.689-15.859-13.691-20.998c0,0-25.937-19.218-28.699-20.929c0,0-23.303,13.558-29.096,18.167
				c-5.793,4.606-17.248,13.297-21.459,14.48c-4.213,1.186-6.648,5.99-6.714,6.582c-0.067,0.594-3.423,14.884-5.794,18.57
				C620.871,241.973,608.146,288,607.793,291H695.649z"/>
		</g>
		<path opacity="0.3" d="M650.039,209.728c-6.043,4.429-11.584,9.116-15.672,15.484c-4.966,7.734-8.052,16.89-8.194,26.112
			c-0.126,8.262,3.298,16.623,1.986,24.84c-1.169,7.322-8.196,14.785-16.152,11.71c-1.097-0.424-2.069-0.977-2.946-1.625
			c3.339-13.486,12.238-44.366,14.18-47.39c2.371-3.686,5.727-18.549,5.794-19.143c0.065-0.592,2.501-5.396,6.714-6.582
			c4.211-1.184,15.666-9.874,21.459-14.48c5.793-4.609,29.096-18.167,29.096-18.167c0.371,0.23,1.17,0.783,2.26,1.557
			c-5.84,3.632-11.519,7.476-17.041,11.614C664.363,199.021,657.256,204.442,650.039,209.728z"/>
		<g>
			<path d="M607.27,293.521c0.371-4.477,13.191-51.001,15.527-54.637c2.344-3.644,5.643-18.643,5.713-19.196
				c0.098-0.879,2.766-5.828,7.094-7.045c3.637-1.023,13.375-8.111,21.275-14.394c5.758-4.581,28.205-17.659,29.158-18.212
				l0.273-0.163l0.268,0.165c2.752,1.705,27.678,20.176,28.801,21.016c4.53,4.648,11.882,17.697,13.477,20.571
				c4.024-3.011,11.652-5.449,11.988-5.558l3.348-1.059l-2.889,1.999c-3.089,2.134-6.994,12.638-8.814,18.503
				c-0.962,3.101-3.237,3.446-4.17,3.446c-0.5,0-0.838-0.06-0.874-0.068l-10.354-6.302l-5.404-11.861
				c-0.922-0.596-7.43-4.026-11.879-6.488c-11.457,3.728-16.281,17.594-16.777,19.057L696.303,295h-89.08L607.27,293.521z
				 M681.939,231.768l0.041,0.337c0.049-0.154,4.969-15.403,17.726-19.388l0.213-0.043l0.199,0.121
				c2.773,1.533,11.864,6.58,12.329,6.978l5.469,11.987l9.857,6.072c0.098,0.018,0.293,0.047,0.545,0.047
				c1.062,0,2.474-0.467,3.164-2.692c0.724-2.33,4.094-12.808,7.585-17.39c-2.74,1.002-7.492,2.924-10.037,5.028l-0.492,0.407
				l-0.306-0.563c-0.088-0.159-8.711-15.867-13.543-20.839c-0.253-0.187-24.604-18.242-28.4-20.748
				c-2.653,1.548-23.398,13.676-28.754,17.937c-2.758,2.193-16.757,13.154-21.645,14.529c-3.875,1.09-6.208,5.393-6.334,6.039
				c-0.059,0.527-3.434,15.452-5.873,19.244C621.449,242.311,609.516,286,608.395,291h86.602L681.939,231.768z"/>
		</g>
		<g>
			<path fill="#422951" d="M689.988,278.171c0,0,2.436-1.185,3.291,1.909s2.633,12.836,2.633,12.836s0.923,0.791-3.884,3.621
				c-4.806,2.83-18.233,10.334-43.512,10.334c-25.276,0-40.284-11.938-40.284-11.938s-2.107-0.789-1.054-3.598
				c1.054-2.808,3.95-14.043,3.95-14.043s3.949-2.721,8.249,0c4.301,2.72,16.677,6.934,33.353,7.461
				S689.988,278.171,689.988,278.171z"/>
		</g>
		<path opacity="0.5" d="M659.928,291.682c-0.039,2.32,0.549,4.55,0.672,6.854c0.113,2.089-0.196,4.628-2.1,5.885
			c-1.908,1.263-4.501,0.588-6.608,0.395c-2.442-0.227-4.987,0.275-7.394-0.077c-2.576-0.381-3.119-2.636-3.295-4.937
			c-0.387-5.063,0.005-11,1.887-15.787c3.014,0.37,6.236,0.633,9.641,0.74c2.213,0.069,4.496,0.004,6.791-0.162
			c0.119,0.16,0.229,0.334,0.319,0.531C660.72,287.05,659.963,289.654,659.928,291.682z"/>
		<g>
			<path d="M607.965,295.394c-0.2-0.092-0.69-0.354-1.082-0.897c-0.434-0.605-0.824-1.676-0.197-3.345
				c1.032-2.749,3.904-13.877,3.933-13.99l0.051-0.19l0.16-0.113c0.077-0.053,1.921-1.301,4.5-1.301
				c1.521,0,2.979,0.435,4.331,1.291c4.236,2.68,16.542,6.857,33.088,7.379c16.391,0.516,36.874-6.486,37.01-6.528
				c0.059-0.028,0.588-0.274,1.277-0.274c0.769,0,2.146,0.326,2.752,2.516c0.813,2.942,2.416,11.647,2.623,12.775
				c0.063,0.113,0.115,0.281,0.096,0.5c-0.082,0.92-1.459,2.156-4.209,3.775c-11.725,6.908-26.453,10.408-43.78,10.408
				C624.141,307.398,609.029,296.207,607.965,295.394z M695.395,293.012c-0.018-0.098-1.782-9.756-2.623-12.791
				c-0.318-1.16-0.904-1.746-1.736-1.746c-0.451,0-0.815,0.17-0.876,0.194c-0.198,0.069-20.876,7.142-37.444,6.612
				c-16.758-0.529-29.283-4.803-33.617-7.543c-1.182-0.749-2.451-1.128-3.769-1.128c-1.84,0-3.278,0.746-3.743,1.019
				c-0.411,1.584-2.929,11.266-3.912,13.894c-0.834,2.22,0.584,2.855,0.743,2.919l0.142,0.081
				c0.15,0.118,15.178,11.823,39.958,11.823c17.135,0,31.685-3.453,43.244-10.263c3.021-1.78,3.573-2.635,3.675-2.882
				L695.395,293.012z"/>
		</g>
		<path fill="#F7931E" d="M639.748,307.245l0.828-27.853L664,280.292v28.312L639.748,307.245z M645.352,284.861l-0.778,17.422
			l13.427,0.75v-17.679L645.352,284.861z"/>
		<path d="M638.803,307.742l1.007-28.896l24.19,0.941v29.373L638.803,307.742z M640.294,279.939l-1.059,26.809L662,308.047v-27.249
			L640.294,279.939z M643.426,302.781l1.364-18.467l13.21,0.533v18.742L643.426,302.781z M646.748,285.428l-1.358,16.359
			l12.61,0.689v-16.615L646.748,285.428z"/>
		<g>
			<path fill="#191919" d="M641.535,398.251c0.955,0,1.979-0.768,2.663-2.046c1.092-2.035,2.479-3.137,4.579-4.805l1.035-0.827
				c2.025-1.634,3.612-1.417,5.015-1.226c0.359,0.051,0.704,0.095,1.036,0.113c1.21,0.057,2.406-0.335,3.203-1.06
				c0.695-0.633,1.085-1.507,1.123-2.519c0.105-2.748-2.764-4.521-2.885-4.596c-0.25-0.15-0.574-0.068-0.723,0.178
				c-0.152,0.248-0.072,0.572,0.174,0.725c0.026,0.016,2.464,1.528,2.383,3.652c-0.028,0.737-0.291,1.335-0.783,1.781
				c-0.592,0.54-1.508,0.838-2.437,0.783c-0.304-0.014-0.619-0.058-0.948-0.103c-1.531-0.209-3.438-0.47-5.818,1.45l-1.027,0.822
				c-2.127,1.688-3.662,2.903-4.854,5.131c-0.614,1.144-1.423,1.598-1.911,1.468c-0.395-0.108-0.606-0.638-0.566-1.413
				c0.12-2.332,1.119-9.189,1.252-10.114c0.148-0.251,0.611-1.063,1.803-3.289c0.719-1.345,4.251-8.331,3.213-13.968
				c-0.054-0.287-0.327-0.479-0.611-0.424c-0.289,0.053-0.477,0.327-0.425,0.611c0.756,4.106-1.201,9.723-3.105,13.285
				c-1.472,2.748-1.812,3.305-1.825,3.326l-0.075,0.2c-0.046,0.319-1.146,7.779-1.277,10.319c-0.066,1.3,0.431,2.229,1.335,2.48
				C641.227,398.23,641.38,398.251,641.535,398.251z"/>
		</g>
		<path d="M632.857,361.059c0.04-0.087,0.08-0.174,0.121-0.262C632.988,360.989,632.929,361.018,632.857,361.059z"/>
		<path d="M632.938,361.697c-0.062-0.136-0.126-0.273-0.187-0.411c0.009-0.02,0.018-0.042,0.027-0.062L632.938,361.697z"/>
		<path d="M632.857,361.059c-0.026,0.055-0.051,0.111-0.078,0.166l-0.025-0.082C632.787,361.1,632.822,361.078,632.857,361.059z"/>
		<path d="M688.403,351.883c2.871-0.809,5.743-1.834,8.614-2.633c-1.484,0.463-2.967,0.928-4.453,1.391
			c-1.46,0.454-2.92,0.906-4.38,1.359C688.245,351.95,688.316,351.908,688.403,351.883z"/>
		<path opacity="0.3" d="M607.179,291.336c1.054-2.808,3.95-14.043,3.95-14.043s3.949-2.721,8.249,0
			c1.437,0.908,3.774,1.982,6.87,3.031c-0.668,1.631-1.613,3.123-1.811,4.934c-0.266,2.42,0.416,4.711,1.322,6.915
			c1.727,4.2,3.893,7.819,7.404,10.813c1.448,1.236,3.207,1.998,4.714,3.158c-18.789-2.584-29.646-11.211-29.646-11.211
			S606.125,294.145,607.179,291.336z"/>
		<path d="M681.301,357.332c-0.068,0.154-0.137,0.307-0.207,0.461l-0.247-0.041C680.971,357.582,681.122,357.441,681.301,357.332z"
			/>
		<path opacity="0.3" d="M685.583,352.809c2.327-0.723,4.656-1.443,6.981-2.168c4.992-1.559,9.982-3.115,14.975-4.67
			c-0.607,4.564-1.389,9.287-1.512,13.97c-4.042,1.458-8.063,2.974-12.098,4.473c-0.277,0.104-0.557,0.194-0.834,0.296
			c-0.045,9.518,0.453,19.123-0.582,28.555c-1.271,11.545-4.321,21.923-1.109,33.422c0.912,3.267,1.832,6.551,2.336,9.887
			c-0.365,3.73-0.832,7.436-1.728,11.076c-0.392-4.665-2.032-9.066-3.171-13.688c-1.773-7.183-1.113-14.83-0.834-22.168
			c0.545-14.389,1.526-28.8-0.033-43.16c-0.074-0.705-0.172-1.41-0.258-2.115l0,0c-0.31-2.559-0.657-5.115-1.05-7.66
			c-0.009-0.059-0.019-0.119-0.028-0.177l0,0c-0.283-1.821-0.574-3.644-0.877-5.46C685.679,352.717,684.924,353.014,685.583,352.809
			z"/>
		<path opacity="0.3" d="M707.475,398.322c2.535,3.309,4.314,7.426,5.639,11.354c0.664,1.973,1.371,4.346,1.066,6.467
			c-0.73-3.444-2.076-6.745-3.85-9.816c-1.172-2.035-2.454-4.001-3.859-5.884c-1.044-1.401-2.088-3.117-3.516-4.183
			c-0.108-0.863-0.187-1.73-0.182-2.602c0.004-1.133,0.139-2.25,0.273-3.365c0.114,1.152,0.364,2.273,0.91,3.34
			C704.855,395.377,706.291,396.779,707.475,398.322z"/>
	</g>
</g>
<g id="Capa_2">
</g>
</svg>
