<?xml version="1.0" encoding="utf-8"?>
<!-- Generator: Adobe Illustrator 16.0.3, SVG Export Plug-In . SVG Version: 6.00 Build 0)  -->
<!DOCTYPE svg PUBLIC "-//W3C//DTD SVG 1.1//EN" "http://www.w3.org/Graphics/SVG/1.1/DTD/svg11.dtd">
<svg version="1.1" xmlns="http://www.w3.org/2000/svg" xmlns:xlink="http://www.w3.org/1999/xlink" x="0px" y="0px" width="1920px"
	 height="1080px" viewBox="0 0 1920 1080" enable-background="new 0 0 1920 1080" xml:space="preserve">
<g id="Capa_1">
	<path opacity="0.3" d="M527.476,1028.088c7.07-10.192,10.875-25.105,16.438-36.239c2.75-5.502,4.843-12.51-1.725-16.062
		c-3.383-1.83-7.424-2.424-11.201-2.778c-5.089-0.477-10.232-0.376-15.324,0c-10.083,0.745-20.086,2.678-29.686,5.861
		c-3.854,1.277-7.634,2.758-11.407,4.253c-0.035,0.203,0.043,0.338,0.233,0.404c-5.683,1.877-11.414,3.725-16.69,6.595
		c-5.423,2.95-10.386,6.67-15.795,9.651c-4.905,2.704-11.327,4.638-16.555,6.727c-6.651,2.658-47.489,8.997-47.489,8.997
		c0.225-3.244-0.383-2.86-0.108-10.497c0.181-5.037,1.667-13.167,3.507-21.269c1.25-5.498-6.25-2.173-11.211-4.584
		c-6.289-3.056-11.631-7.378-17.076-11.697c-5.376-4.263-10.912-8.317-16.387-12.45l-110.5,23.5
		c-8.414,5.845-17.018,11.273-26.15,15.938c-13.758,7.028-28.174,12.674-42.741,17.777c-12.502,4.38-25.557,7.997-37.608,13.625
		L31,1080h469.312c5.242-5.834,3.255-8.434,7.461-14.807C516.083,1052.6,518.875,1040.486,527.476,1028.088z"/>
	<g>
		<path fill-rule="evenodd" clip-rule="evenodd" fill="#4C3648" d="M726.305,79.944c11.897,1.253,22.642,6.675,34.114,9.407
			c6.325,1.507,5.88,6.401,5.975,10.795c0.337,15.677,0.36,31.361,0.505,47.042c-2.543,0.282-5.086,0.564-7.628,0.846
			c-6.065-2.526-5.736-8.983-8.546-15.055c-1.34,13.304-8.795,10.333-16.119,8.049c-2.926-0.914-5.989-1.375-8.99-2.042
			c-1.289-12.791,2.799-25.839-1.832-38.472c5.397,0.669,10.794,1.338,17.361,2.153c-4.799-4.825-10.236-5.314-14.887-7.426
			C726.274,90.142,726.291,85.043,726.305,79.944z"/>
		<path fill-rule="evenodd" clip-rule="evenodd" fill="#422A3D" d="M577.209,144.161c0.79-1.221,1.539-3.473,2.376-3.502
			c11.585-0.442,23.289-2.517,34.639,1.738C602.073,146.948,589.551,143.632,577.209,144.161z"/>
		<path fill-rule="evenodd" clip-rule="evenodd" fill="#422A3D" d="M537.838,145.823c0.723-3.979,3.661-4.57,6.887-4.177
			c9.265,1.125,18.93-2.148,27.859,2.546C561.188,148.682,549.417,145.194,537.838,145.823z"/>
		<path fill-rule="evenodd" clip-rule="evenodd" fill="#422A3D" d="M674.576,141.548c1.126-5.464,5.482-3.962,9.033-4.178
			c3.618-0.215,7.706,1.109,10.092-3.114c1.478,2.526,2.391,3.532,3.865,6.062C689.715,140.222,682.428,141.647,674.576,141.548z"/>
		<path fill-rule="evenodd" clip-rule="evenodd" fill="#422A3D" d="M668.434,101.761c1.445,0.039,2.891,0.072,4.334,0.109
			l-0.005-0.007c0.998,6.39,6.095,4.429,9.927,4.739c10.196,0.828,20.457-0.612,30.643,2.465c5.85,1.768,5.668,5.294,5.399,9.489
			c-0.226,3.532,1.287,8.219-4.296,9.155c-14.18,2.377-28.387,4.604-42.584,6.892c-0.004,0.001,0.264-0.155,0.264-0.155
			c0.107-2.021-0.256-3.814-2.32-4.782l0.073,0.088c-2.543-12.139,6.46-11.759,14.053-13.827c-6.063-0.09-12.126-0.183-18.188-0.272
			C664.445,110.594,668.853,106.649,668.434,101.761z"/>
		<path fill-rule="evenodd" clip-rule="evenodd" fill="#422A3D" d="M665.732,115.654c6.063,0.089,12.125,0.182,18.188,0.272
			c-7.593,2.068-16.596,1.688-14.053,13.827C665.372,125.967,665.375,120.861,665.732,115.654z"/>
		<path fill-rule="evenodd" clip-rule="evenodd" fill="#422A3D" d="M669.795,129.665c2.064,0.967,2.428,2.761,2.32,4.782
			C669.952,133.528,669.577,131.738,669.795,129.665z"/>
		<path fill-rule="evenodd" clip-rule="evenodd" fill="#422A3D" d="M691.553,106.275c-0.012-2.33,0.018-4.642,2.688-5.714
			C693.951,102.751,693.589,104.909,691.553,106.275z"/>
		<path fill-rule="evenodd" clip-rule="evenodd" fill="#1A1126" d="M723.783,100.514c-9.91-1.902-19.535,3.705-32.594,0.306
			c13.611-2.164,24.339-3.868,35.068-5.576c4.65,2.108,10.088,2.597,14.887,7.422C734.577,101.852,729.181,101.183,723.783,100.514z
			"/>
		<path fill-rule="evenodd" clip-rule="evenodd" fill="#4C3648" d="M355.431,871.586c8.557,0.251,17.114,0.498,25.669,0.743
			c-8.102,15.559-16.104,31.171-24.326,46.669c-14.867,28.007-29.867,55.945-44.811,83.912c-3.025,0.354-5.894,0.788-2.409,4.572
			c-0.943,2.271-1.886,4.546-2.829,6.815c-1.144-0.081-3.005,0.255-3.326-0.3c-6.855-11.881-11.992-4.793-17.429,1.354
			c-1.753,1.981-4.008,3.943-7.003,2.284c-2.444-1.354-1.865-3.946-1.903-6.17c-0.033-1.908,0.239-3.823,0.205-5.735
			c-0.04-2.42,3.46-5.342-0.007-7.121c-3.998-2.056-4.813,2.564-6.805,4.492c-3.718,3.595-7.133,7.656-13.742,7.035
			c1.262-7.459,7.694-12.494,6.514-19.886c0,0-0.156,0.178-0.154,0.178c7.639-4.715,13.863-10.271,12.285-20.507
			c-0.256-4.019,3.39-6.005,4.781-9.166c2.89-0.448,5.793-0.889,2.395-4.606c0.077-1.896,0.51-3.608,2.371-4.578
			c5.707-1.763,11.927-3.207,7.084-11.481c2.385-4.592,4.768-9.182,7.152-13.775c4.676-0.162,4.715-3.507,4.721-6.874
			c-0.191-3.268,1.521-5.449,3.438-8.031c7.476-10.065,13.437-20.979,15.558-33.591c0,0-0.136,0.121-0.135,0.121
			c3.293,0.095,4.905-1.481,4.775-4.792c0,0-0.047,0.345-0.048,0.344c0.834-1.173,1.669-2.342,2.501-3.513l-0.413-0.451l0.278-0.547
			c5.556,1.295,11.023,3.183,16.869,2.493c-1.676,7.005-3.348,14.014-5.021,21.017c0.713,0.271,1.425,0.542,2.139,0.811
			C347.68,886.063,351.554,878.825,355.431,871.586z M331.39,928.985c-0.842,1.492-1.685,2.988-2.526,4.479
			c-10.747,12.986-15.386,28.689-20.127,44.353c7.586-14.32,17.117-27.735,20.603-43.935c1.737-1.067,2.213-2.763,2.293-4.652
			c0.294-0.367,0.586-0.734,0.879-1.105C332.137,928.413,331.765,928.699,331.39,928.985z M334.814,921.579
			c-0.12,0.332-0.321,0.663-0.32,0.993c0.002,0.11,0.528,0.215,0.814,0.32c0.122-0.331,0.321-0.664,0.319-0.993
			C335.627,921.79,335.1,921.686,334.814,921.579z"/>
		<path fill-rule="evenodd" clip-rule="evenodd" fill="#4C3648" d="M529.488,987.244c-45.944-37.312-91.879-74.64-137.875-111.885
			c-1.874-1.521-3.62-2.799-3.62-5.417c5.192-1.115,10.198-3.541,15.733-2.245c8.837,2.421,14.846,9.31,21.902,14.379
			c40.519,29.116,80.717,58.678,121.053,88.048c5.524,4.019,9.197,6.688-1.204,9.498
			C540.051,981.091,535.842,986.689,529.488,987.244z"/>
		<path fill-rule="evenodd" clip-rule="evenodd" fill="#1A1126" d="M306.725,1014.298c0.943-2.27,1.886-4.544,2.828-6.815
			c1.769-1.015,2.283-2.692,2.41-4.572c14.943-27.967,29.943-55.905,44.811-83.912c8.223-15.498,16.225-31.11,24.326-46.669
			c5.961,21.766,1.588,41.978-8.842,61.436c-8.518,15.888-16.544,32.03-23.053,48.876c-2.443,4.335-5.951,8.4-7.148,13.055
			c-4.951,19.289-18.762,26.577-36.821,28.711C300.867,1020.318,306.957,1017.774,306.725,1014.298z"/>
		<path fill-rule="evenodd" clip-rule="evenodd" fill="#422A3D" d="M322.859,877.819c-2.121,12.611-8.082,23.525-15.558,33.591
			c-1.917,2.582-3.63,4.764-3.438,8.031c-3.078,1.258-4.672,3.535-4.721,6.874c-2.385,4.594-4.768,9.184-7.152,13.775
			c-3.057,3.397-6.55,6.527-7.084,11.481c-1.861,0.97-2.294,2.682-2.371,4.578c-1.901,0.961-2.346,2.68-2.395,4.606
			c-1.392,3.161-5.037,5.147-4.781,9.166c-6.012,11.741-16.256,12.803-27.622,10.882c-5.638-0.951-11.081-0.493-16.372,1.684
			c-1.881-0.071-4.688,0.611-5.469-0.351c-2.525-3.109,1.156-4.542,2.733-6.219c16.601-17.652,33.228-35.288,50.017-52.763
			C293.272,907.938,308.115,892.923,322.859,877.819z"/>
		<path fill-rule="evenodd" clip-rule="evenodd" fill="#422A3D" d="M723.783,100.514c-9.91-1.902-19.535,3.705-32.594,0.306
			c13.611-2.164,24.339-3.868,35.068-5.576c0.017-5.103,0.033-10.201,0.046-15.3c-11.551-0.913-22.97,2.946-34.552,0.955
			c-4.105,1.323-8.096,2.776-11.604,4.771c-59.854,4.386-158.941,9.297-213.104,14.161c-24.016,2.158-48.276,1.883-72.036,6.761
			c-1.339,7.443,1.718,10.697,9.263,9.876c1.873-0.208,3.828-0.188,5.678,0.121c1.79,0.299,4.277-1.235,5.467,1.869
			c-6.832,5.613-25.545-3.762-20.822,16.242c13.348-7.143,27.068-13.528,42.854-18.776c-7.161-6.594-14.709-1.447-22.303-7.119
			c12.049-1.257,22.166-2.772,32.332-3.297c45.158-2.324,90.333-4.231,135.48-6.822c15.117-0.869,57.699-3.036,87.57-3.33
			c-0.934,1.872-1.763,3.993-2.208,6.408c1.444,0.039,3.109,0.022,4.218,0.072c0-0.001,0.002,0.07,0.002,0.07
			s0.234-0.007,0.235-0.007c0.4-3.333,1.221-5.107,2.45-6.556c4.542-0.014,9.208,0.023,12.824,0.127
			c-4.938,3.506-8.747,6.696-14.272,6.419c0,0.002,0.002-0.085,0.002-0.085s-0.755-0.015-0.757-0.015
			c0.996,6.647,5.967,4.459,9.795,4.771c10.198,0.827,20.394-0.591,30.579,2.485c5.85,1.768,5.636,5.303,5.367,9.5
			c-0.225,3.531,1.272,8.222-4.31,9.158c-14.18,2.377-28.396,4.608-42.594,6.896c0.227,3.135,1.745,5.383,4.595,6.717
			c16.388-0.775,32.774-1.548,49.163-2.325C724.328,126.193,728.414,113.146,723.783,100.514z"/>
		<path fill-rule="evenodd" clip-rule="evenodd" fill="#1A1126" d="M381.674,983.731c0.244-19.094,0.379-38.191,0.828-57.278
			c0.079-3.44-2.006-8.4,3.047-9.867c3.782-1.097,5.672,3.153,8.42,5.038c3.819,2.615,4.148,7.039,6.009,10.664
			c-0.322,10.688-0.45,21.389-1.022,32.063C398.369,975.251,388.842,978.516,381.674,983.731z"/>
		<path fill-rule="evenodd" clip-rule="evenodd" fill="#422A3D" d="M306.725,1014.298c0.232,3.477-5.857,6.021-1.489,10.108
			c-11.793,0.729-23.567,2.343-35.409,0.733c-2.529-3.83,1.361-7.523,0.24-11.321c0.281-0.102,0.608-0.145,0.83-0.32
			c0.141-0.109,0.125-0.417,0.18-0.64c-0.343,0.313-0.685,0.627-1.027,0.941c-3.906,3.741-7.813,7.486-11.717,11.226
			c-2.66,0.115-5.319,0.234-7.98,0.337c-5.431,0.21-7.166-2.023-4.167-6.807c5.845-9.337,9.78-19.824,17.044-28.301
			c1.181,7.389-5.252,12.424-6.514,19.883c6.609,0.621,10.024-3.44,13.742-7.035c1.992-1.928,2.807-6.548,6.805-4.492
			c3.467,1.779-0.033,4.701,0.007,7.121c0.034,1.912-0.238,3.827-0.205,5.735c0.038,2.224-0.541,4.816,1.903,6.17
			c2.995,1.659,5.25-0.303,7.003-2.284c5.437-6.147,10.573-13.235,17.429-1.354C303.72,1014.553,305.581,1014.217,306.725,1014.298z
			"/>
		<path fill-rule="evenodd" clip-rule="evenodd" fill="#1A1126" d="M355.055,111.746c-7.311,1.097-9.325,5.242-9.168,12.558
			c0.361,16.747-0.239,33.52-0.713,50.275c-0.105,3.75,1.931,8.889-4.387,10.141c-0.003-2.292-0.006-4.586-0.007-6.878
			c-0.034-10.837-0.067-21.672-0.102-32.51c-0.489-7.86-1.569-15.742-1.296-23.577c0.254-7.194-2.685-9.56-9.27-8.874
			c-0.741-0.771-1.483-1.541-2.223-2.313c6.947-0.521,13.939-4.222,20.814,0.297C350.821,111.159,352.938,111.454,355.055,111.746z"
			/>
		<path fill-rule="evenodd" clip-rule="evenodd" fill="#422A3D" d="M231.365,982.488c5.291-2.177,10.734-2.635,16.372-1.684
			c11.366,1.921,21.61,0.859,27.622-10.882c1.578,10.235-4.646,15.792-12.285,20.507c1.192-4.526,0.456-7.149-5.23-7.096
			C249.021,983.417,240.191,982.806,231.365,982.488z"/>
		<path fill-rule="evenodd" clip-rule="evenodd" fill="#422A3D" d="M355.055,111.746c-2.117-0.292-4.233-0.586-6.35-0.882
			c11.755-6.784,24.56-4.255,37.086-4.185C376.098,111.716,364.893,107.594,355.055,111.746z"/>
		<path fill-rule="evenodd" clip-rule="evenodd" fill="#1A1126" d="M270.066,1013.818c1.121,3.798-2.77,7.491-0.24,11.321
			c-3.83-0.038-7.66-0.074-11.494-0.114c3.904-3.739,7.811-7.484,11.717-11.226L270.066,1013.818z"/>
		<path fill-rule="evenodd" clip-rule="evenodd" fill="#422A3D" d="M327.5,873.148c0.13,3.311-1.482,4.887-4.775,4.792
			C323.553,875.582,324.977,873.816,327.5,873.148z"/>
		<path fill-rule="evenodd" clip-rule="evenodd" fill="#422A3D" d="M329.953,869.979c-0.832,1.171-1.667,2.34-2.501,3.513
			C328.287,872.319,329.121,871.151,329.953,869.979z"/>
		<path fill-rule="evenodd" clip-rule="evenodd" fill="#422A3D" d="M394.594,134.7c13.348-7.143,27.068-13.528,42.854-18.776
			c-7.161-6.594-14.709-1.447-22.303-7.119c12.049-1.257,22.166-2.772,32.332-3.297c45.158-2.324,90.333-4.231,135.48-6.822
			c20.637-1.185,92.463-4.792,113.254-2.749c-0.656,1.542-1.313,3.084-1.97,4.624c-2.671,1.072-2.7,3.384-2.688,5.714
			c0.855,7.313-1.228,14.826,1.512,22.009c-49.374-1.273-149.515,3.626-198.511,9.195c6.134,1.018,12.255,1.466,18.335,1.145
			c43.118-2.289,137.064-7.942,180.176-10.34c0.133,1.225,0.506,4.745,0.637,5.972c-2.386,4.223-6.474,2.899-10.092,3.114
			c-3.551,0.216-7.907-1.287-9.033,4.178c-3.093-0.021-57.261,0.866-60.353,0.848c-11.35-4.254-23.054-2.18-34.639-1.738
			c-0.837,0.03-1.586,2.282-2.376,3.502c-1.541,0.007-3.084,0.02-4.625,0.03c-8.93-4.694-18.595-1.421-27.859-2.546
			c-3.226-0.393-6.164,0.198-6.887,4.177c-1.512,0-3.024,0-4.536,0.003c-0.448-3.309-2.163-4.113-5.562-3.937
			c-44.443,2.342-88.898,4.491-133.349,6.689C394.459,143.952,394.526,139.327,394.594,134.7z"/>
		<path fill-rule="evenodd" clip-rule="evenodd" fill="#422A3D" d="M394.392,148.578c44.45-2.198,88.905-4.347,133.349-6.689
			c3.398-0.177,5.113,0.628,5.562,3.937c-12.64,5.055-25.953,0.286-38.876,3.675c8.283,0.125,16.566,0.25,27.976,0.421
			c-43.675,53.128-85.606,104.131-129.692,157.759c-0.609-13.243,2.051-22.761,2.32-31.968c0.571-19.61,18.383-27.055,24.198-42.202
			c3.259-3.221,6.813-6.195,9.729-9.7c17.719-21.279,35.291-42.676,52.912-64.035c1.998-2.717,3.998-5.432,6.887-9.356
			c-12.817-1.172-24.42-0.99-36.119-0.118c-16.818,1.249-33.674,2.01-50.521,2.853C398.715,153.326,394.833,153.689,394.392,148.578
			z"/>
		<path fill="none" d="M340.17,197.41c-1.133-3.92-3.296-7.881-0.288-11.7C336.872,189.529,339.037,193.489,340.17,197.41z"/>
		<path fill="none" d="M362.986,391.038c0.16-10.622,0.32-21.242,0.479-31.864c-0.769,0.008-1.535,0.016-2.305,0.021
			c-0.16,10.631-0.319,21.264-0.479,31.896c-0.15,52.202-3.926,104.434,1.6,156.586
			C363.151,495.468,365.865,443.267,362.986,391.038z"/>
		<path fill="#422A3D" d="M340.787,184.719L340.787,184.719c-0.343,0.328-0.644,0.66-0.905,0.991
			C340.144,185.379,340.444,185.047,340.787,184.719z"/>
		<path fill-rule="evenodd" clip-rule="evenodd" fill="#1A1126" d="M355.431,871.586c-3.877,7.239-7.751,14.478-11.626,21.716
			c-0.714-0.269-1.426-0.54-2.139-0.811c1.674-7.003,3.346-14.012,5.021-21.017c5.139-7.695,2.652-17.619,9.127-25.479
			C355.688,854.526,355.559,863.056,355.431,871.586z"/>
		<path fill-rule="evenodd" clip-rule="evenodd" fill="#422A3D" d="M693.064,128.284c-43.111,2.398-137.058,8.051-180.176,10.34
			c-6.08,0.321-12.201-0.127-18.335-1.145C543.55,131.91,643.69,127.011,693.064,128.284
			C693.145,129.049,692.983,127.52,693.064,128.284z"/>
		<path fill-rule="evenodd" clip-rule="evenodd" fill="#422A3D" d="M329.345,933.89c-3.491,16.192-13.022,29.607-20.608,43.928
			c4.741-15.663,9.38-31.366,20.129-44.351C328.869,933.473,329.345,933.89,329.345,933.89z"/>
		<path fill-rule="evenodd" clip-rule="evenodd" fill="#422A3D" d="M284.906,951.572c0.534-4.954,4.027-8.084,7.084-11.481
			C296.833,948.365,290.613,949.81,284.906,951.572z"/>
		<path fill-rule="evenodd" clip-rule="evenodd" fill="#422A3D" d="M299.143,926.315c0.049-3.339,1.643-5.616,4.721-6.874
			C303.857,922.809,303.818,926.153,299.143,926.315z"/>
		<path fill-rule="evenodd" clip-rule="evenodd" fill="#422A3D" d="M280.141,960.757c0.049-1.927,0.493-3.646,2.395-4.606
			C285.934,959.868,283.03,960.309,280.141,960.757z"/>
		<path fill-rule="evenodd" clip-rule="evenodd" fill="#422A3D" d="M311.963,1002.91c-0.127,1.88-0.642,3.558-2.41,4.572
			C306.069,1003.698,308.938,1003.264,311.963,1002.91z"/>
		<path fill-rule="evenodd" clip-rule="evenodd" fill="#422A3D" d="M334.813,921.579c0.286,0.106,0.813,0.211,0.814,0.32
			c0.002,0.329-0.197,0.662-0.319,0.993c-0.286-0.105-0.813-0.21-0.814-0.32C334.493,922.242,334.694,921.911,334.813,921.579z"/>
		<path fill-rule="evenodd" clip-rule="evenodd" fill="#422A3D" d="M331.637,929.235c-0.085,1.885-0.561,3.58-2.295,4.651
			c0.003,0.003-0.473-0.414-0.477-0.42c0.84-1.493,1.683-2.989,2.524-4.481L331.637,929.235z"/>
		<path fill-rule="evenodd" clip-rule="evenodd" fill="#422A3D" d="M331.39,928.985c0.375-0.286,0.747-0.572,1.121-0.86
			c-0.293,0.371-0.585,0.738-0.876,1.106C331.637,929.235,331.39,928.985,331.39,928.985z"/>
		<path fill-rule="evenodd" clip-rule="evenodd" fill="#1A1126" d="M270.049,1013.8c0.343-0.314,0.685-0.628,1.027-0.941
			c-0.055,0.223-0.039,0.53-0.18,0.64c-0.222,0.176-0.549,0.219-0.83,0.32L270.049,1013.8z"/>
		<path fill-rule="evenodd" clip-rule="evenodd" fill="#422A3D" d="M340.78,177.841c-2.433-0.417-4.315-1.452-4.444-4.239
			c-0.35-7.507,0.503-15.025-1.773-22.492c-1.375-4.507,2.252-5.757,6.12-5.779C340.713,156.168,340.746,167.003,340.78,177.841z"/>
		<path fill-rule="evenodd" clip-rule="evenodd" fill="#1A1126" d="M362.986,391.038c2.879,52.229,0.165,104.43-0.705,156.64
			c-5.525-52.153-1.75-104.384-1.6-156.588c-0.001,0,1.152-0.074,1.152-0.074L362.986,391.038z"/>
		<path fill-rule="evenodd" clip-rule="evenodd" fill="#422A3D" d="M362.986,391.038l-1.152-0.023c0,0-1.153,0.074-1.152,0.074
			c0.16-10.63,0.319-21.263,0.479-31.895c0.77-0.005,1.536-0.013,2.305-0.021C363.307,369.796,363.146,380.416,362.986,391.038z"/>
		<path fill="none" d="M339.882,185.71c-2.337,2.966-1.552,6.017-0.556,9.068C338.33,191.727,337.546,188.676,339.882,185.71z"/>
		<path fill="none" d="M362.986,391.038c0.16-10.622,0.32-21.242,0.479-31.864c-0.769,0.008-1.535,0.016-2.305,0.021
			c-0.16,10.631-0.319,21.264-0.479,31.896c-0.15,52.202-3.926,104.434,1.6,156.586
			C363.151,495.468,365.865,443.267,362.986,391.038z"/>
		<path fill="#422A3D" d="M340.17,197.41c-0.253-0.876-0.557-1.755-0.844-2.632C339.613,195.655,339.917,196.534,340.17,197.41z"/>
		<path fill="#422A3D" d="M391.613,875.359c-1.874-1.521-3.62-2.799-3.62-5.417c-3.942-0.866-4.879-3.029-4.938-5.489
			c-0.019-0.819,0.059-1.57,0.155-2.419c0.13-1.131,0.292-2.15,0.301-3.177c0.23-26.882,0.694-54.155,1.105-80.439
			c0.03-30.177,0.063-60.413,0.094-90.584c0.02-19.417,0.038-38.891,0.058-58.36c2.612-174.255,5.226-348.605,7.837-523.002
			c-2.272,0.007-4.543,0.108-6.814,0.111c-9.693,5.036-20.898,0.962-30.736,5.114c-7.311,1.097-9.325,5.267-9.168,12.582
			c0.361,16.747-0.239,33.532-0.713,50.289c-0.105,3.749,1.931,8.895-4.385,10.142c0,0,0,0.006-0.002,0.006
			c-0.343,0.33-0.644,0.662-0.905,0.994c-2.336,2.966-1.552,6.018-0.556,9.069c0.287,0.877,0.591,1.756,0.844,2.632
			c0.344,1.192,0.593,2.382,0.572,3.563c-0.215,11.848,1.605,23.731,3.695,35.609c3.883-9.7,3.813-20.119,4.561-29.873
			c2.082-27.144,6.973-53.957,8.59-81.095c0.758-12.726,11.096-6.729,16.67-8.762c6.092-2.219,6.547,4.383,6.578,9.154
			c0.006,0.769-0.022,1.541-0.026,2.31c-0.5,93.214-0.724,186.429-1.229,279.639c-0.212,39.201-1.188,78.501,0.204,117.699
			c0.73,20.517-5.568,39.804-6.994,59.923c-0.956,13.477-0.697,26.25,2.918,39.275c0.09-5.995,0.181-11.992,0.271-17.987
			c0.749,0,1.498,0.003,2.246,0.005c-0.104,7.002,0.089,13.83-0.369,20.806c-0.044,0.664-0.071,1.797-0.109,1.797
			c-0.187,49.647-0.299,99.297-0.351,148.944c-0.323,20.443,1.725,41.775,1.67,62.78c-0.014,4.596,0.336,9.146-1.765,13.528
			c-1.366,2.853-0.044,7.527-5.201,7.629c-5.14,0.105-5.932-4.17-7.023-7.803c-2.712-9.032-5.499-18.023-12.032-28.131
			c-2.556,8.039-4.849,13.977-6.254,20.124c-0.897,3.912-0.982,8.392-6.09,8.149c-5.852-0.276-5.631-5.246-5.62-9.576
			c0.001-0.386,0.013-0.568,0.013-0.952c-0.023-21.983,0.136-44.331,0.209-65.749c0.011-49.647,0.019-99.297,0.024-148.944
			c0.039-22.391-0.058-45.42-0.614-68.214c-1.409-57.662-1.596-115.224-2.436-172.875c-0.346-23.81,0.661-47.643-0.775-71.404
			c-1.848-30.601,0.389-61.22-1.266-91.699c-1.168-21.577-0.807-43.023-0.668-64.526c0.05-7.845-2.443-16.12,6.203-22.873
			c5.145-4.02,0.196-20.684-5.658-25.007c-0.741-0.77-1.483-1.539-2.223-2.311c-9.654,1.852-4.457,9.498-4.421,13.827
			c1.188,145.149,2.785,290.106,4.36,435.253c0.253,23.34,0.525,46.464,0.799,69.828c0.039,49.647,0.074,99.297,0.113,148.944
			c0.357,30.18,0.722,60.446,1.076,90.768c5.556,1.295,11.023,3.081,16.875,2.388c5.133-7.693,2.646-17.666,9.121-25.526
			c-0.127,8.53-0.256,17.034-0.384,25.564c8.557,0.251,17.114,0.485,25.671,0.734c5.959,21.762,1.586,41.969-8.844,61.426
			c-8.518,15.888-16.544,32.026-23.053,48.873c10.805,0.932,21.541,3.875,32.469,1.09c0.244-19.094,0.379-38.193,0.828-57.281
			c0.079-3.439-2.006-8.4,3.047-9.867c3.782-1.097,5.672,3.153,8.42,5.038c3.819,2.615,4.148,7.039,6.009,10.664
			c3.646-7.055,6.313-0.522,8.362,1.07c20.319,15.81,40.389,31.94,60.592,47.897c3.252,2.57,6.278,5.412,11.057,5.508
			c16.499,0.332,32.985,1.683,49.5,0.48C483.544,949.933,437.609,912.604,391.613,875.359z"/>
		<path fill="#1A1126" d="M750.725,132.979c-1.34,13.304-8.795,10.333-16.119,8.049c-2.926-0.914-5.989-1.375-8.99-2.037
			c-16.389,0.777-32.776,1.551-49.164,2.325c0.066,0.094,0.14,0.168,0.207,0.257c-0.694-0.007-1.389-0.017-2.082-0.025
			c-3.093-0.021-57.261,0.866-60.354,0.848c-12.149,4.551-24.672,1.236-37.014,1.765c-1.541,0.007-3.084,0.02-4.627,0.03
			c-11.395,4.491-23.165,1.002-34.744,1.631c-1.512,0-3.027,0.23-4.539,0.231c-12.64,5.056-25.944-0.322-38.882,3.904
			c8.286,0.125,16.569,0.251,27.978,0.424c-43.664,52.417-85.603,103.902-129.689,157.529c-0.609-13.24,2.053-22.876,2.323-32.083
			c0.571-19.612,18.383-27.113,24.197-42.259c0.8-21.52,1.628-43.066,2.375-64.585c0.149-4.295-0.412-8.6,6.146-8.496
			c18.043,0.287,36.049-2.745,54.123-0.703c1.998-2.72,3.998-5.437,6.887-9.362c-12.818-1.171-24.42-0.991-36.119-0.119
			c-16.818,1.248-33.674,2.008-50.521,2.854c-3.401,0.169-7.283,0.531-7.725-4.578c0.067-4.628,0.135-9.253,0.202-13.88
			c-4.723-20.003,13.99-10.628,20.822-16.242c-1.189-3.104-3.677-1.57-5.467-1.869c-1.85-0.309-3.805-0.329-5.678-0.121
			c-7.545,0.821-10.602-2.433-9.263-9.876c-0.802,0.024-1.604-0.145-2.403-0.12c-2.611,174.397-5.225,348.747-7.837,523.002
			c-0.02,19.47-0.038,38.943-0.058,58.36c-0.031,30.171-0.063,60.407-0.094,90.584c-0.411,26.284-0.875,53.558-1.105,80.439
			c-0.009,1.026-0.171,2.046-0.301,3.177c-0.097,0.849-0.174,1.651-0.155,2.471c0.059,2.459,0.996,4.598,4.938,5.464
			c5.191-1.115,10.197-3.556,15.732-2.259c-0.359-3.412-1.13-6.641-1.014-10.035c0.9-26.483,1.813-52.973,2.719-79.257
			c0.113-49.647,0.227-99.297,0.341-148.944c3.592-104.164,7.206-209.697,10.767-314.643c0.191-5.639,1.741-10.182,5.387-14.627
			c37.602-45.85,75.08-91.75,112.473-137.772c3.178-3.912,6.666-5.841,11.716-5.995c31.177-0.954,113.422-2.989,144.594-4.063
			c3.386-0.265,6.776-0.523,11.42-0.887c0.038,0.008,0.077,0.017,0.116,0.023c0.901-0.087,1.803-0.156,2.705-0.24
			c1.209-0.091,2.49-0.192,3.877-0.301c-0.015-0.013-0.027-0.023-0.043-0.038c15.526-1.25,31.086-1.604,46.664-1.401
			c1.266-0.502,2.531-1.004,3.809-1.5C753.205,145.507,753.534,139.05,750.725,132.979z"/>
		<path fill="#422A3D" d="M380.81,128.317c0.004-0.769,0.032-1.54,0.026-2.311c-0.031-4.771-0.486-11.372-6.578-9.153
			c-5.574,2.032-15.912-3.964-16.67,8.762c-1.617,27.138-6.508,53.951-8.59,81.095c-0.748,9.754-0.678,20.173-4.561,29.873
			c-2.09-11.878-3.91-23.761-3.695-35.609c0.021-1.181-0.229-2.371-0.572-3.563c-0.253-0.876-0.557-1.755-0.844-2.632
			c-0.996-3.051-1.781-6.102,0.556-9.068c0.262-0.331,0.563-0.663,0.905-0.991c-0.003-2.292-0.006-4.586-0.007-6.878
			c-2.433-0.417-4.315-1.452-4.444-4.239c-0.35-7.507,0.503-15.025-1.773-22.492c-1.375-4.507,2.252-5.757,6.12-5.779
			c-0.493-7.86-1.573-15.742-1.3-23.577c0.254-7.194-2.685-9.56-9.27-8.874c5.854,4.323,10.803,20.989,5.658,25.011
			c-8.646,6.752-6.153,15.031-6.203,22.877c-0.139,21.502-0.5,42.963,0.668,64.539c1.654,30.479-0.582,61.122,1.266,91.722
			c1.437,23.763,0.43,47.643,0.775,71.453c0.84,57.649,1.026,115.116,2.436,172.778c0.557,22.794,0.653,45.823,0.614,68.214
			c-0.006,49.647-0.014,99.297-0.024,148.944c-0.073,21.418-0.232,43.766-0.209,65.748c0,0.385-0.012,0.668-0.013,1.054
			c-0.011,4.33-0.231,9.248,5.62,9.523c5.107,0.243,5.192-4.265,6.09-8.18c1.405-6.145,3.698-12.103,6.254-20.142
			c6.533,10.107,9.32,19.08,12.032,28.11c1.092,3.634,1.884,7.879,7.023,7.774c5.157-0.102,3.835-4.828,5.201-7.68
			c2.101-4.383,1.751-8.833,1.765-13.429c0.055-21.004-1.993-42.337-1.67-62.78c0.052-49.647,0.164-99.297,0.351-148.944
			c0.038,0,0.065-1.133,0.109-1.797c0.458-6.976,0.265-13.901,0.369-20.902c-0.748-0.002-1.497,0.045-2.246,0.045
			c-0.09,5.995-0.181,12.015-0.271,18.011c-3.615-13.025-3.874-25.789-2.918-39.265c1.426-20.117,7.725-39.399,6.994-59.917
			c-1.393-39.196-0.416-78.493-0.204-117.695C380.086,314.744,380.31,221.531,380.81,128.317z M360.682,391.091
			c0.16-10.632,0.319-21.265,0.479-31.896c0.77-0.005,1.536-0.013,2.305-0.021c-0.159,10.622-0.319,21.242-0.479,31.864
			c2.879,52.229,0.165,104.43-0.705,156.64C356.756,495.525,360.531,443.293,360.682,391.091z"/>
	</g>
</g>
<g id="Capa_2">
</g>
</svg>
