<?xml version="1.0" encoding="utf-8"?>
<!-- Generator: Adobe Illustrator 16.0.3, SVG Export Plug-In . SVG Version: 6.00 Build 0)  -->
<!DOCTYPE svg PUBLIC "-//W3C//DTD SVG 1.1//EN" "http://www.w3.org/Graphics/SVG/1.1/DTD/svg11.dtd">
<svg version="1.1" xmlns="http://www.w3.org/2000/svg" xmlns:xlink="http://www.w3.org/1999/xlink" x="0px" y="0px"
	 width="794.133px" height="368.007px" viewBox="0 0 794.133 368.007" enable-background="new 0 0 794.133 368.007"
	 xml:space="preserve">
<g id="Capa_1">
</g>
<g id="PIE_DER">
</g>
<g id="PIE_IZQ">
</g>
<g id="MANO_DER">
</g>
<g id="MANO_IZQ">
</g>
<g id="CUERPO">
</g>
<g id="CABEZA">
</g>
<g id="BOSQUE">
</g>
<g id="Capa_9">
</g>
<g id="Capa_10">
	<g>
		<path fill="#FFFFFF" d="M549.188,3.59c-49.022-1.915-98.083-3.064-147.103-3.458c-0.001,0-0.001,0-0.001,0
			c-12.779-0.103-25.561-0.155-38.339-0.155c-0.895,0-1.79,0-2.685,0c-0.057,0-0.126,0-0.183,0c-0.376,0-0.753,0-1.129,0
			c-0.072,0-0.151,0-0.222,0c-0.433,0-0.865,0-1.297,0c-0.043,0-0.093,0-0.136,0c-0.356,0-0.707,0-1.061,0c-0.201,0-0.369,0-0.571,0
			c-0.213,0-0.429,0-0.642,0c-0.216,0-0.441,0-0.657,0c-0.174,0-0.355,0-0.528,0c-0.245,0-0.466,0-0.71,0c-0.058,0-0.115,0-0.173,0
			c-0.559,0.014-1.138,0.014-1.699,0.014c-0.138,0-0.274,0-0.413,0c-0.273,0-0.561,0-0.834,0c-0.104,0-0.203,0-0.309,0
			c-0.315,0-0.608,0-0.924,0c-0.025,0-0.055,0-0.08,0c-20.695,0.064-41.412,0.269-62.107,0.6c-0.051,0-0.102,0-0.152,0
			c-0.317,0-0.647,0.014-0.962,0.014c-0.071,0-0.139,0-0.212,0c-0.645,0.012-1.3,0.024-1.946,0.037c-0.025,0-0.051,0-0.078,0
			c-0.229,0-0.462,0.012-0.693,0.012c-0.191,0-0.387,0-0.579,0.016c-0.199,0-0.404,0-0.604,0c-0.239,0.012-0.483,0.012-0.724,0.012
			c-0.157,0.014-0.342,0.014-0.499,0.014c-0.353,0.012-0.697,0.012-1.048,0.024c-0.058,0-0.125,0-0.182,0
			c-0.438,0-0.879,0.013-1.318,0.024c-0.042,0-0.075,0-0.118,0c-0.424,0-0.839,0.013-1.263,0.027c-0.027,0-0.038,0-0.065,0
			c-10.341,0.178-20.685,0.406-31.025,0.664c39.272-0.971,78.526-1.457,117.799-1.457C425.54-0.023,487.363,1.176,549.188,3.59
			C549.188,3.59,549.188,3.59,549.188,3.59"/>
		<path fill="#FFFFFF" d="M564.97,4.24c-0.349-0.025-0.698-0.037-1.047-0.05C564.27,4.203,564.624,4.215,564.97,4.24 M562.543,4.139
			c-0.066-0.014-0.128-0.014-0.193-0.014C562.412,4.125,562.48,4.125,562.543,4.139 M243.816,1.482c0.148,0,0.311,0,0.46-0.012
			C244.123,1.482,243.968,1.482,243.816,1.482 M244.942,1.458c0.273-0.013,0.547-0.013,0.82-0.024
			C245.49,1.445,245.213,1.445,244.942,1.458"/>
		<path fill="#662200" d="M793.945,180.223c0.135-0.63,0.203-1.281,0.185-1.953c-0.176-6.405-0.474-12.957-0.876-19.359
			c-0.036-0.676-0.056-1.18-0.056-1.18h-0.015c-1.114-16-3.03-34.291-5.777-51.516c-4.427-27.719-10.971-55.359-19.632-83.088
			c-1.544-4.914-6.759-9.166-11.554-9.538C516.847-4.605,277.476-4.587,38.102,13.606c-4.792,0.371-10.006,4.392-11.552,9.306
			C20.292,42.938,15.147,62.73,11.101,82.73h-0.007c0,0-0.02,0.389-0.049,0.549c-0.647,3.205-1.271,6.554-1.861,9.76
			c-0.117,0.641-0.158,1.329-0.135,1.925c-1.47,8.663-3.438,20.771-4.886,31.391c-0.096,0.375-0.177,0.772-0.225,1.159
			c-0.131,1.084-0.23,2.18-0.354,3.264c-0.501,3.959-0.902,7.602-1.138,10.608c-0.006,0.07-0.001-0.473-0.005-0.404
			c-2.728,28.84-3.172,57.749-1.321,85.749H1.105c0,0,1.962,41.761,7.227,61.09c0.003,0.01,0.009,0.375,0.011,0.385
			c3.368,19.221,7.75,38.614,13.153,57.837c1.386,4.914,6.535,9.262,11.398,9.594c242.843,16.465,485.688,16.509,728.532,0.046
			c4.865-0.334,10.013-4.57,11.4-9.484c4.195-14.92,7.762-29.833,10.73-44.751c0.014-0.059,0.03-0.104,0.045-0.16
			c5.906-23.121,8.616-50.749,9.745-75.55c0.259-4.338,0.482-8.676,0.638-13.01c0.021-0.617-0.023-1.213-0.128-1.791
			C794.13,199.32,794.094,188.786,793.945,180.223z"/>
		<path fill="#DFA164" d="M783.737,172.717c0.132-0.604,0.199-1.229,0.181-1.873c-0.173-6.137-0.465-12.132-0.86-18.269
			c-0.035-0.646-0.056-0.845-0.056-0.845h-0.014c-1.093-17-2.975-33.148-5.671-49.658c-4.346-26.564-10.769-53.198-19.272-79.775
			c-1.516-4.709-6.634-8.856-11.341-9.212C511.728-4.353,276.751-4.37,41.774,13.065c-4.705,0.357-9.823,3.919-11.34,8.63
			C24.291,40.887,19.241,59.73,15.269,78.73h-0.008c0,0-0.02,0.647-0.047,0.8c-0.634,3.074-1.248,6.417-1.826,9.491
			c-0.116,0.613-0.156,1.342-0.133,1.914c-1.442,8.303-3.375,19.939-4.797,30.119c-0.093,0.359-0.173,0.758-0.219,1.129
			c-0.128,1.039-0.227,2.096-0.348,3.136c-0.493,3.795-0.886,7.29-1.118,10.173c-0.005,0.066,0-0.23-0.004-0.166
			C4.09,162.967,3.653,190.73,5.471,217.73H5.457c0,0,1.926,39.804,7.093,58.33c0.003,0.01,0.009,0.25,0.011,0.26
			c3.306,18.42,7.606,36.952,12.912,55.374c1.361,4.71,6.415,8.85,11.189,9.168c238.384,15.779,476.769,15.808,715.154,0.03
			c4.776-0.32,9.828-4.389,11.19-9.098c4.117-14.301,7.619-28.594,10.532-42.893c0.015-0.055,0.03-0.1,0.045-0.155
			c5.797-22.159,8.458-48.638,9.566-72.407c0.254-4.158,0.475-8.316,0.627-12.473c0.021-0.588-0.022-1.161-0.126-1.715
			C783.918,191.021,783.882,180.924,783.737,172.717z"/>
		<path fill="#EFD6C2" d="M6.938,236.443c0,0,0,0,0-0.013c-0.001-0.013-0.002-0.024-0.003-0.038c0,0,0,0,0,0.014
			c0.001,0.012,0.002,0.024,0.003,0.024C6.938,236.443,6.938,236.443,6.938,236.443L6.938,236.443"/>
		<path fill="#874923" d="M7.896,239.584L7.896,239.584c-0.513-0.984-0.848-2.044-0.959-3.141l0,0
			C7.049,237.54,7.385,238.6,7.896,239.584 M780.941,238.804c0.001,0,0.002,0,0.002,0S780.942,238.804,780.941,238.804
			 M780.961,238.754c0.001,0,0.003,0,0.004-0.012C780.964,238.754,780.962,238.754,780.961,238.754 M780.981,238.701
			c0.002,0,0.004,0,0.006-0.012C780.985,238.701,780.983,238.701,780.981,238.701 M781,238.664c0.002-0.012,0.006-0.012,0.008-0.025
			C781.006,238.652,781.002,238.652,781,238.664 M781.02,238.614c0.002-0.015,0.006-0.027,0.01-0.027
			C781.026,238.6,781.022,238.6,781.02,238.614 M781.039,238.563c0.003-0.013,0.006-0.025,0.01-0.025
			C781.044,238.537,781.042,238.55,781.039,238.563 M781.056,238.512c0.004-0.015,0.008-0.027,0.011-0.027
			C781.063,238.484,781.06,238.497,781.056,238.512 M781.076,238.46c0.004-0.013,0.008-0.024,0.011-0.038
			C781.083,238.436,781.08,238.447,781.076,238.46 M781.092,238.41c0.005-0.016,0.01-0.027,0.014-0.04
			C781.102,238.383,781.097,238.395,781.092,238.41 M781.109,238.357c0.005-0.012,0.01-0.025,0.016-0.037
			C781.12,238.332,781.114,238.346,781.109,238.357 M781.128,238.308c0.005-0.013,0.01-0.027,0.015-0.04
			C781.138,238.28,781.133,238.295,781.128,238.308 M6.934,236.406c0-0.014,0-0.014,0-0.014c-0.014-0.129-0.026-0.256-0.039-0.383
			C6.908,236.137,6.921,236.264,6.934,236.406"/>
		<path fill="#EFD6C2" d="M781.533,236.495L781.533,236.495c0.002-0.015,0.004-0.04,0.006-0.064
			c0.112-1.109,0.222-2.233,0.327-3.358l0,0c-0.105,1.125-0.214,2.249-0.327,3.358C781.537,236.455,781.536,236.48,781.533,236.495"
			/>
		<path fill="#874923" d="M781.145,238.268c0.19-0.573,0.324-1.162,0.389-1.772l0,0
			C781.468,237.105,781.335,237.694,781.145,238.268 M6.876,235.83c-0.009-0.088-0.017-0.178-0.025-0.268
			C6.859,235.652,6.868,235.742,6.876,235.83 M6.832,235.371c-0.007-0.078-0.016-0.152-0.023-0.242
			C6.817,235.219,6.824,235.293,6.832,235.371"/>
		<path fill="#EFD6C2" d="M6.77,234.732c0,0-0.001,0-0.001-0.012C6.77,234.732,6.77,234.732,6.77,234.732"/>
		<path fill="#874923" d="M6.787,234.912c-0.006-0.064-0.012-0.115-0.017-0.18c0,0,0,0-0.001-0.012
			c-0.001,0-0.001-0.014-0.002-0.025C6.772,234.77,6.779,234.835,6.787,234.912"/>
		<path fill="#EFD6C2" d="M6.732,234.363c-0.002-0.027-0.003-0.052-0.006-0.076C6.729,234.312,6.729,234.336,6.732,234.363"/>
		<path fill="#874923" d="M6.742,234.451c-0.002-0.037-0.005-0.063-0.01-0.088c-0.002-0.027-0.003-0.052-0.006-0.076
			c-0.001,0-0.001-0.014-0.002-0.014C6.729,234.324,6.737,234.389,6.742,234.451"/>
		<path fill="#EFD6C2" d="M6.692,233.942c-0.002-0.04-0.005-0.065-0.007-0.09C6.687,233.877,6.689,233.902,6.692,233.942"/>
		<path fill="#874923" d="M6.698,234.005c-0.001-0.024-0.003-0.05-0.006-0.063c-0.002-0.04-0.005-0.065-0.007-0.09
			c0-0.013-0.002-0.013-0.002-0.024C6.688,233.891,6.693,233.942,6.698,234.005"/>
		<path fill="#EFD6C2" d="M6.652,233.521c-0.002-0.041-0.006-0.078-0.01-0.115C6.646,233.443,6.65,233.48,6.652,233.521"/>
		<path fill="#874923" d="M6.657,233.57c-0.001-0.012-0.002-0.037-0.005-0.049c-0.002-0.041-0.006-0.078-0.01-0.115c0,0,0,0-0.001,0
			C6.646,233.456,6.652,233.521,6.657,233.57"/>
		<path fill="#EFD6C2" d="M6.611,233.072c-0.004-0.025-0.006-0.063-0.01-0.088C6.605,233.01,6.607,233.047,6.611,233.072"/>
		<path fill="#874923" d="M6.615,233.125c-0.001-0.013-0.002-0.025-0.003-0.053c-0.004-0.025-0.006-0.063-0.01-0.088
			c0-0.014,0-0.014-0.001-0.027C6.605,233.022,6.61,233.072,6.615,233.125"/>
		<path fill="#874923" d="M6.576,232.703c-0.002-0.012-0.005-0.037-0.006-0.064c-0.003-0.025-0.006-0.063-0.01-0.103l-0.001-0.013
			C6.564,232.588,6.57,232.65,6.576,232.703"/>
		<path fill="#EFD6C2" d="M6.53,232.217c-0.002-0.037-0.006-0.074-0.009-0.114C6.524,232.143,6.528,232.18,6.53,232.217"/>
		<path fill="#874923" d="M6.536,232.27c-0.002-0.013-0.003-0.037-0.006-0.053c-0.002-0.037-0.006-0.074-0.009-0.114
			c-0.002,0-0.002-0.013-0.004-0.013C6.525,232.154,6.53,232.205,6.536,232.27"/>
		<path fill="#EFD6C2" d="M6.49,231.771c-0.004-0.025-0.006-0.063-0.01-0.104C6.484,231.709,6.486,231.733,6.49,231.771"/>
		<path fill="#874923" d="M6.495,231.836c-0.001-0.025-0.003-0.04-0.005-0.064c-0.004-0.038-0.006-0.063-0.01-0.104
			c0-0.012-0.001-0.012-0.001-0.012C6.484,231.709,6.49,231.771,6.495,231.836"/>
		<path fill="#EFD6C2" d="M6.45,231.337c-0.003-0.024-0.006-0.062-0.01-0.103C6.444,231.275,6.447,231.3,6.45,231.337"/>
		<path fill="#874923" d="M6.457,231.402c-0.002-0.013-0.005-0.041-0.006-0.065c-0.003-0.037-0.006-0.062-0.01-0.103
			c0-0.012-0.001-0.024-0.002-0.024C6.444,231.275,6.45,231.337,6.457,231.402"/>
		<path fill="#EFD6C2" d="M6.411,230.903c-0.003-0.024-0.005-0.065-0.008-0.09C6.405,230.838,6.408,230.865,6.411,230.903"/>
		<path fill="#874923" d="M6.417,230.98c-0.002-0.025-0.003-0.053-0.006-0.077c-0.003-0.038-0.005-0.065-0.008-0.09
			c-0.001-0.013-0.003-0.024-0.005-0.05C6.404,230.838,6.411,230.903,6.417,230.98"/>
		<path fill="#EFD6C2" d="M6.372,230.457c-0.001-0.013-0.002-0.025-0.003-0.04C6.369,230.432,6.371,230.444,6.372,230.457"/>
		<path fill="#874923" d="M6.379,230.547c-0.002-0.04-0.005-0.064-0.008-0.09c-0.001-0.013-0.002-0.025-0.003-0.04
			c-0.002-0.024-0.006-0.062-0.009-0.087C6.367,230.404,6.373,230.469,6.379,230.547 M6.339,230.098
			c-0.005-0.063-0.011-0.127-0.018-0.201C6.328,229.971,6.333,230.035,6.339,230.098 M6.301,229.664
			c-0.006-0.074-0.011-0.14-0.018-0.204C6.29,229.524,6.294,229.59,6.301,229.664 M6.265,229.23c-0.006-0.063-0.014-0.14-0.02-0.217
			C6.251,229.091,6.258,229.168,6.265,229.23 M6.226,228.797c-0.006-0.075-0.013-0.152-0.02-0.229
			C6.213,228.645,6.22,228.722,6.226,228.797 M6.188,228.363c-0.006-0.078-0.012-0.165-0.02-0.242
			C6.176,228.198,6.182,228.285,6.188,228.363"/>
		<path fill="#EFD6C2" d="M6.151,227.93c0-0.025-0.002-0.038-0.005-0.065c0.002,0.027,0.005,0.04,0.005,0.052V227.93"/>
		<path fill="#874923" d="M6.151,227.916c0-0.012-0.002-0.024-0.005-0.052c-0.005-0.063-0.011-0.14-0.016-0.202
			C6.136,227.736,6.144,227.826,6.151,227.916"/>
		<path fill="#EFD6C2" d="M6.116,227.495c-0.001-0.024-0.004-0.037-0.005-0.065c0.001,0.016,0.002,0.028,0.003,0.041
			C6.115,227.482,6.116,227.482,6.116,227.495"/>
		<path fill="#874923" d="M6.115,227.471c-0.001-0.013-0.002-0.025-0.003-0.041c-0.006-0.074-0.013-0.151-0.02-0.229
			C6.099,227.291,6.107,227.381,6.115,227.471"/>
		<path fill="#EFD6C2" d="M6.08,227.062c-0.002-0.024-0.004-0.052-0.006-0.077c0.001,0.012,0.002,0.025,0.004,0.039
			C6.078,227.037,6.079,227.049,6.08,227.062 M6.05,226.678c-0.001,0-0.001-0.013-0.002-0.013
			C6.049,226.665,6.049,226.678,6.05,226.678L6.05,226.678"/>
		<path fill="#874923" d="M6.078,227.023c-0.001-0.014-0.002-0.027-0.004-0.039c-0.007-0.103-0.016-0.205-0.023-0.307l0,0
			C6.059,226.792,6.068,226.906,6.078,227.023"/>
		<path fill="#EFD6C2" d="M6.045,226.627c-0.003-0.024-0.005-0.052-0.008-0.076c0.001,0.012,0.002,0.024,0.005,0.037
			C6.042,226.603,6.042,226.615,6.045,226.627 M6.014,226.256c-0.004-0.05-0.008-0.102-0.011-0.152
			c0.001,0.014,0.001,0.014,0.002,0.025c0.002,0.04,0.005,0.077,0.007,0.103C6.013,226.244,6.014,226.244,6.014,226.256
			 M5.98,225.835c-0.005-0.063-0.01-0.128-0.015-0.189c0.001,0.024,0.002,0.037,0.004,0.05c0.002,0.025,0.005,0.053,0.007,0.09
			C5.978,225.797,5.979,225.811,5.98,225.835 M5.945,225.389c-0.003-0.063-0.01-0.127-0.015-0.178
			c0.001,0.014,0.002,0.025,0.003,0.038c0.001,0.024,0.004,0.05,0.006,0.077C5.943,225.352,5.944,225.363,5.945,225.389
			 M5.911,224.955c-0.004-0.063-0.009-0.127-0.014-0.192c0.001,0.013,0.002,0.027,0.002,0.04c0.002,0.025,0.003,0.05,0.006,0.074
			C5.907,224.904,5.909,224.93,5.911,224.955 M5.875,224.508c-0.002-0.037-0.005-0.064-0.007-0.102c0,0,0.001,0.013,0.002,0.025
			C5.872,224.456,5.875,224.483,5.875,224.508"/>
		<path fill="#874923" d="M6.042,226.588c-0.002-0.013-0.003-0.025-0.005-0.037c-0.007-0.103-0.015-0.205-0.023-0.295
			c0-0.012-0.001-0.012-0.001-0.024C6.023,226.346,6.031,226.473,6.042,226.588 M6.005,226.129
			c-0.001-0.012-0.001-0.012-0.002-0.025c-0.008-0.09-0.016-0.18-0.022-0.269c-0.001-0.024-0.002-0.038-0.004-0.05
			C5.985,225.899,5.995,226.014,6.005,226.129 M5.969,225.695c-0.001-0.013-0.002-0.025-0.004-0.05
			c-0.006-0.09-0.012-0.167-0.02-0.257c-0.001-0.025-0.002-0.037-0.005-0.063C5.951,225.453,5.96,225.568,5.969,225.695
			 M5.934,225.249c-0.001-0.013-0.002-0.024-0.003-0.038c-0.006-0.09-0.013-0.179-0.02-0.256c-0.001-0.025-0.004-0.051-0.005-0.078
			C5.915,225.008,5.924,225.121,5.934,225.249 M5.899,224.803c0-0.013-0.001-0.027-0.002-0.04c-0.006-0.09-0.014-0.165-0.021-0.255
			c-0.001-0.024-0.003-0.052-0.005-0.076C5.879,224.559,5.891,224.673,5.899,224.803"/>
		<path fill="#EFD6C2" d="M5.868,224.394c-0.002-0.024-0.005-0.052-0.006-0.077c0.001,0.013,0.001,0.025,0.002,0.037
			C5.866,224.369,5.867,224.381,5.868,224.394 M5.843,224.074c-0.005-0.064-0.01-0.139-0.016-0.204
			c0.002,0.024,0.005,0.038,0.006,0.065c0,0.012,0.001,0.024,0.002,0.037C5.838,223.998,5.841,224.035,5.843,224.074 M5.81,223.629
			c-0.004-0.041-0.006-0.078-0.009-0.115c0,0,0,0,0,0.013C5.803,223.551,5.807,223.588,5.81,223.629"/>
		<path fill="#874923" d="M5.864,224.354c-0.001-0.012-0.001-0.024-0.002-0.037c-0.006-0.077-0.012-0.164-0.019-0.242
			c-0.002-0.039-0.005-0.076-0.007-0.102C5.846,224.1,5.854,224.227,5.864,224.354 M5.833,223.936
			c-0.001-0.027-0.004-0.041-0.006-0.065c-0.006-0.077-0.013-0.167-0.018-0.241c-0.002-0.041-0.006-0.078-0.009-0.103
			C5.812,223.653,5.821,223.793,5.833,223.936"/>
		<path fill="#EFD6C2" d="M5.8,223.498c-0.001-0.012-0.002-0.037-0.004-0.049c0.001,0.012,0.002,0.024,0.004,0.037
			C5.8,223.498,5.8,223.498,5.8,223.498"/>
		<path fill="#874923" d="M5.8,223.486c-0.001-0.013-0.002-0.025-0.004-0.037c-0.009-0.127-0.019-0.254-0.029-0.385
			C5.777,223.207,5.789,223.347,5.8,223.486 M5.766,223.064c-0.01-0.151-0.021-0.291-0.031-0.445
			C5.745,222.773,5.756,222.913,5.766,223.064"/>
		<path fill="#EFD6C2" d="M5.73,222.541c-0.008-0.074-0.014-0.152-0.019-0.229C5.716,222.389,5.722,222.467,5.73,222.541
			 M5.7,222.16c-0.006-0.103-0.014-0.205-0.02-0.295C5.686,221.955,5.694,222.058,5.7,222.16 M5.667,221.701
			c-0.007-0.09-0.014-0.191-0.021-0.294C5.654,221.51,5.66,221.611,5.667,221.701 M5.638,221.279
			c-0.008-0.117-0.015-0.217-0.024-0.318C5.623,221.063,5.63,221.162,5.638,221.279 M5.605,220.831
			c-0.007-0.114-0.015-0.229-0.023-0.344C5.59,220.602,5.598,220.717,5.605,220.831 M5.577,220.41
			c-0.009-0.127-0.018-0.242-0.026-0.369C5.559,220.156,5.568,220.283,5.577,220.41 M5.544,219.938
			c-0.007-0.114-0.015-0.229-0.022-0.344C5.529,219.709,5.537,219.824,5.544,219.938 M5.514,219.492
			c-0.009-0.127-0.016-0.244-0.025-0.359C5.498,219.248,5.505,219.365,5.514,219.492 M5.484,219.046
			c-0.009-0.13-0.018-0.269-0.027-0.396C5.467,218.777,5.476,218.916,5.484,219.046 M5.454,218.609
			c-0.008-0.152-0.019-0.291-0.027-0.434C5.436,218.318,5.446,218.457,5.454,218.609 M5.426,218.164
			c-0.532-8.221-0.865-16.439-1.001-24.662c0.002,0.102,0.003,0.204,0.005,0.307c0.001,0.027,0.001,0.064,0.002,0.09
			c0.002,0.139,0.004,0.27,0.006,0.408c0.001,0.025,0.001,0.037,0.001,0.065c0.005,0.254,0.011,0.509,0.017,0.778
			c0,0.037,0.001,0.076,0.002,0.127c0.002,0.127,0.005,0.256,0.007,0.383c0,0.051,0.001,0.104,0.002,0.141
			c0.005,0.229,0.009,0.445,0.014,0.662c0.001,0.065,0.002,0.128,0.004,0.193c0.002,0.102,0.005,0.217,0.007,0.331
			c0.002,0.077,0.004,0.167,0.006,0.241c0.005,0.154,0.009,0.319,0.012,0.475c0.002,0.102,0.005,0.217,0.008,0.318
			c0.002,0.103,0.005,0.205,0.007,0.295c0.002,0.102,0.005,0.189,0.007,0.279c0.002,0.102,0.005,0.191,0.008,0.281
			c0.003,0.18,0.009,0.344,0.015,0.512c0.001,0.074,0.004,0.164,0.006,0.241c0.002,0.114,0.006,0.229,0.01,0.344
			c0.003,0.09,0.004,0.167,0.006,0.245c0.005,0.176,0.011,0.355,0.016,0.535c0.001,0.051,0.003,0.103,0.004,0.152
			c0.005,0.152,0.011,0.307,0.016,0.446c0.001,0.065,0.004,0.127,0.005,0.18c0.006,0.192,0.012,0.396,0.019,0.586
			c0,0.015,0,0.015,0.001,0.027c0.006,0.189,0.013,0.382,0.019,0.586c0.002,0.04,0.003,0.077,0.006,0.114
			c0.014,0.422,0.028,0.83,0.042,1.239c0.001,0.024,0.002,0.05,0.002,0.065C4.886,208.819,5.123,213.492,5.426,218.164
			 M4.425,193.439c-0.008-0.408-0.013-0.818-0.019-1.227c0.001,0.077,0.003,0.154,0.004,0.229c0,0.027,0,0.052,0.001,0.077
			C4.415,192.826,4.419,193.133,4.425,193.439 M4.405,192.098c-0.002-0.204-0.005-0.394-0.007-0.598
			C4.4,191.704,4.402,191.894,4.405,192.098 M4.396,191.41c-0.002-0.167-0.005-0.332-0.007-0.498
			c0.001,0.064,0.002,0.127,0.002,0.191c0,0.012,0,0.012,0,0.025C4.394,191.219,4.394,191.32,4.396,191.41 M4.387,190.76
			c-0.001-0.18-0.004-0.359-0.005-0.537C4.383,190.4,4.386,190.58,4.387,190.76 M4.38,190.02c-0.001-0.131-0.002-0.258-0.004-0.385
			C4.377,189.762,4.378,189.889,4.38,190.02 M4.375,189.418c-0.001-0.167-0.002-0.318-0.004-0.486
			C4.373,189.1,4.374,189.251,4.375,189.418 M4.369,188.652c0-0.09,0-0.18-0.001-0.27C4.369,188.473,4.369,188.563,4.369,188.652
			 M4.365,187.859c-0.001-0.063-0.001-0.127-0.001-0.189C4.364,187.732,4.364,187.797,4.365,187.859 M4.362,187.312
			c-0.001-0.05-0.001-0.09-0.001-0.14C4.361,187.222,4.361,187.262,4.362,187.312 M4.358,186.48c0-0.024,0-0.062,0-0.086
			C4.358,186.419,4.358,186.456,4.358,186.48"/>
		<path fill="#874923" d="M5.735,222.619c-0.002-0.025-0.004-0.051-0.005-0.078c-0.008-0.074-0.014-0.152-0.019-0.229
			c-0.003-0.051-0.007-0.103-0.011-0.152c-0.006-0.103-0.014-0.205-0.02-0.295c-0.004-0.049-0.008-0.102-0.013-0.164
			c-0.007-0.09-0.014-0.191-0.021-0.294c-0.002-0.053-0.006-0.09-0.009-0.128c-0.008-0.117-0.015-0.217-0.024-0.318
			c-0.002-0.053-0.005-0.09-0.009-0.13c-0.007-0.114-0.015-0.229-0.023-0.344c-0.001-0.024-0.002-0.05-0.005-0.077
			c-0.009-0.127-0.018-0.254-0.026-0.369c-0.001-0.037-0.004-0.064-0.006-0.103c-0.007-0.114-0.015-0.229-0.022-0.344
			c-0.002-0.04-0.005-0.077-0.007-0.103c-0.009-0.127-0.016-0.244-0.025-0.359c-0.001-0.024-0.004-0.063-0.005-0.087
			c-0.009-0.13-0.018-0.269-0.027-0.396c-0.001-0.014-0.001-0.025-0.003-0.041c-0.008-0.152-0.019-0.291-0.027-0.434
			c0-0.012-0.001-0.012-0.001-0.012c-0.303-4.672-0.54-9.345-0.716-14.014c0.002,0.049,0.005,0.1,0.005,0.139
			c0.003,0.078,0.006,0.141,0.008,0.205c0.008,0.177,0.014,0.344,0.02,0.523c0.004,0.102,0.008,0.189,0.011,0.291
			c0.004,0.09,0.008,0.18,0.013,0.282c0.003,0.114,0.009,0.229,0.014,0.345c0.003,0.102,0.007,0.203,0.012,0.307
			c0.005,0.142,0.011,0.293,0.018,0.434c0.002,0.076,0.005,0.142,0.009,0.204c0.009,0.179,0.015,0.358,0.022,0.523
			c0.001,0.013,0.001,0.024,0.002,0.038l0,0C5.065,212.496,5.362,217.553,5.735,222.619 M4.708,204.085
			c-0.015-0.409-0.028-0.817-0.042-1.239c0.001,0.053,0.003,0.09,0.004,0.143c0.001,0.025,0.002,0.05,0.004,0.074
			c0.007,0.244,0.016,0.486,0.025,0.716c0.001,0.052,0.002,0.103,0.005,0.151C4.704,203.982,4.707,204.033,4.708,204.085
			 M4.659,202.731c-0.006-0.204-0.013-0.396-0.019-0.586c0.004,0.127,0.009,0.267,0.013,0.394c0.001,0.016,0.001,0.016,0.001,0.027
			C4.655,202.617,4.658,202.669,4.659,202.731 M4.639,202.118c-0.006-0.19-0.013-0.394-0.019-0.586
			C4.626,201.725,4.633,201.928,4.639,202.118 M4.615,201.353c-0.005-0.14-0.011-0.294-0.016-0.446
			C4.604,201.059,4.61,201.213,4.615,201.353 M4.595,200.754c-0.005-0.18-0.011-0.359-0.016-0.535
			C4.584,200.395,4.59,200.574,4.595,200.754 M4.573,199.974c-0.003-0.114-0.007-0.229-0.01-0.344
			C4.565,199.744,4.569,199.859,4.573,199.974 M4.557,199.389c-0.006-0.168-0.011-0.332-0.015-0.512
			C4.545,199.057,4.551,199.221,4.557,199.389 M4.534,198.596c-0.002-0.09-0.005-0.178-0.007-0.279
			C4.529,198.418,4.532,198.506,4.534,198.596 M4.52,198.021c-0.002-0.102-0.005-0.217-0.008-0.318
			C4.514,197.805,4.517,197.92,4.52,198.021 M4.5,197.229c-0.002-0.074-0.004-0.164-0.006-0.241
			C4.496,197.064,4.497,197.154,4.5,197.229 M4.486,196.656c-0.001-0.065-0.002-0.128-0.004-0.193
			C4.483,196.528,4.484,196.591,4.486,196.656 M4.468,195.801c-0.001-0.037-0.002-0.09-0.002-0.141
			C4.466,195.711,4.467,195.764,4.468,195.801 M4.458,195.277c-0.001-0.051-0.002-0.09-0.002-0.127
			C4.456,195.188,4.457,195.227,4.458,195.277 M4.439,194.372c0-0.028,0-0.04-0.001-0.065
			C4.439,194.332,4.439,194.344,4.439,194.372 M4.432,193.898c-0.001-0.025-0.001-0.063-0.002-0.09
			C4.431,193.836,4.431,193.873,4.432,193.898 M4.411,192.52c-0.001-0.025-0.001-0.05-0.001-0.077
			C4.41,192.47,4.41,192.494,4.411,192.52 M4.391,191.129c0-0.014,0-0.014,0-0.025C4.391,191.104,4.391,191.115,4.391,191.129"/>
		<path fill="#EFD6C2" d="M783.715,202.566c0-0.012,0-0.012,0-0.012S783.715,202.555,783.715,202.566 M783.708,202.502
			C783.708,202.502,783.708,202.502,783.708,202.502C783.708,202.502,783.708,202.502,783.708,202.502 M783.701,202.452
			c-0.001,0-0.001,0-0.001,0S783.7,202.452,783.701,202.452 M783.692,202.399L783.692,202.399L783.692,202.399 M783.685,202.35
			c0,0-0.001,0-0.001-0.015C783.684,202.35,783.685,202.35,783.685,202.35 M783.675,202.297c0,0,0,0-0.001-0.012
			C783.675,202.297,783.675,202.297,783.675,202.297 M783.666,202.248l-0.001-0.014L783.666,202.248 M783.657,202.195
			c-0.001-0.013-0.001-0.013-0.001-0.013S783.656,202.183,783.657,202.195 M783.647,202.146c0-0.013-0.001-0.013-0.001-0.013
			S783.647,202.133,783.647,202.146 M783.638,202.093c0-0.013-0.001-0.013-0.001-0.013S783.638,202.08,783.638,202.093
			 M783.627,202.031c0,0-0.001,0-0.004,0C783.626,202.031,783.627,202.031,783.627,202.031 M783.616,201.979
			c-0.001,0-0.001,0-0.002,0C783.615,201.979,783.615,201.979,783.616,201.979 M783.605,201.928c-0.001,0-0.001,0-0.002-0.012
			C783.604,201.928,783.604,201.928,783.605,201.928 M783.594,201.876c-0.001,0-0.001,0-0.002-0.013
			C783.593,201.876,783.593,201.876,783.594,201.876 M783.582,201.826c0,0,0,0-0.001,0
			C783.582,201.826,783.582,201.826,783.582,201.826 M783.569,201.773C783.568,201.773,783.568,201.773,783.569,201.773
			C783.568,201.773,783.568,201.773,783.569,201.773 M783.557,201.725c-0.001,0-0.001,0-0.001,0H783.557 M783.544,201.672
			C783.543,201.672,783.543,201.672,783.544,201.672C783.543,201.672,783.543,201.672,783.544,201.672"/>
		<path fill="#CE7F42" d="M260.196,121.729c-5.75-0.729-11.502-1.506-17.255-2.324c-42.651,6.268-152.927,3.919-234.633,2.451
			c-0.027,0.151-0.05,0.307-0.07,0.459c-0.254,2.068-0.497,4.123-0.726,6.189c54.435,1.137,113.87,2.146,157.347,1.611
			C227.272,129.347,250.868,125.57,260.196,121.729"/>
		<path fill="#CE7F42" d="M779.375,115.664c-21.486-2.438-48.068-5.334-75.859-7.99c-7.664,0.841-15.334,1.736-23.017,2.641
			c-3.185,0.408-6.37,0.805-9.556,1.215c39.214,3.33,79.27,7.504,109.296,10.785C779.965,120.092,779.677,117.886,779.375,115.664"
			/>
		<path fill="#CE7F42" d="M575.33,122.354c-7.646,0.74-15.295,1.441-22.948,2.104c49.324,11.336,151.066,17.31,230.168,20.755
			c-0.172-2.207-0.36-4.416-0.562-6.624C704.135,134.887,623.94,129.563,575.33,122.354"/>
		<path fill="#CE7F42" d="M537.359,194.602c-0.491-0.013-0.986-0.013-1.485-0.025C536.367,194.589,536.86,194.589,537.359,194.602"
			/>
		<polyline fill="#CE7F42" points="480.599,193.706 480.596,193.706 480.599,193.706 		"/>
		<polyline fill="#CE7F42" points="479.773,193.693 479.721,193.693 479.773,193.693 		"/>
		<path fill="#CE7F42" d="M480.596,193.706c-0.296,0-0.531-0.013-0.706-0.013C480.069,193.693,480.304,193.706,480.596,193.706"/>
		<polyline fill="#CE7F42" points="479.865,193.693 479.773,193.693 479.865,193.693 		"/>
		<polyline fill="#CE7F42" points="479.721,193.693 479.534,193.693 479.721,193.693 		"/>
		<path fill="#DFA164" d="M4.427,178.277c0.014-0.88,0.027-1.762,0.046-2.641C4.456,176.516,4.439,177.397,4.427,178.277z"/>
		<path fill="#CE7F42" d="M4.517,173.078c-0.024,0.855-0.026,1.705-0.044,2.559c0.015-0.854,0.046-1.709,0.066-2.561
			C4.532,173.076,4.524,173.077,4.517,173.078z"/>
		<path fill="#CE7F42" d="M4.369,181.722c0.014-0.001,0.026-0.003,0.04-0.003c0.007-1.146,0.003-2.293,0.019-3.441
			C4.41,179.426,4.377,180.572,4.369,181.722z"/>
		<path fill="#CE7F42" d="M242.506,189.238c273.255,4.254,365.597,5.525,381.964,5.723c-9.395-0.128-17.935-0.244-25.669-0.348
			c20.118,0.23,34.854,0.457,25.669,0.348c37.855,0.51,89.675,1.201,159.283,1.965c0.055-3.357,0.083-6.598,0.092-9.701
			c-180.624-7.098-364.986-11.217-540.149-12.27c-75.747-8.182-159.774-11.64-239.157-1.879c-0.02,0.852-0.051,1.707-0.066,2.561
			c-0.019,0.879-0.032,1.761-0.046,2.641c-0.015,1.148-0.011,2.295-0.019,3.441C83.813,174.741,168.134,180.025,242.506,189.238z"/>
		<path fill="#CE7F42" d="M598.801,194.613c7.734,0.104,16.274,0.22,25.669,0.348C633.655,195.07,618.919,194.844,598.801,194.613z"
			/>
		<polyline fill="#CE7F42" points="479.534,193.693 479.484,193.693 479.534,193.693 		"/>
		<polyline fill="#CE7F42" points="479.891,193.693 479.865,193.693 479.891,193.693 		"/>
		<path fill="#CE7F42" d="M538.27,194.613c-0.304,0-0.608-0.012-0.911-0.012C537.663,194.602,537.968,194.613,538.27,194.613"/>
		<path fill="#CE7F42" d="M535.874,194.576c-1.193-0.015-2.363-0.039-3.513-0.053C533.547,194.537,534.72,194.562,535.874,194.576"
			/>
		<polyline fill="#CE7F42" points="532.361,194.523 532.338,194.523 532.361,194.523 		"/>
		<path fill="#CE7F42" d="M532.338,194.523c-32.733-0.511-47.76-0.752-51.739-0.817
			C486.128,193.796,511.156,194.192,532.338,194.523"/>
		<path fill="#CE7F42" d="M670.643,161.564c-59.619,6.281-221.709-21.482-315.576-29.702
			c-59.077-5.413-243.198,10.352-349.701,21.278c-0.143,2.271-0.271,4.533-0.383,6.805C534.619,135.68,239.62,146.91,584.995,171.65
			c55.599,3.956,83.07,1.161,108.771-1.646c24.228-2.63,46.886-5.272,90.056-2.261c-0.076-2.247-0.168-4.505-0.275-6.751
			C744.981,157.175,706.783,156.459,670.643,161.564"/>
		<path fill="#CE7F42" d="M156.324,228.313C97.745,242.863,46.943,243.132,7.896,239.584c0.71,1.352,1.759,2.553,3.025,3.482
			c38.984,3.347,89.015,2.811,146.45-11.436c100.365-24.879,452.577,4.341,611.261,13.633c0.945-0.025,1.892-0.037,2.839-0.064
			c2.5-0.063,4.874-1.061,6.695-2.615C623.505,233.48,259.238,202.756,156.324,228.313"/>
		<path fill="#CE7F42" d="M332.047,244.867c-8.286-15.367,118.74-1.404,135.832,0.434c16.654,0.666,78.09,4.01,90.604,13.991
			C542.564,268.572,341.481,262.279,332.047,244.867 M562.204,260.109c0.201-0.51,0.515-1.84-0.878-3.115
			c-13.441-12.242-88.931-14.986-93.039-15.176c-13.4-1.443-129.672-14.809-139.249-0.716
			c-11.132,16.823,77.208,24.354,145.237,25.492c27.312-0.831,54.645-1.878,81.998-3.116
			C560.813,262.381,561.783,261.194,562.204,260.109"/>
		<path fill="#7A3E1D" d="M770.652,68.064c-0.001,0-0.002-0.014-0.005-0.014C770.65,68.051,770.651,68.064,770.652,68.064
			 M770.335,66.697c-0.007-0.024-0.016-0.063-0.023-0.09C770.319,66.635,770.328,66.673,770.335,66.697 M770.227,66.238
			c-0.016-0.064-0.03-0.127-0.045-0.191C770.196,66.111,770.212,66.174,770.227,66.238 M770.103,65.703
			c-0.02-0.09-0.04-0.168-0.06-0.254C770.063,65.535,770.083,65.613,770.103,65.703 M769.939,65.015
			c-0.027-0.117-0.055-0.244-0.082-0.358C769.883,64.771,769.912,64.897,769.939,65.015 M769.802,64.426
			c-0.03-0.114-0.058-0.241-0.087-0.355C769.745,64.185,769.772,64.312,769.802,64.426 M769.668,63.878
			c-0.039-0.167-0.077-0.331-0.116-0.499C769.591,63.547,769.63,63.711,769.668,63.878 M769.537,63.316
			c-0.047-0.191-0.094-0.396-0.141-0.588C769.443,62.92,769.489,63.125,769.537,63.316 M769.375,62.639
			c-0.042-0.164-0.083-0.344-0.125-0.511C769.292,62.295,769.334,62.475,769.375,62.639"/>
		<path fill="#F6E7DB" d="M769.082,61.428c-0.006-0.025-0.015-0.065-0.021-0.09C769.066,61.362,769.074,61.402,769.082,61.428
			 M768.963,60.941c-0.01-0.037-0.022-0.09-0.031-0.127C768.942,60.852,768.953,60.904,768.963,60.941 M768.836,60.43
			c-0.004-0.025-0.009-0.037-0.014-0.063C768.827,60.393,768.832,60.404,768.836,60.43 M768.642,59.627
			c-0.018-0.064-0.033-0.127-0.049-0.191C768.609,59.5,768.624,59.563,768.642,59.627 M768.518,59.129
			c-0.02-0.078-0.04-0.165-0.061-0.242C768.478,58.977,768.498,59.051,768.518,59.129 M768.388,58.605
			c-0.023-0.09-0.048-0.192-0.071-0.279C768.341,58.413,768.365,58.516,768.388,58.605 M768.254,58.068
			c-0.042-0.164-0.086-0.344-0.13-0.51C768.168,57.725,768.213,57.904,768.254,58.068 M768.109,57.496
			c-0.042-0.168-0.083-0.332-0.125-0.499C768.027,57.164,768.068,57.328,768.109,57.496 M767.948,56.845
			c-0.037-0.142-0.072-0.282-0.108-0.421C767.875,56.563,767.912,56.703,767.948,56.845 M767.806,56.281
			c-0.041-0.152-0.081-0.318-0.122-0.471C767.725,55.963,767.765,56.129,767.806,56.281 M767.666,55.732
			c-0.1-0.394-0.198-0.777-0.299-1.174C767.467,54.955,767.567,55.339,767.666,55.732 M767.364,54.559
			c-0.049-0.191-0.099-0.381-0.147-0.573C767.265,54.178,767.315,54.367,767.364,54.559 M767.208,53.945
			c-2.103-8.154-4.4-16.313-6.894-24.47c-0.005-0.013-0.009-0.024-0.014-0.038c-0.604-1.979-1.222-3.956-1.85-5.936
			C761.674,33.651,764.593,43.799,767.208,53.945"/>
		<path fill="#7A3E1D" d="M769.23,62.041c-2.629-10.865-5.606-21.74-8.929-32.604c0.005,0.014,0.009,0.025,0.014,0.038
			c2.493,8.157,4.791,16.315,6.894,24.47c0.002,0.016,0.006,0.027,0.009,0.04c0.048,0.192,0.098,0.382,0.147,0.573
			c0.001,0,0.001,0,0.002,0c0.101,0.396,0.2,0.78,0.299,1.174c0.005,0.027,0.012,0.053,0.019,0.078
			c0.041,0.152,0.081,0.318,0.122,0.471c0.01,0.053,0.021,0.09,0.034,0.143c0.036,0.139,0.071,0.279,0.108,0.421
			c0.013,0.05,0.025,0.103,0.036,0.152c0.042,0.167,0.083,0.331,0.125,0.499c0.005,0.012,0.01,0.037,0.015,0.063
			c0.044,0.166,0.087,0.346,0.13,0.51c0.022,0.09,0.041,0.168,0.063,0.258c0.022,0.087,0.047,0.189,0.071,0.279
			c0.022,0.102,0.046,0.191,0.069,0.281c0.021,0.077,0.041,0.164,0.061,0.242c0.025,0.102,0.05,0.204,0.075,0.307
			c0.016,0.064,0.031,0.127,0.049,0.191c0.061,0.254,0.121,0.499,0.181,0.74c0.005,0.025,0.01,0.037,0.014,0.063
			c0.032,0.13,0.065,0.257,0.096,0.385c0.008,0.037,0.021,0.09,0.031,0.127c0.031,0.142,0.064,0.27,0.098,0.396
			c0.006,0.024,0.015,0.064,0.021,0.09C769.131,61.632,769.18,61.836,769.23,62.041"/>
		<path fill="#F6E7DB" d="M19.827,59.678c0.006-0.038,0.014-0.063,0.02-0.088C19.841,59.615,19.833,59.64,19.827,59.678
			 M19.976,59.066c0.011-0.04,0.021-0.078,0.032-0.13C19.997,58.988,19.987,59.026,19.976,59.066 M20.147,58.375
			c0.031-0.127,0.065-0.254,0.096-0.383C20.212,58.121,20.179,58.248,20.147,58.375 M20.286,57.827
			c0.036-0.14,0.071-0.282,0.106-0.434C20.357,57.545,20.322,57.688,20.286,57.827 M20.424,57.279
			c0.039-0.155,0.076-0.307,0.114-0.462C20.5,56.973,20.463,57.124,20.424,57.279 M20.547,56.78
			c0.115-0.446,0.229-0.905,0.344-1.354C20.777,55.875,20.661,56.334,20.547,56.78 M20.96,55.16
			c0.018-0.078,0.038-0.155,0.055-0.217C20.998,55.005,20.978,55.082,20.96,55.16 M21.151,54.419c0-0.013,0.001-0.013,0.001-0.013
			S21.151,54.406,21.151,54.419 M758.425,23.428c-0.052-0.168-0.106-0.334-0.158-0.499C758.319,23.094,758.373,23.26,758.425,23.428
			 M758.229,22.802c-0.063-0.192-0.124-0.384-0.185-0.576C758.105,22.418,758.167,22.609,758.229,22.802 M758.044,22.226
			c-0.135-0.421-0.298-0.83-0.486-1.236c0.001,0,0.001,0,0.001,0l0,0l0,0C757.749,21.396,757.911,21.805,758.044,22.226"/>
		<path fill="#CE7F42" d="M35.06,15.883c-2.128,1.671-3.852,3.932-4.626,6.343c-0.885,2.771-1.75,5.54-2.59,8.31
			c87.696,8.693,150.76-1.084,206.949-10.875c59.506-10.352,111.302-20.718,176.484-9.127
			c110.451,20.705,132.789,33.15,191.545-5.986c-7.702-0.332-15.403-0.65-23.104-0.957c-42.449,23.717-64.55,13.722-147.105-3.458
			c-59.364-0.486-118.728,0.151-178.093,1.899C201.567,12.243,136.947,21.882,35.06,15.883"/>
		<polyline fill="#CE7F42" points="467.167,42.587 467.165,42.587 467.118,42.574 467.167,42.587 		"/>
		<path fill="#CE7F42" d="M494.744,45.586c0.313,0.115-30.917-11.565-80.143-19.862c-4.513-0.421-9.022-0.843-13.526-1.265
			c-48.401-3.829-95.534,5.004-150.715,13.838c-61.662,9.879-133.374,19.747-228.123,11.949c-0.31,1.174-0.616,2.348-0.917,3.51
			c91.23,7.237,165.219-1.865,229.505-10.965c82.846-11.732,149.579-23.449,216.34-0.204c1.558,0.483,26.352,8.13,26.653,8.22
			c85.601,22.771,187.419-5.4,263.742-29.817c-0.96-2.069-2.586-3.96-4.505-5.388C676.056,40.582,577.761,67.593,494.744,45.586"/>
		<path fill="#CE7F42" d="M266.766,116.074c0.933-2.287,0.984-5.822-4.022-9.664C234.805,84.797,105.214,82.743,13.961,86.293
			c-0.193,0.995-0.385,1.99-0.574,3c-0.247,1.301-0.162,2.54,0.196,3.625c97.102-3.371,234.157-0.626,246.625,20.972
			c-1.907,2.336-7.986,4.136-17.267,5.515c5.753,0.818,11.504,1.596,17.255,2.324C265.311,119.646,266.157,117.566,266.766,116.074"
			/>
		<path fill="#CE7F42" d="M293.888,75.125C252.003,81.441,84.75,67.221,18.732,64.197c-0.521,2.182-1.026,4.377-1.517,6.562
			c67.226,3.356,234.187,17.794,277.38,11.257c21.448-4.137,111.022-0.344,212.959,3.447c93.047,3.458,196.394,6.918,267.634,4.354
			c-0.405-2.159-0.823-4.316-1.255-6.473c-68.351,2.08-168.467-1.328-260.005-4.736C409.241,74.703,315.776,70.797,293.888,75.125"
			/>
		<path fill="#CE7F42" d="M523.357,106.805c-3.438,7.008,8.073,12.829,29.025,17.653c7.652-0.663,15.301-1.364,22.948-2.104
			c-24.657-3.664-41.197-7.838-45.327-12.548c9.175-7.085,73.816-4.034,140.94,1.724c3.187-0.41,6.373-0.807,9.556-1.215
			c7.683-0.904,15.353-1.8,23.017-2.641C621.564,99.696,529.437,94.373,523.357,106.805"/>
		<path fill="#F6E7DB" d="M21.186,316.082c-0.301-1.174-0.597-2.336-0.892-3.51C20.589,313.746,20.887,314.908,21.186,316.082
			C21.186,316.082,21.186,316.082,21.186,316.082 M20.222,312.278c-0.011-0.05-0.023-0.103-0.036-0.14
			C20.199,312.176,20.21,312.229,20.222,312.278 M20.083,311.717c-0.005-0.024-0.011-0.039-0.018-0.064
			C20.071,311.678,20.076,311.692,20.083,311.717 M19.947,311.169c-0.004-0.015-0.007-0.028-0.011-0.04
			C19.939,311.141,19.943,311.154,19.947,311.169 M19.808,310.605c-0.001,0-0.002,0-0.003-0.013
			C19.806,310.605,19.807,310.605,19.808,310.605 M18.624,305.703c-0.01-0.037-0.02-0.089-0.031-0.127
			C18.604,305.614,18.614,305.666,18.624,305.703 M18.504,305.193c-0.019-0.063-0.035-0.141-0.052-0.217
			C18.47,305.053,18.486,305.131,18.504,305.193 M18.39,304.709c-0.026-0.102-0.05-0.217-0.075-0.318
			C18.34,304.505,18.364,304.607,18.39,304.709 M18.278,304.223c-0.033-0.127-0.064-0.267-0.095-0.394
			C18.214,303.956,18.245,304.096,18.278,304.223 M18.17,303.777c-0.406-1.748-0.804-3.486-1.192-5.234l0,0
			c0.014,0.065,0.028,0.128,0.042,0.18c0.025,0.115,0.052,0.242,0.077,0.357c0.011,0.037,0.02,0.076,0.029,0.114
			c0.03,0.14,0.062,0.282,0.095,0.421c0.003,0.025,0.007,0.037,0.011,0.065C17.54,301.045,17.853,302.41,18.17,303.777"/>
		<path fill="#7A3E1D" d="M21.187,316.082c-0.3-1.174-0.598-2.336-0.893-3.51c-0.023-0.102-0.047-0.191-0.072-0.294
			c-0.012-0.05-0.023-0.103-0.036-0.14c-0.034-0.143-0.068-0.281-0.104-0.422c-0.006-0.024-0.011-0.039-0.018-0.064
			c-0.04-0.164-0.078-0.319-0.118-0.483c-0.004-0.015-0.007-0.028-0.011-0.04c-0.042-0.178-0.085-0.344-0.127-0.523
			c-0.001,0-0.002,0-0.003-0.013c-0.4-1.62-0.795-3.253-1.181-4.89c-0.01-0.037-0.02-0.089-0.031-0.127
			c-0.03-0.127-0.06-0.254-0.088-0.383c-0.019-0.063-0.035-0.141-0.052-0.217c-0.022-0.088-0.042-0.178-0.063-0.268
			c-0.026-0.102-0.05-0.204-0.075-0.318c-0.012-0.053-0.025-0.104-0.037-0.168c-0.033-0.127-0.064-0.267-0.095-0.394
			c-0.004-0.015-0.008-0.04-0.013-0.052c-0.318-1.367-0.631-2.732-0.938-4.097C18.462,305.143,19.781,310.617,21.187,316.082
			C21.186,316.082,21.186,316.082,21.187,316.082 M17.221,299.615c-0.033-0.139-0.065-0.281-0.095-0.421
			C17.156,299.334,17.188,299.477,17.221,299.615 M17.097,299.08c-0.025-0.115-0.052-0.242-0.077-0.357
			C17.045,298.838,17.072,298.965,17.097,299.08"/>
		<path fill="#CE7F42" d="M368.512,287.31c45.41,8.987,97.212,19.621,139.995,9.753c-5.314-0.688,69.058-25.427,258.512,20.067
			c0.312-1.202,0.619-2.401,0.923-3.601c-189.526-48.289-255.925-24.355-266.74-21.65c-72.157,8.924-114.251-12.879-185.437-20.768
			c-45.766-5.207-203.326-1.582-304.007,0.881c0.353,2.057,0.714,4.123,1.09,6.178C296.096,274.609,309.586,274.393,368.512,287.31
			L368.512,287.31z"/>
		<path fill="#CE7F42" d="M543.077,265.393c6.233-0.573,10.395-1.224,13.196-1.914c-27.352,1.238-54.685,2.285-81.997,3.116
			C504.625,267.143,531.062,266.518,543.077,265.393L543.077,265.393z"/>
		<path fill="#CE7F42" d="M123.876,317.09c9.777,2.184,22.266,7.352,35.386,12.842c78.261,33.303,73.221,18.023,114.165,7.148
			c39.73-11.73,125.444-19.07,357.171,10.506c7.579-0.332,15.155-0.676,22.736-1.047c-119.684-14.092-325.857-42.48-405.361-4.342
			c-34.585,17.105-90.877-21.277-124.032-28.4c-17.124-3.777-63.179-0.664-102.754,2.285c0.286,1.109,0.573,2.223,0.865,3.332
			C61.421,316.517,107.303,313.428,123.876,317.09L123.876,317.09z"/>
		<path fill="#CE7F42" d="M141.94,296.462c28.39,4.583,24.222,27.011,66.682,26.208c40.969-0.818,85.631-22.902,110.256-22.735
			c25.569,0.778,192.819,25.261,242.493,19.122c34.102-3.293,125.174,14.066,175.756,22.822c4.896-0.319,9.792-0.626,14.688-0.957
			c2.127-0.141,4.302-1.033,6.188-2.387c-45.258-7.773-156.211-30.049-196.477-26.371c-32.303,3.521-113.563-4.8-174.08-12.012
			c-76.157-9.063-69.873-10.634-114.846,2.577c-114.796,33.036-86.405-6.28-130.603-12.981c-15.463-2.463-73.26,0.154-126.435,2.259
			c0.458,2.171,0.93,4.353,1.416,6.536C69.738,296.604,127.145,294.051,141.94,296.462L141.94,296.462z"/>
		<path fill="#FFFFFF" d="M4.425,193.502c0-0.013,0-0.037,0-0.063C4.425,193.465,4.425,193.489,4.425,193.502 M4.406,192.213
			c0-0.037-0.001-0.074-0.001-0.115C4.405,192.139,4.406,192.176,4.406,192.213 M4.397,191.5c0-0.027-0.001-0.053-0.001-0.09
			C4.396,191.447,4.397,191.473,4.397,191.5 M4.389,190.912c0-0.051-0.001-0.104-0.001-0.152
			C4.387,190.809,4.389,190.861,4.389,190.912 M4.382,190.223c-0.001-0.064-0.001-0.142-0.002-0.203
			C4.381,190.081,4.381,190.158,4.382,190.223 M4.376,189.635c0-0.064-0.001-0.14-0.001-0.217
			C4.375,189.495,4.376,189.57,4.376,189.635 M4.371,188.932c-0.001-0.087-0.001-0.177-0.002-0.279
			C4.37,188.755,4.37,188.845,4.371,188.932 M4.367,188.383c-0.001-0.176-0.002-0.344-0.002-0.523c0,0.016,0,0.027,0,0.041l0,0
			C4.366,188.064,4.366,188.231,4.367,188.383 M4.364,187.67c-0.001-0.129-0.001-0.244-0.001-0.358c0,0.04,0,0.09,0,0.127l0,0
			C4.362,187.516,4.364,187.594,4.364,187.67 M4.361,187.172c0-0.229-0.001-0.459-0.002-0.691c0,0.016,0,0.028,0.001,0.028
			c0,0.024,0,0.037,0,0.05c0,0.14,0,0.27,0.001,0.408c0,0.014,0,0.025,0,0.051C4.361,187.069,4.361,187.119,4.361,187.172
			 M4.358,186.395c-0.01-4.394,0.035-8.771,0.139-13.162c-0.015,0.664-0.029,1.326-0.042,1.992c0,0.013,0,0.037,0,0.051
			c-0.004,0.154-0.007,0.307-0.01,0.458c-0.001,0.027-0.001,0.052-0.001,0.09c-0.004,0.154-0.006,0.319-0.009,0.486
			c0,0,0,0.013-0.001,0.024c-0.051,2.986-0.076,5.974-0.076,8.961c0,0.102,0,0.204,0,0.307c0,0.012,0,0.039,0,0.052
			c0,0.14,0.001,0.267,0.001,0.394c0,0.027,0,0.053,0,0.078C4.358,186.215,4.358,186.305,4.358,186.395 M4.497,173.221
			c0.011-0.447,0.022-0.908,0.034-1.354C4.52,172.313,4.508,172.773,4.497,173.221 M4.532,171.842
			c0.011-0.446,0.025-0.895,0.038-1.354C4.557,170.947,4.543,171.396,4.532,171.842 M4.57,170.476
			c0.03-1.072,0.064-2.132,0.103-3.191C4.634,168.344,4.601,169.403,4.57,170.476 M4.673,167.26
			c0.016-0.447,0.031-0.896,0.048-1.329C4.704,166.364,4.689,166.813,4.673,167.26 M4.724,165.855
			c0.017-0.436,0.033-0.857,0.051-1.291C4.756,164.998,4.74,165.42,4.724,165.855 M4.779,164.477
			c0.016-0.421,0.035-0.854,0.054-1.291c-0.001,0.053-0.004,0.09-0.005,0.143H4.826c-0.006,0.152-0.013,0.294-0.019,0.445l0,0
			C4.797,164.016,4.788,164.245,4.779,164.477 M4.835,163.123c0.026-0.601,0.053-1.199,0.081-1.8
			c-0.003,0.05-0.005,0.114-0.009,0.18c-0.001,0.024-0.002,0.05-0.004,0.087c-0.005,0.117-0.01,0.244-0.016,0.359
			c-0.001,0.025-0.002,0.05-0.002,0.077c-0.006,0.14-0.013,0.255-0.019,0.394c-0.001,0.013-0.001,0.025-0.002,0.04
			c-0.005,0.14-0.011,0.267-0.017,0.407c0,0.014-0.001,0.027-0.001,0.039C4.841,162.969,4.838,163.046,4.835,163.123 M4.917,161.286
			c0.022-0.449,0.042-0.883,0.066-1.329c-0.002,0.053-0.006,0.102-0.008,0.154c-0.003,0.051-0.005,0.1-0.008,0.152
			c-0.005,0.115-0.01,0.217-0.015,0.319c-0.002,0.037-0.004,0.077-0.006,0.114c-0.005,0.115-0.01,0.229-0.016,0.344
			c-0.001,0.041-0.004,0.065-0.005,0.103C4.922,161.184,4.919,161.233,4.917,161.286 M4.986,159.893
			c0.021-0.419,0.042-0.855,0.064-1.289c-0.002,0.053-0.005,0.102-0.007,0.154c-0.002,0.05-0.005,0.115-0.007,0.164
			c-0.006,0.09-0.011,0.192-0.017,0.282c-0.002,0.065-0.005,0.114-0.007,0.167c-0.005,0.103-0.01,0.202-0.015,0.292
			c-0.002,0.052-0.005,0.103-0.007,0.154C4.988,159.842,4.987,159.867,4.986,159.893 M5.055,158.516
			c0.022-0.436,0.046-0.869,0.07-1.291c-0.001,0.016-0.001,0.016-0.002,0.027c-0.003,0.074-0.007,0.14-0.011,0.217
			c-0.002,0.037-0.003,0.075-0.006,0.115c-0.004,0.063-0.006,0.114-0.009,0.177c-0.002,0.04-0.004,0.065-0.006,0.103
			c-0.002,0.064-0.007,0.114-0.01,0.166c-0.004,0.078-0.009,0.168-0.013,0.242c-0.004,0.078-0.007,0.143-0.01,0.205
			C5.057,158.488,5.057,158.501,5.055,158.516 M5.128,157.162c0.001-0.025,0.002-0.053,0.003-0.077
			c-0.001,0.024-0.001,0.038-0.002,0.052C5.129,157.15,5.128,157.15,5.128,157.162 M5.131,157.085
			c0.009-0.127,0.016-0.267,0.024-0.409c0,0.013-0.001,0.025-0.001,0.025c-0.001,0.027-0.001,0.04-0.002,0.053
			c-0.006,0.102-0.011,0.204-0.019,0.307C5.133,157.072,5.133,157.072,5.131,157.085"/>
		<path fill="#814926" d="M4.365,187.9L4.365,187.9L4.365,187.9 M4.362,187.438L4.362,187.438L4.362,187.438 M4.361,187.018
			c0-0.025,0-0.037,0-0.051C4.361,186.98,4.361,187.005,4.361,187.018 M4.36,186.559c0-0.013,0-0.025,0-0.05
			C4.36,186.533,4.36,186.546,4.36,186.559 M708.375,186.215c0.133-0.92,0.417-1.825,0.848-2.656
			c-0.429,0.831-0.708,1.736-0.841,2.656l0,0 M4.358,186.125c0-0.025,0-0.051,0-0.078C4.358,186.074,4.358,186.1,4.358,186.125
			 M4.357,185.653c0-0.013,0-0.04,0-0.052C4.357,185.613,4.357,185.641,4.357,185.653 M4.357,185.295
			c0-2.987,0.025-5.975,0.076-8.961c-0.004,0.254-0.008,0.512-0.011,0.766c-0.001,0.025-0.001,0.064-0.003,0.102
			c-0.001,0.115-0.003,0.23-0.005,0.345c-0.001,0.052-0.001,0.117-0.002,0.167c-0.001,0.102-0.002,0.191-0.003,0.295
			c-0.005,0.331-0.009,0.662-0.013,0.994c-0.002,0.025-0.002,0.037-0.002,0.064c0,0.152-0.004,0.307-0.005,0.472
			c0,0.013-0.001,0.04-0.001,0.052c-0.001,0.165-0.004,0.332-0.005,0.496c0,0.013,0,0.013,0,0.027
			c-0.005,0.51-0.009,1.02-0.013,1.544c0,0.013,0,0.037-0.001,0.064l0,0C4.361,182.908,4.357,184.107,4.357,185.295 M4.369,181.722
			L4.369,181.722L4.369,181.722L4.369,181.722 M715.909,179.271c0.004,0,0.007,0,0.012,0
			C715.916,179.271,715.913,179.271,715.909,179.271 M715.961,179.259c0.011,0,0.02,0,0.029,0
			C715.981,179.259,715.972,179.259,715.961,179.259 M716.012,179.259c0.014,0,0.028,0,0.041,0
			C716.04,179.259,716.026,179.259,716.012,179.259 M716.06,179.259c0.243-0.015,0.49-0.027,0.744-0.027c0.011,0,0.023,0,0.035,0
			c0.384,0,0.768,0,1.152,0c-0.384,0-0.768,0-1.152,0c-0.01,0-0.021,0-0.031,0C716.553,179.231,716.304,179.244,716.06,179.259
			 M4.435,176.31c0.002-0.167,0.005-0.332,0.009-0.486C4.439,175.978,4.437,176.143,4.435,176.31 M4.445,175.733
			c0.002-0.151,0.006-0.304,0.01-0.458C4.451,175.43,4.447,175.582,4.445,175.733 M4.455,175.225
			c0.014-0.666,0.027-1.328,0.042-1.992v-0.012c0.011-0.447,0.022-0.908,0.034-1.354c0.001-0.014,0.001-0.014,0.001-0.025
			c0.011-0.446,0.025-0.895,0.038-1.354c0,0,0-0.013,0.001-0.013c0.03-1.072,0.064-2.132,0.103-3.191c0-0.013,0-0.024,0-0.024
			c0.016-0.447,0.031-0.896,0.048-1.329c0.001-0.024,0.002-0.05,0.002-0.075c0.017-0.436,0.033-0.857,0.051-1.291
			c0.001-0.025,0.002-0.05,0.004-0.088c0.009-0.231,0.019-0.461,0.028-0.703c-0.145,3.434-0.253,6.869-0.329,10.303
			c-0.002,0.102-0.003,0.203-0.006,0.293c-0.001,0.051-0.002,0.103-0.002,0.152c-0.004,0.127-0.006,0.254-0.009,0.396
			c0,0,0,0,0,0.013C4.459,175.021,4.457,175.123,4.455,175.225 M4.807,163.773c0.006-0.151,0.013-0.293,0.019-0.445
			C4.82,163.48,4.813,163.622,4.807,163.773 M4.827,163.328c0.001-0.053,0.004-0.09,0.005-0.143c0.001-0.025,0.002-0.05,0.002-0.063
			c0.003-0.077,0.006-0.154,0.01-0.217C4.838,163.046,4.833,163.186,4.827,163.328 M4.846,162.867
			c0.006-0.141,0.012-0.268,0.017-0.407C4.858,162.6,4.852,162.727,4.846,162.867 M4.866,162.42
			c0.006-0.139,0.013-0.254,0.019-0.394C4.878,162.153,4.872,162.293,4.866,162.42 M4.887,161.949
			c0.006-0.115,0.011-0.242,0.016-0.359C4.898,161.707,4.894,161.834,4.887,161.949 M4.907,161.503
			c0.003-0.065,0.006-0.13,0.009-0.18c0.001-0.013,0.001-0.024,0.001-0.037c0.002-0.053,0.005-0.103,0.007-0.143
			C4.918,161.258,4.913,161.389,4.907,161.503 M4.93,161.041c0.006-0.114,0.011-0.229,0.016-0.344
			C4.941,160.813,4.936,160.927,4.93,161.041 M4.952,160.583c0.005-0.103,0.01-0.204,0.015-0.319
			C4.962,160.379,4.957,160.48,4.952,160.583 M4.975,160.111c0.002-0.053,0.006-0.102,0.008-0.154c0-0.012,0.001-0.037,0.003-0.064
			c0.001-0.025,0.002-0.051,0.003-0.075C4.984,159.92,4.978,160.021,4.975,160.111 M4.997,159.663
			c0.005-0.09,0.01-0.189,0.015-0.292C5.007,159.474,5.002,159.561,4.997,159.663 M5.019,159.204c0.005-0.09,0.01-0.192,0.017-0.282
			C5.029,159.012,5.024,159.114,5.019,159.204 M5.043,158.758c0.002-0.053,0.005-0.102,0.007-0.154
			c0.002-0.025,0.004-0.063,0.005-0.088c0.001-0.015,0.001-0.027,0.003-0.039C5.053,158.578,5.048,158.668,5.043,158.758
			 M5.068,158.271c0.004-0.074,0.009-0.164,0.013-0.242C5.077,158.107,5.072,158.197,5.068,158.271 M5.097,157.761
			c0.002-0.063,0.005-0.114,0.009-0.177c-0.002,0.037-0.004,0.074-0.006,0.127C5.098,157.723,5.097,157.736,5.097,157.761
			 M5.123,157.252c0.001-0.012,0.001-0.012,0.002-0.027c0-0.025,0.001-0.05,0.003-0.063c0-0.012,0.001-0.012,0.001-0.025
			c0,0.014-0.001,0.025-0.001,0.038C5.125,157.199,5.124,157.225,5.123,157.252 M5.151,156.754c0.001-0.013,0.001-0.025,0.002-0.053
			C5.153,156.729,5.153,156.741,5.151,156.754"/>
		<path fill="#F2DBC7" d="M4.71,204.15c0-0.016-0.001-0.041-0.002-0.065C4.709,204.109,4.71,204.135,4.71,204.15 M4.665,202.846
			c-0.002-0.037-0.003-0.074-0.006-0.114C4.662,202.771,4.663,202.809,4.665,202.846 M4.64,202.146
			c-0.001-0.013-0.001-0.013-0.001-0.027C4.639,202.133,4.639,202.133,4.64,202.146 M4.621,201.532
			c-0.001-0.053-0.004-0.114-0.005-0.18C4.617,201.418,4.619,201.479,4.621,201.532 M4.599,200.906
			c-0.001-0.05-0.002-0.102-0.004-0.152C4.597,200.805,4.598,200.856,4.599,200.906 M4.579,200.219
			c-0.002-0.078-0.003-0.155-0.006-0.245C4.576,200.063,4.577,200.141,4.579,200.219 M4.563,199.63
			c-0.002-0.077-0.005-0.167-0.006-0.241C4.558,199.463,4.561,199.54,4.563,199.63 M4.542,198.877
			c-0.002-0.09-0.005-0.18-0.008-0.281C4.537,198.697,4.54,198.787,4.542,198.877 M4.527,198.316
			c-0.002-0.09-0.005-0.192-0.007-0.295C4.522,198.124,4.524,198.227,4.527,198.316 M4.512,197.703
			c-0.003-0.155-0.007-0.32-0.012-0.475C4.504,197.383,4.508,197.535,4.512,197.703 M4.493,196.987
			c-0.002-0.114-0.005-0.229-0.007-0.331C4.488,196.758,4.491,196.873,4.493,196.987 M4.482,196.463
			c-0.005-0.217-0.009-0.434-0.014-0.662C4.473,196.029,4.477,196.246,4.482,196.463 M4.466,195.66
			c-0.002-0.127-0.005-0.256-0.007-0.383C4.461,195.404,4.463,195.533,4.466,195.66 M4.456,195.15
			c-0.005-0.27-0.011-0.524-0.017-0.778C4.445,194.626,4.451,194.881,4.456,195.15 M4.438,194.307
			c-0.002-0.139-0.004-0.27-0.006-0.408C4.435,194.037,4.436,194.168,4.438,194.307 M4.43,193.809
			c-0.001-0.103-0.002-0.205-0.005-0.307c0-0.013,0-0.037,0-0.063c-0.005-0.307-0.01-0.613-0.014-0.92
			C4.416,192.953,4.423,193.375,4.43,193.809 M4.41,192.442c-0.001-0.075-0.002-0.152-0.004-0.229c0-0.037-0.001-0.074-0.001-0.115
			c-0.002-0.204-0.005-0.394-0.007-0.598c0-0.027-0.001-0.053-0.001-0.09c-0.002-0.09-0.002-0.191-0.005-0.281
			C4.397,191.563,4.403,192.008,4.41,192.442 M4.391,191.104c0-0.064-0.001-0.127-0.002-0.191c0-0.051-0.001-0.104-0.001-0.152
			c-0.001-0.18-0.004-0.359-0.005-0.537c-0.001-0.064-0.001-0.142-0.002-0.203c-0.001-0.131-0.002-0.258-0.004-0.385
			c0-0.064-0.001-0.14-0.001-0.217c-0.001-0.167-0.002-0.318-0.004-0.486c-0.001-0.087-0.001-0.177-0.002-0.279
			c0-0.09,0-0.18-0.001-0.27c-0.001-0.151-0.001-0.318-0.002-0.482C4.37,188.972,4.378,190.031,4.391,191.104 M4.365,187.9
			c0-0.014,0-0.025,0-0.041c-0.001-0.063-0.001-0.127-0.001-0.189c0-0.076-0.001-0.154-0.001-0.231
			C4.364,187.594,4.364,187.745,4.365,187.9 M4.362,187.438c0-0.037,0-0.087,0-0.127c-0.001-0.05-0.001-0.09-0.001-0.14
			c0-0.053,0-0.103,0-0.154C4.361,187.159,4.362,187.299,4.362,187.438 M4.361,186.967c-0.001-0.139-0.001-0.269-0.001-0.408
			C4.36,186.686,4.36,186.828,4.361,186.967 M4.36,186.509c-0.001,0-0.001-0.013-0.001-0.028c0-0.024,0-0.062,0-0.086
			c0-0.09,0-0.18,0-0.27C4.358,186.252,4.358,186.379,4.36,186.509 M4.358,186.047c0-0.127-0.001-0.254-0.001-0.394
			C4.357,185.793,4.358,185.92,4.358,186.047 M4.357,185.602c0-0.103,0-0.205,0-0.307C4.357,185.396,4.357,185.499,4.357,185.602"/>
		<path fill="#9C6034" d="M4.845,207.441L4.845,207.441c-0.001-0.014-0.001-0.025-0.002-0.038
			C4.843,207.416,4.843,207.428,4.845,207.441 M4.82,206.88c-0.004-0.063-0.006-0.128-0.009-0.204
			C4.813,206.74,4.816,206.817,4.82,206.88 M4.793,206.242c-0.005-0.104-0.009-0.205-0.012-0.307
			C4.785,206.037,4.789,206.139,4.793,206.242 M4.768,205.591c-0.005-0.103-0.009-0.192-0.013-0.282
			C4.759,205.398,4.763,205.488,4.768,205.591 M4.744,205.018c-0.006-0.18-0.012-0.347-0.02-0.523
			C4.731,204.671,4.738,204.838,4.744,205.018 M4.715,204.289c0-0.039-0.003-0.09-0.005-0.139c0-0.016-0.001-0.041-0.002-0.065
			c-0.001-0.052-0.003-0.103-0.005-0.155C4.707,204.061,4.711,204.175,4.715,204.289 M4.698,203.778
			c-0.009-0.229-0.018-0.472-0.025-0.716C4.68,203.307,4.689,203.549,4.698,203.778 M4.669,202.988
			c-0.001-0.053-0.002-0.09-0.004-0.143c-0.002-0.037-0.003-0.074-0.006-0.114c-0.001-0.063-0.004-0.114-0.005-0.165
			C4.658,202.706,4.663,202.846,4.669,202.988 M4.653,202.539c-0.004-0.127-0.009-0.267-0.013-0.394
			c-0.001-0.013-0.001-0.013-0.001-0.027c-0.006-0.19-0.013-0.394-0.019-0.586c-0.001-0.053-0.004-0.114-0.005-0.18
			c-0.005-0.14-0.011-0.294-0.016-0.446c-0.001-0.05-0.002-0.102-0.004-0.152c-0.005-0.18-0.011-0.359-0.016-0.535
			c-0.002-0.078-0.003-0.155-0.006-0.245c-0.003-0.114-0.007-0.229-0.01-0.344c-0.002-0.09-0.005-0.167-0.006-0.241
			c-0.006-0.168-0.011-0.332-0.015-0.512c-0.002-0.09-0.005-0.18-0.008-0.281c-0.002-0.09-0.005-0.178-0.007-0.279
			c-0.002-0.09-0.005-0.192-0.007-0.295c-0.002-0.102-0.005-0.217-0.008-0.318c-0.003-0.168-0.007-0.32-0.012-0.475
			c-0.002-0.074-0.004-0.164-0.006-0.241c-0.002-0.114-0.005-0.229-0.007-0.331c-0.001-0.065-0.002-0.128-0.004-0.193
			c-0.005-0.217-0.009-0.434-0.014-0.662c-0.001-0.037-0.002-0.09-0.002-0.141c-0.002-0.127-0.005-0.256-0.007-0.383
			c-0.001-0.051-0.002-0.09-0.002-0.127c-0.005-0.27-0.011-0.524-0.017-0.778c0-0.028,0-0.04-0.001-0.065
			c-0.002-0.139-0.004-0.27-0.006-0.408c-0.001-0.025-0.001-0.063-0.002-0.09c-0.006-0.434-0.014-0.855-0.019-1.289
			c-0.001-0.025-0.001-0.05-0.001-0.077c-0.006-0.435-0.012-0.88-0.019-1.313c0-0.014,0-0.025,0-0.025
			c-0.013-1.072-0.021-2.132-0.026-3.203l0,0c-0.001-0.155-0.001-0.307-0.002-0.462l0,0c0-0.14-0.001-0.279-0.001-0.421
			c0-0.013,0-0.037,0-0.051c-0.001-0.139-0.001-0.281-0.001-0.408c0-0.013,0-0.025,0-0.05c-0.001-0.13-0.001-0.257-0.001-0.384
			c0-0.025,0-0.051,0-0.078c0-0.127-0.001-0.254-0.001-0.394c0-0.013,0-0.04,0-0.052c0-0.103,0-0.205,0-0.307
			c0-1.188,0.003-2.387,0.011-3.573l0,0l0,0l0,0l0,0C4.321,188.665,4.417,195.608,4.653,202.539"/>
		<path fill="#FFFFFF" d="M5.169,156.422c0.006-0.09,0.011-0.191,0.016-0.281C5.18,156.23,5.175,156.332,5.169,156.422
			 M5.212,155.682c0.006-0.115,0.011-0.217,0.018-0.319C5.224,155.465,5.219,155.566,5.212,155.682 M5.241,155.17
			c0.012-0.204,0.025-0.421,0.038-0.625c-0.012,0.191-0.022,0.384-0.035,0.588C5.242,155.146,5.241,155.158,5.241,155.17
			 M5.289,154.393c0.006-0.115,0.014-0.229,0.021-0.344C5.302,154.163,5.295,154.277,5.289,154.393 M5.323,153.816
			c0.01-0.177,0.021-0.344,0.033-0.523C5.345,153.473,5.333,153.64,5.323,153.816 M5.372,153.039
			c0.006-0.103,0.012-0.217,0.02-0.319C5.384,152.822,5.378,152.937,5.372,153.039 M5.408,152.478
			c0.009-0.154,0.019-0.307,0.029-0.446C5.427,152.171,5.418,152.323,5.408,152.478 M5.457,151.697
			c0.008-0.102,0.015-0.189,0.021-0.291C5.472,151.508,5.465,151.596,5.457,151.697 M5.496,151.124
			c0.009-0.127,0.016-0.241,0.026-0.369C5.512,150.869,5.504,150.997,5.496,151.124 M5.548,150.346
			c0.006-0.076,0.012-0.166,0.019-0.256C5.56,150.18,5.554,150.27,5.548,150.346 M5.59,149.745c0.005-0.077,0.01-0.151,0.015-0.217
			C5.6,149.605,5.595,149.668,5.59,149.745 M5.643,149.005c0.005-0.077,0.01-0.14,0.015-0.217
			C5.652,148.865,5.647,148.928,5.643,149.005 M5.688,148.379c0.003-0.05,0.009-0.114,0.012-0.177
			C5.696,148.265,5.691,148.329,5.688,148.379 M5.741,147.651c0.003-0.05,0.007-0.114,0.012-0.177
			C5.749,147.537,5.745,147.589,5.741,147.651 M5.787,147.027c0.004-0.052,0.007-0.09,0.01-0.142
			C5.794,146.938,5.791,146.976,5.787,147.027 M5.842,146.313c0.002-0.053,0.006-0.09,0.01-0.143
			C5.848,146.223,5.844,146.26,5.842,146.313 M5.891,145.674c0.002-0.039,0.006-0.077,0.009-0.114
			C5.897,145.597,5.893,145.635,5.891,145.674 M5.945,144.959c0.002-0.025,0.005-0.065,0.008-0.09
			C5.951,144.894,5.948,144.934,5.945,144.959 M5.998,144.32c0.001-0.025,0.004-0.05,0.006-0.077
			C6.001,144.271,5.999,144.295,5.998,144.32 M6.054,143.617c0.001-0.025,0.004-0.037,0.005-0.063
			C6.058,143.58,6.055,143.605,6.054,143.617 M6.107,142.967c0.001-0.013,0.002-0.037,0.004-0.051
			C6.11,142.93,6.109,142.954,6.107,142.967 M6.165,142.278c0.001-0.013,0.002-0.024,0.002-0.037
			C6.167,142.254,6.166,142.266,6.165,142.278 M6.22,141.628c0.001-0.013,0.002-0.024,0.004-0.04
			C6.222,141.604,6.221,141.615,6.22,141.628 M6.28,140.938L6.28,140.938L6.28,140.938 M6.335,140.299
			c0.001-0.012,0.003-0.025,0.004-0.037C6.338,140.273,6.337,140.287,6.335,140.299 M6.457,138.947L6.457,138.947L6.457,138.947
			 M6.58,137.619v-0.013V137.619 M6.705,136.293l0.001-0.016C6.705,136.277,6.705,136.277,6.705,136.293 M6.834,134.951
			L6.834,134.951L6.834,134.951 M7.243,130.97l0.001-0.015L7.243,130.97 M7.385,129.653c0.001-0.013,0.002-0.024,0.004-0.037
			C7.388,129.629,7.386,129.641,7.385,129.653 M7.534,128.314c0,0,0.001-0.015,0.001-0.027C7.535,128.3,7.534,128.314,7.534,128.314
			 M7.682,126.998c0.001-0.012,0.002-0.037,0.003-0.05C7.685,126.961,7.683,126.986,7.682,126.998 M7.834,125.685
			c0.002-0.024,0.005-0.053,0.007-0.077C7.839,125.632,7.836,125.66,7.834,125.685"/>
		<path fill="#FFFFFF" d="M7.99,124.355c0.004-0.025,0.007-0.063,0.011-0.087C7.997,124.293,7.994,124.33,7.99,124.355"/>
		<path fill="#E5AD70" d="M7.972,124.51c0.006-0.052,0.011-0.102,0.018-0.154c0.004-0.025,0.007-0.063,0.011-0.087
			c0.004-0.04,0.009-0.077,0.013-0.117C8,124.269,7.986,124.383,7.972,124.51 M8.058,123.782c0.012-0.09,0.02-0.167,0.03-0.241
			C8.08,123.615,8.07,123.705,8.058,123.782"/>
		<path fill="#FFFFFF" d="M8.148,123.041c0.005-0.037,0.01-0.076,0.017-0.127C8.158,122.965,8.153,123.004,8.148,123.041"/>
		<polyline fill="#D78F51" points="480.599,193.706 480.596,193.706 480.599,193.706 		"/>
		<polyline fill="#D78F51" points="479.773,193.693 479.721,193.693 479.773,193.693 		"/>
		<path fill="#D78F51" d="M480.596,193.706c-0.292,0-0.527-0.013-0.706-0.013C480.065,193.693,480.3,193.706,480.596,193.706"/>
		<polyline fill="#D78F51" points="479.865,193.693 479.773,193.693 479.865,193.693 		"/>
		<polyline fill="#D78F51" points="479.721,193.693 479.534,193.693 479.721,193.693 		"/>
		<polyline fill="#D78F51" points="479.534,193.693 479.484,193.693 479.534,193.693 		"/>
		<polyline fill="#D78F51" points="479.891,193.693 479.865,193.693 479.891,193.693 		"/>
		<path fill="#D78F51" d="M538.27,194.613c-0.304,0-0.608-0.012-0.911-0.012C537.663,194.602,537.968,194.613,538.27,194.613"/>
		<path fill="#D78F51" d="M535.874,194.576c-0.349,0-0.697-0.015-1.042-0.015C535.18,194.562,535.529,194.576,535.874,194.576
			 M534.832,194.562c-0.818-0.013-1.64-0.024-2.471-0.038C533.174,194.537,533.997,194.549,534.832,194.562"/>
		<polyline fill="#D78F51" points="532.361,194.523 532.338,194.523 532.361,194.523 		"/>
		<path fill="#D78F51" d="M532.338,194.523c-3.474-0.049-7.051-0.114-10.627-0.166c-0.359-0.014-0.717-0.014-1.076-0.014
			c0.323,0,0.647,0,0.975,0.014C524.952,194.409,528.524,194.459,532.338,194.523 M520.635,194.344
			c-0.537-0.012-1.066-0.024-1.592-0.024c-0.155-0.013-0.311-0.013-0.465-0.013c-14.139-0.217-23.864-0.369-30.075-0.471
			c-1.39-0.027-2.604-0.04-3.654-0.064c7.109,0.114,20.346,0.331,33.979,0.535C519.429,194.319,520.031,194.332,520.635,194.344
			 M484.849,193.771c-1.881-0.025-3.334-0.053-4.25-0.065l0,0l0,0C481.466,193.719,482.861,193.746,484.849,193.771"/>
		<path fill="#E5AD70" d="M17.629,68.919c0.007-0.024,0.015-0.05,0.022-0.09C17.645,68.869,17.637,68.895,17.629,68.919
			 M18.366,65.74c0.009-0.037,0.02-0.074,0.029-0.115C18.386,65.666,18.375,65.703,18.366,65.74 M18.466,65.318
			c0.021-0.087,0.043-0.189,0.066-0.279C18.509,65.129,18.487,65.231,18.466,65.318"/>
		<path fill="#FFFFFF" d="M629.164,5.786c-0.084-0.013-0.207-0.013-0.293-0.013C628.97,5.773,629.066,5.773,629.164,5.786
			 M627.081,5.684c-0.027,0-0.047-0.012-0.076-0.012C627.03,5.672,627.057,5.684,627.081,5.684 M625.267,5.594
			c-0.201-0.012-0.407-0.024-0.607-0.037C624.858,5.569,625.069,5.582,625.267,5.594 M623.453,5.504
			c-0.214-0.012-0.408-0.024-0.623-0.037C623.041,5.479,623.243,5.492,623.453,5.504 M621.311,5.402
			c-0.302-0.013-0.583-0.025-0.885-0.05C620.723,5.377,621.012,5.39,621.311,5.402 M619.638,5.324
			c-0.331-0.024-0.64-0.037-0.969-0.049C618.991,5.287,619.314,5.3,619.638,5.324 M618.609,5.275
			c-0.817-0.037-1.656-0.078-2.476-0.115C616.953,5.197,617.792,5.238,618.609,5.275 M615.751,5.135
			c-5.234-0.244-10.435-0.473-15.669-0.702c-0.1,0-0.198-0.013-0.297-0.013c-0.273-0.013-0.528-0.025-0.8-0.037
			c-0.312-0.016-0.624-0.027-0.935-0.04c-0.027,0-0.058,0-0.085,0c-0.735-0.038-1.471-0.063-2.205-0.103
			C602.43,4.535,609.082,4.828,615.751,5.135"/>
		<path fill="#FFFFFF" d="M41.774,13.049c70.922-5.258,141.82-8.936,212.741-11.018c0,0,0.001,0-0.001,0
			C183.594,4.113,112.695,7.791,41.774,13.049"/>
		<polyline fill="#D78F51" points="467.165,42.587 467.118,42.574 467.157,42.587 467.165,42.587 		"/>
	</g>
</g>
</svg>
